<?xml version="1.0" standalone="no"?>
<!DOCTYPE svg PUBLIC "-//W3C//DTD SVG 1.1//EN" "http://www.w3.org/Graphics/SVG/1.1/DTD/svg11.dtd" >
<svg xmlns="http://www.w3.org/2000/svg" xmlns:xlink="http://www.w3.org/1999/xlink" version="1.1">
<metadata>
Created by FontForge 20200427 at Thu Mar  5 11:36:47 2015
 By www
Copyright (c) 2014 by Nick Shinn. All rights reserved.
</metadata>
<defs>
<font id="NeologyDecoW03-Regular" horiz-adv-x="517" >
  <font-face 
    font-family="NeologyDecoW03-Regular"
    font-weight="400"
    font-stretch="normal"
    units-per-em="1000"
    panose-1="2 0 0 0 0 0 0 0 0 0"
    ascent="800"
    descent="-200"
    x-height="450"
    cap-height="717"
    bbox="-40 -226 1087 940"
    underline-thickness="50"
    underline-position="-125"
    unicode-range="U+0020-2122"
  />
<missing-glyph horiz-adv-x="490" 
d="M1 755h488v-755h-488v755zM411 60v635h-331v-635h331z" />
    <glyph glyph-name=".notdef" horiz-adv-x="490" 
d="M1 755h488v-755h-488v755zM411 60v635h-331v-635h331z" />
    <glyph glyph-name="glyph1" horiz-adv-x="0" 
 />
    <glyph glyph-name="glyph1" horiz-adv-x="0" 
 />
    <glyph glyph-name="nonmarkingreturn" horiz-adv-x="333" 
 />
    <glyph glyph-name="space" unicode=" " horiz-adv-x="251" 
 />
    <glyph glyph-name="exclam" unicode="!" horiz-adv-x="273" 
d="M176 177h-79l-14 540h106zM75 49q0 26 18 43.5t43 17.5t43 -17.5t18 -43.5q0 -25 -18 -42t-43 -17t-43 17t-18 42z" />
    <glyph glyph-name="quotedbl" unicode="&#x22;" horiz-adv-x="405" 
d="M247 436l-4 281h83l-4 -281h-75zM84 436l-4 281h82l-4 -281h-74z" />
    <glyph glyph-name="numbersign" unicode="#" horiz-adv-x="598" 
d="M558 411h-122l-22 -155h122l-9 -60h-122l-28 -196h-64l28 196h-146l-28 -196h-64l28 196h-121l9 60h121l22 155h-122l9 60h121l27 183h64l-27 -183h147l26 183h64l-26 -183h122zM226 411l-22 -155h146l22 155h-146z" />
    <glyph glyph-name="dollar" unicode="$" 
d="M100 160q23 -39 53 -61.5t65 -30.5v227q-48 14 -80 32t-50.5 40.5t-26.5 50t-8 60.5q0 36 14 67t36.5 54t52 37.5t59.5 19.5v72h79v-72q110 -14 168 -106l-61 -45q-19 32 -47.5 53t-63.5 28v-228q93 -28 134 -75t41 -107q0 -40 -13 -71t-36.5 -52.5t-54.5 -34.5t-67 -17
v-80h-79v80q-30 3 -58 13.5t-51 26.5t-40.5 35t-26.5 39zM385 165q0 47 -25 72t-70 39v-209q43 5 69 32t26 66zM132 482q0 -44 22 -67t64 -37v209q-38 -8 -62 -37.5t-24 -67.5z" />
    <glyph glyph-name="percent" unicode="%" horiz-adv-x="733" 
d="M193 665q37 0 65 -12.5t47.5 -33.5t29.5 -48.5t10 -56.5q0 -30 -10.5 -57.5t-30 -49t-48 -34.5t-64.5 -13t-64.5 12.5t-48 33.5t-29.5 48.5t-10 56.5q0 30 10.5 57.5t30 49t48 34.5t64.5 13zM624 656l-438 -656h-77l438 656h77zM193 419q21 0 37.5 8t27.5 20.5t16.5 29
t5.5 34.5t-5.5 34.5t-16.5 29.5t-27.5 21t-37.5 8q-44 0 -65.5 -27.5t-21.5 -62.5q0 -18 5.5 -35t17 -30.5t27.5 -21.5t37 -8zM539 295q37 0 65.5 -12.5t48 -33.5t29.5 -48.5t10 -56.5q0 -30 -10.5 -57.5t-30 -49t-48 -34.5t-64.5 -13q-37 0 -65 12.5t-47.5 33.5t-29.5 48
t-10 56q0 30 10 58t29.5 49.5t48 34.5t64.5 13zM539 49q22 0 38 7.5t27 20.5t16.5 29t5.5 34q0 36 -22 65t-65 29q-22 0 -38 -7.5t-27 -20t-16.5 -29t-5.5 -33.5q0 -18 5.5 -35t17 -30.5t27.5 -21.5t37 -8z" />
    <glyph glyph-name="ampersand" unicode="&#x26;" horiz-adv-x="689" 
d="M667 325h-131v-325h-255q-62 0 -106 16t-72 43t-40.5 62t-12.5 73q0 63 33.5 105t87.5 62q-51 28 -74 74t-23 94q0 39 14 74.5t41 62.5t68 43t95 16q34 0 64.5 -6.5t47.5 -14.5l-24 -71q-38 16 -84 16q-35 0 -60 -10t-40.5 -27.5t-23 -40t-7.5 -46.5t7.5 -46.5t24 -40.5
t43.5 -28.5t67 -10.5h140v130h89v-130h131v-74zM146 199q0 -27 11 -52.5t35 -44.5l3 -2q17 -12 41.5 -19.5t61.5 -7.5h149v252h-145q-43 0 -73 -10t-48.5 -27.5t-26.5 -40.5t-8 -48z" />
    <glyph glyph-name="quotesingle" unicode="'" horiz-adv-x="195" 
d="M60 436l-4 281h83l-4 -281h-75z" />
    <glyph glyph-name="parenleft" unicode="(" horiz-adv-x="346" 
d="M69 251q0 130 43.5 250.5t131.5 225.5l68 -40q-78 -99 -116 -208.5t-38 -227.5t38 -227.5t116 -208.5l-68 -40q-88 104 -131.5 225t-43.5 251z" />
    <glyph glyph-name="parenright" unicode=")" horiz-adv-x="346" 
d="M278 251q0 -130 -43.5 -251t-132.5 -225l-68 40q78 99 116 208.5t38 227.5t-38 227.5t-116 208.5l68 40q89 -105 132.5 -225.5t43.5 -250.5z" />
    <glyph glyph-name="asterisk" unicode="*" horiz-adv-x="422" 
d="M247 717q-2 -32 -3 -63.5t-2 -63.5q29 11 57.5 21.5t57.5 21.5l22 -63q-29 -10 -59 -19t-59 -18l75 -100q-14 -9 -27.5 -18.5t-26.5 -19.5l-71 104l-71 -104q-13 10 -26.5 19.5t-27.5 18.5l75 100q-29 9 -58.5 18.5t-59.5 18.5l22 63q29 -11 57.5 -21.5t57.5 -21.5
l-5 127h72z" />
    <glyph glyph-name="plus" unicode="+" horiz-adv-x="598" 
d="M528 207h-193v-207h-72v207h-194v72h194v207h72v-207h193v-72z" />
    <glyph glyph-name="comma" unicode="," horiz-adv-x="224" 
d="M84 107h94l-73 -240h-68z" />
    <glyph glyph-name="hyphen" unicode="-" horiz-adv-x="360" 
d="M300 202h-239v83h239v-83z" />
    <glyph glyph-name="period" unicode="." horiz-adv-x="224" 
d="M52 50q0 25 18 43t43 18t43 -18t18 -43t-18 -43t-43 -18t-43 18t-18 43z" />
    <glyph glyph-name="slash" unicode="/" horiz-adv-x="407" 
d="M-9 -40l338 791h86l-339 -791h-85z" />
    <glyph glyph-name="zero" unicode="0" 
d="M468 328q0 -69 -9 -124.5t-29 -98.5q-26 -55 -67.5 -85.5t-104.5 -30.5q-65 0 -107.5 32t-67.5 89q-19 44 -26.5 98t-7.5 120q0 63 6 116t23 95q26 60 69.5 93.5t110.5 33.5t110.5 -33.5t69.5 -93.5q18 -43 24 -95t6 -116zM376 327q0 54 -2.5 98.5t-14.5 82.5
q-14 43 -40 64.5t-61 21.5q-34 0 -60 -21.5t-40 -64.5q-12 -38 -15 -82.5t-3 -98.5q0 -53 3 -98.5t15 -83.5q14 -42 40 -63t60 -21q35 0 61 21t40 63q12 38 14.5 83.5t2.5 98.5z" />
    <glyph glyph-name="one" unicode="1" 
d="M230 78v465l-125 -59l-30 67l244 115v-588h138v-78h-366v78h139z" />
    <glyph glyph-name="two" unicode="2" 
d="M245 594q-53 0 -83 -32t-48 -79l-76 29q9 29 26.5 56.5t43 49.5t61 35t80.5 13q42 0 79 -14.5t65 -40t44 -60.5t16 -76q0 -36 -11 -68t-29.5 -63t-43.5 -60.5t-52 -60.5l-129 -145h289v-78h-432v38l201 224q34 39 56.5 68t35 53.5t17.5 46t5 44.5q0 25 -9 47t-24.5 38.5
t-36.5 25.5t-45 9z" />
    <glyph glyph-name="three" unicode="3" 
d="M473 195q0 -41 -15 -78.5t-43.5 -66t-69 -45t-91.5 -16.5q-73 0 -131.5 36t-83.5 105l79 32q16 -48 52 -75t82 -27q30 0 54 10.5t41 28.5t26 42t9 52q0 44 -24 78t-74 51q-17 5 -37 8t-49 3h-33l-4 11l167 233h-271v78h401v-24l-177 -243q49 -5 85 -23t60 -45t35.5 -59.5
t11.5 -65.5z" />
    <glyph glyph-name="four" unicode="4" 
d="M307 168h-289v38l272 449h96l-252 -412h173v151h89v-151h88v-75h-88v-168h-89v168z" />
    <glyph glyph-name="five" unicode="5" 
d="M471 206q0 -47 -16.5 -86.5t-46 -68.5t-70 -45.5t-88.5 -16.5q-35 0 -68 9t-60.5 26.5t-48.5 43.5t-33 61l78 30q17 -48 50 -73.5t79 -25.5q31 0 55.5 11.5t42 31t27 45.5t9.5 55q0 27 -8.5 53.5t-25 46.5t-41.5 32.5t-59 12.5t-67 -16.5t-56 -41.5l-66 25l63 340h322
v-78h-257l-38 -198q25 17 56.5 25.5t63.5 8.5q43 0 80 -15t64.5 -42.5t43 -65.5t15.5 -84z" />
    <glyph glyph-name="six" unicode="6" 
d="M214 409q25 7 59 7q40 0 78 -15.5t66.5 -43.5t46 -67t17.5 -86q0 -46 -16.5 -85.5t-46 -68t-70.5 -45t-91 -16.5q-49 0 -89.5 15.5t-70 44t-46 68t-16.5 87.5q0 21 3 41t11 42t21 47.5t34 57.5l168 263h108zM258 347q-31 0 -55.5 -11t-42 -30.5t-26.5 -46t-9 -56.5t9 -56
t26.5 -45.5t42 -30.5t55.5 -11q32 0 57 11.5t42 31t25.5 45t8.5 54.5q0 64 -36 104.5t-97 40.5z" />
    <glyph glyph-name="seven" unicode="7" 
d="M44 577v78h451v-11q-75 -162 -149.5 -322.5t-149.5 -321.5h-97l272 577h-327z" />
    <glyph glyph-name="eight" unicode="8" 
d="M476 178q0 -43 -16 -78t-44.5 -59.5t-68.5 -38t-88 -13.5q-50 0 -90 13.5t-68.5 38.5t-44 60t-15.5 77q0 61 30.5 104t82.5 63q-41 20 -66 57.5t-25 88.5q0 33 12.5 64.5t37 56t61.5 39.5t85 15t84.5 -14.5t61 -39t37 -56t12.5 -65.5q0 -51 -25 -88.5t-66 -57.5
q52 -20 82.5 -63t30.5 -104zM258 375q47 0 77.5 28.5t30.5 82.5q0 22 -6.5 42t-19.5 35t-33 23.5t-48 8.5t-48 -8.5t-33.5 -23.5t-20 -35t-6.5 -42q0 -54 28.5 -82.5t78.5 -28.5zM259 60q62 0 94 36.5t32 87.5q0 25 -8.5 47.5t-24.5 40t-39.5 27.5t-53.5 10q-31 0 -55 -10
t-40 -27.5t-24.5 -40t-8.5 -47.5q0 -26 8.5 -48.5t24.5 -39t40 -26.5t55 -10z" />
    <glyph glyph-name="nine" unicode="9" 
d="M303 246q-27 -7 -60 -7q-41 0 -78.5 15.5t-66 43.5t-46 67t-17.5 86q0 46 16.5 85.5t46 68t70.5 45t91 16.5q49 0 90 -15.5t70.5 -44t46 -68t16.5 -87.5q0 -21 -3 -41t-11 -42t-21 -47.5t-34 -57.5l-169 -263h-108zM258 308q31 0 56 11t42.5 30.5t26.5 46t9 56.5t-9 56
t-26.5 45.5t-42.5 30.5t-56 11q-32 0 -57 -11.5t-42 -31t-25.5 -45.5t-8.5 -54q0 -64 36 -104.5t97 -40.5z" />
    <glyph glyph-name="colon" unicode=":" horiz-adv-x="254" 
d="M66 50q0 25 18 43t43 18t43 -18t18 -43t-18 -43t-43 -18t-43 18t-18 43zM66 348q0 25 18 43t43 18t43 -18t18 -43t-18 -43t-43 -18t-43 18t-18 43z" />
    <glyph glyph-name="semicolon" unicode=";" horiz-adv-x="254" 
d="M98 107h94l-73 -240h-68zM72 348q0 25 18 43t43 18t43 -18t18 -43t-18 -43t-43 -18t-43 18t-18 43z" />
    <glyph glyph-name="less" unicode="&#x3c;" horiz-adv-x="598" 
d="M80 211v65l407 192l30 -61l-345 -164q5 -2 31.5 -14.5t63 -30t78 -37t78 -37t62.5 -29.5t32 -14l-29 -64z" />
    <glyph glyph-name="equal" unicode="=" horiz-adv-x="598" 
d="M528 304h-459v70h459v-70zM528 113h-459v71h459v-71z" />
    <glyph glyph-name="greater" unicode="&#x3e;" horiz-adv-x="598" 
d="M516 212q-102 -48 -203.5 -96t-203.5 -97l-30 62l345 162l-345 164l30 62l407 -192v-65v0z" />
    <glyph glyph-name="question" unicode="?" horiz-adv-x="458" 
d="M323 556q0 22 -8 40.5t-22 31t-32.5 19.5t-39.5 7q-27 0 -50 -8.5t-42 -22t-33.5 -30t-25.5 -32.5q-14 13 -28 25t-28 26q11 19 30.5 39.5t46 37t60 27.5t72.5 11q41 0 77 -12.5t62.5 -35.5t42 -55t15.5 -70q0 -42 -23 -78.5t-56 -69.5l-16 -16q-19 -18 -34 -34
t-25.5 -34.5t-16.5 -40t-7 -49.5q-2 -24 -2 -36v-19h-75q-2 16 -3.5 33.5t-1.5 33.5q0 36 6.5 62.5t19.5 48t30.5 41t40.5 41.5q26 25 46 52t20 67zM148 48q0 26 17.5 43.5t43.5 17.5q25 0 43 -17.5t18 -43.5q0 -25 -18 -42t-43 -17q-26 0 -43.5 17t-17.5 42z" />
    <glyph glyph-name="at" unicode="@" horiz-adv-x="810" 
d="M754 408q0 -47 -14 -91t-41 -78t-65.5 -55t-87.5 -21q-18 0 -35 2.5t-30.5 9.5t-22.5 18t-12 28q-24 -26 -50.5 -42t-52.5 -16q-48 0 -77.5 36t-29.5 106q0 51 17 96t43.5 78.5t59 53t64.5 19.5q27 0 45.5 -12.5t26.5 -39.5l15 41h64l-53 -233q-6 -26 -7.5 -38t-1.5 -17
q0 -14 11 -21.5t39 -7.5q24 0 46.5 13.5t40 37.5t28 57.5t10.5 72.5q0 52 -15.5 99t-46.5 82.5t-78 56.5t-109 21q-73 0 -130 -27t-96 -71t-59.5 -100.5t-20.5 -114.5q0 -66 18.5 -121t56 -95t95 -62.5t135.5 -22.5q54 0 105.5 17t98.5 47l32 -47q-51 -38 -113.5 -58
t-125.5 -20q-100 0 -171 29.5t-116.5 79.5t-66.5 115t-21 137q0 70 25 137.5t73.5 120.5t119 85.5t161.5 32.5q78 0 138 -26.5t100 -70.5t60.5 -101.5t20.5 -119.5zM466 366q2 11 5 28t3 32q0 29 -11 48t-36 19q-24 0 -45.5 -17t-37.5 -44t-25.5 -61t-9.5 -68
q0 -42 17 -60.5t34 -18.5q27 0 44.5 14.5t29.5 36t19.5 46.5t12.5 45z" />
    <glyph glyph-name="A" unicode="A" horiz-adv-x="678" 
d="M488 225h-305l-87 -225h-95l285 717h106l285 -717h-102zM214 305h244l-121 316z" />
    <glyph glyph-name="B" unicode="B" horiz-adv-x="621" 
d="M557 529q0 -21 -7 -44t-20.5 -45t-34.5 -40.5t-49 -30.5q35 -14 60 -33.5t41 -42t23.5 -47t7.5 -48.5q0 -38 -14.5 -73.5t-43.5 -63t-71.5 -44.5t-97.5 -17h-278v717h273q51 0 90.5 -15.5t66 -41t40.5 -60t14 -71.5zM335 80q38 0 66 10.5t46 27.5t26.5 39t8.5 45
q0 56 -40 90.5t-107 34.5h-169v-247h169zM327 398q37 0 62.5 11t41.5 28t23 39t7 45q0 20 -7 41t-22.5 37.5t-40.5 27t-61 10.5h-164v-239h161z" />
    <glyph glyph-name="C" unicode="C" horiz-adv-x="704" 
d="M42 358q0 75 25.5 142.5t72 117.5t112 79.5t145.5 29.5q52 0 95.5 -11.5t78 -30t59.5 -41.5t41 -47l-68 -52q-42 51 -91.5 76t-115.5 25q-59 0 -107 -23t-81.5 -62t-52 -91.5t-18.5 -111.5t19 -111.5t53 -91.5t81.5 -62t105.5 -23q63 0 117 26.5t90 74.5l69 -47
q-51 -71 -123 -103t-152 -32q-81 0 -146.5 29.5t-112 79.5t-71.5 117.5t-25 142.5z" />
    <glyph glyph-name="D" unicode="D" horiz-adv-x="713" 
d="M671 359q0 -84 -35.5 -161t-102.5 -128q-42 -32 -98 -51t-133 -19h-229v717h228q72 0 126.5 -16.5t96.5 -44.5q36 -25 63.5 -58.5t46 -72.5t28 -81.5t9.5 -84.5zM575 359q0 71 -27 131t-76 97q-32 25 -75 37.5t-94 12.5h-137v-557h135q56 0 102 14.5t78 41.5
q45 38 69.5 97t24.5 126z" />
    <glyph glyph-name="E" unicode="E" horiz-adv-x="565" 
d="M532 0h-459v717h451v-80h-358v-237h243v-80h-243v-240h366v-80z" />
    <glyph glyph-name="F" unicode="F" horiz-adv-x="525" 
d="M166 637v-237h253v-80h-253v-320h-93v717h427v-80h-334z" />
    <glyph glyph-name="G" unicode="G" horiz-adv-x="790" 
d="M42 358q0 76 26 143.5t73 117.5t112.5 79t143.5 29q56 0 101 -13t79.5 -32.5t58.5 -41.5t38 -41l-71 -54q-15 18 -34 36.5t-44 32.5t-56.5 23t-72.5 9q-59 0 -107 -23t-81.5 -62t-52 -91.5t-18.5 -111.5t18.5 -111.5t53 -91.5t83.5 -62t109 -23q47 0 87 13.5t71.5 37.5
t53 57t32.5 71h-185v76h288v-11q0 -19 -4 -41t-11 -44t-16 -43t-19 -37q-22 -35 -52 -64t-68 -50.5t-83 -33.5t-96 -12q-83 0 -149.5 29.5t-112.5 80t-70.5 117.5t-24.5 142z" />
    <glyph glyph-name="H" unicode="H" horiz-adv-x="721" 
d="M648 0h-94v320h-388v-320h-93v717h93v-317h388v317h94v-717v0z" />
    <glyph glyph-name="I" unicode="I" horiz-adv-x="239" 
d="M73 0v717h93v-717h-93z" />
    <glyph glyph-name="J" unicode="J" horiz-adv-x="491" 
d="M83 164q25 -46 59 -69t72 -23q25 0 48 11t38 31q11 17 17 39t6 57v507h93v-500q0 -48 -9 -81.5t-25 -56.5q-25 -42 -67.5 -66t-98.5 -24q-64 0 -120.5 33t-89.5 92l77 50v0z" />
    <glyph glyph-name="K" unicode="K" horiz-adv-x="600" 
d="M73 0v717h93v-329l294 329h117l-317 -347l328 -370h-120l-302 342v-342h-93z" />
    <glyph glyph-name="L" unicode="L" horiz-adv-x="520" 
d="M500 0h-427v717h93v-637h334v-80z" />
    <glyph glyph-name="M" unicode="M" horiz-adv-x="820" 
d="M655 0v594l-238 -351h-16l-237 350v-593h-91v717h107l231 -339l231 339h105v-717h-92z" />
    <glyph glyph-name="N" unicode="N" horiz-adv-x="724" 
d="M562 0l-402 584v-584h-87v717h101l389 -568v568h88v-717h-89z" />
    <glyph glyph-name="O" unicode="O" horiz-adv-x="820" 
d="M410 70q62 0 112 23t85.5 62.5t55 91.5t19.5 111q0 58 -19.5 110.5t-55 92t-85.5 62.5t-112 23t-112 -23t-85.5 -62t-55 -91.5t-19.5 -110.5q0 -59 19.5 -111t55 -92t85.5 -63t112 -23zM410 -11q-89 0 -158 32t-115.5 84t-70.5 118.5t-24 135.5t24 135t70.5 118
t115.5 83.5t158 31.5t157.5 -32t115.5 -83.5t71 -118t24 -135.5t-24 -135.5t-71 -118t-115.5 -83.5t-157.5 -32z" />
    <glyph glyph-name="P" unicode="P" horiz-adv-x="588" 
d="M559 502q0 -57 -25 -104.5t-69 -75.5q-26 -17 -60.5 -28.5t-82.5 -11.5h-156v-282h-93v717h248q51 0 85.5 -10t62.5 -29q42 -29 66 -74t24 -102zM322 362q33 0 57.5 9t41.5 25q20 19 31.5 46.5t11.5 57.5q0 34 -13.5 62.5t-37.5 47.5q-17 13 -38.5 20t-52.5 7h-156v-275
h156z" />
    <glyph glyph-name="Q" unicode="Q" horiz-adv-x="820" 
d="M638 63q-45 -35 -101.5 -54.5t-126.5 -19.5q-89 0 -158 32t-115.5 84t-70.5 118.5t-24 135.5t24 135t70.5 118t115.5 83.5t158 31.5t157.5 -32t115.5 -83.5t71 -118t24 -135.5q0 -65 -21.5 -127.5t-63.5 -112.5l91 -70l-47 -62zM410 70q45 0 85 12.5t72 35.5l-96 74
l49 61l102 -80q29 38 44.5 85t15.5 100q0 58 -19.5 110.5t-55 92t-85.5 62.5t-112 23t-112 -23t-85.5 -62t-55 -91.5t-19.5 -110.5q0 -59 19.5 -111t55 -92t85.5 -63t112 -23z" />
    <glyph glyph-name="R" unicode="R" horiz-adv-x="616" 
d="M311 285h-145v-285h-93v717h264q56 0 99.5 -17.5t73 -47t44.5 -68t15 -81.5q0 -37 -11.5 -70.5t-33 -60t-51.5 -45.5t-66 -28l215 -299h-112zM324 362q33 0 55.5 6.5t39.5 18.5q27 19 41 49t14 65q0 38 -16.5 69t-48.5 49q-15 8 -34.5 13t-48.5 5h-160v-275h158z" />
    <glyph glyph-name="S" unicode="S" horiz-adv-x="564" 
d="M522 195q0 -50 -19.5 -88.5t-53 -64.5t-77.5 -39.5t-93 -13.5q-40 0 -78.5 9t-72.5 25.5t-62.5 39.5t-49.5 52l62 58q41 -54 95 -78.5t106 -24.5q32 0 59.5 7.5t48 22.5t32 36.5t11.5 49.5q0 51 -42.5 81.5t-110.5 50.5l-60 18q-50 15 -83 33.5t-53.5 42t-29 51.5
t-8.5 61q0 42 16.5 78.5t47.5 64.5t73.5 44t95.5 16q74 0 138.5 -29t101.5 -85l-64 -59q-30 41 -75 66t-101 25q-37 0 -64 -10.5t-44 -27.5t-25.5 -37.5t-8.5 -39.5q0 -23 6.5 -40t20.5 -30t36.5 -23t54.5 -20l71 -22q41 -13 77.5 -28.5t63.5 -38t42.5 -55t15.5 -78.5z" />
    <glyph glyph-name="T" unicode="T" horiz-adv-x="608" 
d="M590 637h-241v-637h-93v637h-238v80h572v-80z" />
    <glyph glyph-name="U" unicode="U" horiz-adv-x="695" 
d="M622 283q0 -37 -5 -71.5t-16 -60.5q-14 -35 -38.5 -65t-57 -51.5t-72 -33.5t-83.5 -12q-95 0 -162.5 43.5t-96.5 120.5q-18 48 -18 129v435h93v-434q0 -66 16 -103q21 -48 62.5 -79t104.5 -31t104 30t61 81q15 33 15 103v433h93v-434v0z" />
    <glyph glyph-name="V" unicode="V" horiz-adv-x="648" 
d="M325 119l222 598h101l-279 -717h-94l-275 717h103z" />
    <glyph glyph-name="W" unicode="W" horiz-adv-x="937" 
d="M469 502l78 215h91l-127 -326l103 -282l222 608h101l-279 -717h-84l-107 278l-108 -278h-84l-275 717h103l222 -608l101 276l-127 332h93z" />
    <glyph glyph-name="X" unicode="X" horiz-adv-x="674" 
d="M539 0l-205 288l-207 -288h-106l262 362l-253 355h116l195 -274l198 274h104l-252 -347l264 -370h-116z" />
    <glyph glyph-name="Y" unicode="Y" horiz-adv-x="600" 
d="M240 0h-100l120 235l-262 482h106l205 -384l193 384h100z" />
    <glyph glyph-name="Z" unicode="Z" horiz-adv-x="599" 
d="M557 0h-515v88l395 549h-391v80h497v-87l-397 -550h411v-80z" />
    <glyph glyph-name="bracketleft" unicode="[" horiz-adv-x="404" 
d="M349 -210h-256v927h255v-62h-167v-801h168v-64z" />
    <glyph glyph-name="backslash" unicode="\" horiz-adv-x="404" 
d="M330 -36l-338 787h85l339 -787h-86z" />
    <glyph glyph-name="bracketright" unicode="]" horiz-adv-x="404" 
d="M54 -146h168v799h-167v64h254v-927h-255v64z" />
    <glyph glyph-name="asciicircum" unicode="^" horiz-adv-x="585" 
d="M428 306q-34 69 -68 136.5t-69 136.5q-34 -69 -68 -136.5t-69 -136.5h-84l186 365h71q48 -91 94 -182t93 -183h-86z" />
    <glyph glyph-name="underscore" unicode="_" horiz-adv-x="501" 
d="M501 -166h-501v72h501v-72z" />
    <glyph glyph-name="grave" unicode="`" horiz-adv-x="324" 
d="M263 572l-53 -40l-122 142l66 50z" />
    <glyph glyph-name="a" unicode="a" horiz-adv-x="485" 
d="M209 285q34 0 70 -12t61 -34v32q0 35 -7 55t-21 34q-29 30 -79 30q-27 0 -60 -11t-65 -34l-35 60q38 28 83 41.5t88 13.5q40 0 75 -12t61 -38q26 -29 36 -59.5t10 -78.5v-272h-81l-3 43q-12 -14 -28.5 -24.5t-35 -17t-37.5 -9.5t-36 -3q-39 0 -70 12t-52.5 32t-33 47.5
t-11.5 57.5q0 28 10.5 54.5t32 47t53.5 33t75 12.5zM340 139q0 20 -10.5 36t-27 26.5t-37 16t-39.5 5.5q-47 0 -74.5 -23t-27.5 -61q0 -37 26.5 -61t74.5 -24q24 0 44.5 6t36.5 17t25 26.5t9 35.5z" />
    <glyph glyph-name="b" unicode="b" horiz-adv-x="562" 
d="M525 225q0 -51 -17 -93t-46 -73q-32 -35 -74.5 -52.5t-86.5 -17.5q-45 0 -86 18.5t-68 53.5l-2 -1l-4 -60h-82v717h88v-328l2 -1q28 35 69 53.5t85 18.5t85.5 -17.5t73.5 -52.5q29 -32 46 -74.5t17 -90.5zM146 225q0 -78 40.5 -122t104.5 -44q32 0 58.5 12.5t46 34.5
t30 52.5t10.5 66.5q0 37 -11.5 67.5t-31 52t-45.5 33.5t-56 12q-36 0 -63.5 -13.5t-46 -36t-27.5 -52.5t-9 -63z" />
    <glyph glyph-name="c" unicode="c" horiz-adv-x="486" 
d="M125 224q0 -36 11.5 -66.5t31 -52.5t46 -34t56.5 -12q45 0 75 19.5t56 55.5l62 -43q-31 -48 -80 -75t-111 -27q-52 0 -95.5 18.5t-74.5 51t-48 75t-17 90.5t18 91t49.5 75.5t74.5 51t93 18.5q58 0 106.5 -23t80.5 -67l-60 -49q-21 28 -52.5 48t-76.5 20
q-30 0 -56.5 -12.5t-46 -34.5t-31 -52.5t-11.5 -65.5z" />
    <glyph glyph-name="d" unicode="d" horiz-adv-x="562" 
d="M37 225q0 48 17 90.5t46 74.5q32 35 73.5 52.5t85.5 17.5t85 -18.5t69 -53.5l2 1v328h88v-717h-82l-4 60l-2 1q-27 -35 -68 -53.5t-86 -18.5q-44 0 -86.5 17.5t-74.5 52.5q-29 31 -46 73t-17 93zM416 225q0 33 -9 63t-27.5 52.5t-46 36t-63.5 13.5q-30 0 -56 -12
t-45.5 -33.5t-31 -52t-11.5 -67.5q0 -36 10.5 -66.5t30 -52.5t46 -34.5t58.5 -12.5q64 0 104.5 44t40.5 122z" />
    <glyph glyph-name="e" unicode="e" horiz-adv-x="526" 
d="M269 59q41 0 73 17t59 55l62 -41q-30 -48 -81.5 -74.5t-114.5 -26.5q-49 0 -91 16.5t-73 47.5t-48.5 74t-17.5 97q0 48 16 91t46 75t72 51t94 19q48 0 89 -16.5t71.5 -47t47.5 -75t17 -101.5v-14h-369q2 -33 15 -60t33 -46.5t46 -30t54 -10.5zM399 268q-5 58 -43.5 90
t-90.5 32q-29 0 -53 -10.5t-42.5 -27.5t-30 -39t-14.5 -45h274z" />
    <glyph glyph-name="f" unicode="f" horiz-adv-x="283" 
d="M280 642q-11 4 -23 6.5t-23 2.5q-26 0 -44.5 -12t-25.5 -39q-2 -9 -3.5 -25t-1.5 -58v-67h112v-70h-112v-380h-88v380h-60v70h60v43q0 27 0.5 44t1.5 33q2 38 15 66.5t34 48t48 29t57 9.5q17 0 34.5 -3t34.5 -11z" />
    <glyph glyph-name="g" unicode="g" horiz-adv-x="562" 
d="M503 68v-27.5t-1 -27.5q-2 -58 -21 -100.5t-50 -71t-71.5 -42.5t-85.5 -14q-62 0 -117.5 25.5t-88.5 70.5l59 56q13 -16 29.5 -30.5t35.5 -26t39.5 -18.5t41.5 -7q39 0 71.5 16t51.5 50q9 17 14 40.5t5 66.5v32l-2 1q-28 -35 -69 -53.5t-85 -18.5t-85.5 17.5t-73.5 52.5
q-29 32 -46 74.5t-17 90.5q0 51 17 93t46 73q32 35 74.5 52.5t86.5 17.5q45 0 86 -18.5t68 -53.5l2 1l4 61h82v-382zM416 224q0 78 -40.5 122t-104.5 44q-32 0 -58.5 -12.5t-46 -34.5t-30 -52.5t-10.5 -66.5q0 -37 11.5 -67.5t31 -52t45.5 -33.5t56 -12q36 0 63.5 13.5
t46 36t27.5 52.5t9 63z" />
    <glyph glyph-name="h" unicode="h" horiz-adv-x="510" 
d="M363 0v253q0 31 -3 50.5t-11 35.5q-11 23 -33 37t-54 14t-56 -13.5t-38 -33.5q-10 -15 -15.5 -34t-5.5 -52v-257h-88v717h88v-314l1 -1q23 28 60 43t75 15q44 0 83 -19.5t62 -60.5q11 -22 17 -49t6 -70v-261h-88z" />
    <glyph glyph-name="i" unicode="i" horiz-adv-x="206" 
d="M59 0v450h88v-450h-88zM46 662q0 23 16.5 40t40.5 17q23 0 40 -17t17 -40q0 -24 -17 -40.5t-40 -16.5q-24 0 -40.5 16.5t-16.5 40.5z" />
    <glyph glyph-name="j" unicode="j" horiz-adv-x="206" 
d="M46 662q0 23 16.5 40t40.5 17q23 0 40 -17t17 -40q0 -24 -17 -40.5t-40 -16.5q-24 0 -40.5 16.5t-16.5 40.5zM59 450h88v-520q0 -33 -11 -60.5t-31 -46.5t-47.5 -29.5t-59.5 -10.5q-6 0 -17 0.5t-20 2.5v70q8 -1 15.5 -1h14.5q29 0 48.5 18t19.5 60v517z" />
    <glyph glyph-name="k" unicode="k" horiz-adv-x="461" 
d="M59 0v717h88v-468l194 201h100l-215 -212l226 -238h-112l-193 205v-205h-88z" />
    <glyph glyph-name="l" unicode="l" horiz-adv-x="206" 
d="M59 0v717h88v-717h-88z" />
    <glyph glyph-name="m" unicode="m" horiz-adv-x="788" 
d="M280 460q38 0 73 -16t58 -48q27 30 64.5 47t86.5 17q42 0 83.5 -19.5t62.5 -60.5q11 -22 16 -49t5 -70v-261h-88v253q0 31 -3 50.5t-10 35.5q-11 23 -31.5 37t-50.5 14q-31 0 -53 -12.5t-35 -32.5q-9 -15 -14.5 -35t-5.5 -53v-257h-88v253q0 31 -3 50.5t-10 35.5
q-11 23 -31.5 37t-50.5 14q-31 0 -53 -12.5t-35 -32.5q-9 -15 -14.5 -35t-5.5 -53v-257h-88v450h82l4 -55q7 10 19.5 21.5t30 21.5t39 16t46.5 6z" />
    <glyph glyph-name="n" unicode="n" horiz-adv-x="510" 
d="M363 0v253q0 31 -3 50.5t-11 35.5q-11 23 -32 37t-54 14q-34 0 -57.5 -12.5t-37.5 -32.5q-10 -15 -15.5 -35t-5.5 -53v-257h-88v450h81l5 -52q23 30 60.5 46t77.5 16q44 0 83 -19.5t62 -60.5q11 -22 17 -49t6 -70v-261h-88z" />
    <glyph glyph-name="o" unicode="o" horiz-adv-x="552" 
d="M276 59q34 0 62 13.5t48 36.5t30.5 53t10.5 62q0 33 -10.5 63t-30.5 53t-48 36.5t-62 13.5q-35 0 -62.5 -13.5t-47.5 -36.5t-30.5 -53t-10.5 -63q0 -32 10.5 -62t30.5 -53t47.5 -36.5t62.5 -13.5zM276 -11q-56 0 -100 19t-75 51.5t-47.5 75t-16.5 89.5t16.5 89.5t47.5 75
t75 52t100 19.5q55 0 99.5 -19.5t75.5 -52t47.5 -75t16.5 -89.5t-16.5 -89.5t-47.5 -75t-75.5 -51.5t-99.5 -19z" />
    <glyph glyph-name="p" unicode="p" horiz-adv-x="562" 
d="M525 224q0 -48 -17 -90.5t-46 -74.5q-32 -35 -73.5 -52.5t-85.5 -17.5t-85 18.5t-69 53.5l-2 -1v-270h-88v660h82l4 -61l2 -1q27 35 68 53.5t86 18.5q44 0 86.5 -17.5t74.5 -52.5q29 -31 46 -73t17 -93zM146 224q0 -33 9 -63t27.5 -52.5t46 -36t63.5 -13.5q30 0 56 12
t45.5 33.5t31 52t11.5 67.5q0 36 -10.5 66.5t-30 52.5t-46 34.5t-58.5 12.5q-64 0 -104.5 -44t-40.5 -122z" />
    <glyph glyph-name="q" unicode="q" horiz-adv-x="562" 
d="M37 224q0 51 17 93t46 73q32 35 74.5 52.5t86.5 17.5q45 0 86 -18.5t68 -53.5l2 1l4 61h82v-660h-88v270l-2 1q-28 -35 -69 -53.5t-85 -18.5t-85.5 17.5t-73.5 52.5q-29 32 -46 74.5t-17 90.5zM415 224q0 78 -40 122t-104 44q-32 0 -58.5 -12.5t-46 -34.5t-30 -52.5
t-10.5 -66.5q0 -37 11.5 -67.5t31 -52t45.5 -33.5t56 -12q36 0 63.5 13.5t45.5 36t27 52.5t9 63z" />
    <glyph glyph-name="r" unicode="r" horiz-adv-x="340" 
d="M309 365q-15 8 -32.5 12.5t-32.5 4.5q-40 0 -68.5 -32t-28.5 -107v-243h-88v450h83l3 -58q23 31 51.5 49.5t66.5 18.5q17 0 32.5 -4t32.5 -14l-19 -77v0z" />
    <glyph glyph-name="s" unicode="s" horiz-adv-x="412" 
d="M371 126q0 -30 -12.5 -55.5t-35 -43.5t-53 -28t-66.5 -10q-61 0 -108 24.5t-76 64.5l55 53q28 -35 57.5 -53.5t71.5 -18.5q43 0 63.5 18.5t20.5 44.5q0 10 -4 20.5t-16 19.5t-28 15.5t-42 14.5l-33 10q-21 7 -36.5 13t-27.5 14q-31 20 -43 43.5t-12 55.5q0 25 11 48.5
t31 42t49.5 30t66.5 11.5q54 0 95 -21.5t66 -56.5l-53 -50q-21 27 -49.5 42.5t-58.5 15.5q-31 0 -53.5 -14t-22.5 -43q0 -15 8 -26.5t19 -18.5q11 -6 22 -11t30 -11l36 -11q32 -10 54.5 -20.5t41.5 -27.5q32 -30 32 -81z" />
    <glyph glyph-name="t" unicode="t" horiz-adv-x="282" 
d="M78 380h-67v70h67v142h88v-142h105v-70h-105v-380h-88v380z" />
    <glyph glyph-name="u" unicode="u" horiz-adv-x="502" 
d="M253 -11q-91 0 -142.5 47.5t-51.5 145.5v268h88v-272q0 -63 29.5 -91t74.5 -28q43 0 73.5 27t30.5 92v272h88v-268q0 -53 -16 -89.5t-42 -59.5t-60.5 -33.5t-71.5 -10.5z" />
    <glyph glyph-name="v" unicode="v" horiz-adv-x="462" 
d="M456 450l-180 -450h-86l-184 450h95l133 -349h2l128 349h92z" />
    <glyph glyph-name="w" unicode="w" horiz-adv-x="708" 
d="M702 450l-154 -450h-84l-107 329h-2l-109 -329h-88l-152 450h95l104 -349h1l116 349h69l114 -349h2l107 349h88z" />
    <glyph glyph-name="x" unicode="x" horiz-adv-x="476" 
d="M357 0l-123 165l-125 -165h-95l174 224l-168 226h104l118 -160l121 160h93l-169 -219l174 -231h-104z" />
    <glyph glyph-name="y" unicode="y" horiz-adv-x="461" 
d="M6 450h96l136 -340h2l130 340h85l-268 -659h-87l91 216z" />
    <glyph glyph-name="z" unicode="z" horiz-adv-x="439" 
d="M406 0h-373v72l261 308h-259v70h361v-72l-262 -308h272v-70z" />
    <glyph glyph-name="braceleft" unicode="{" horiz-adv-x="405" 
d="M146 130q0 29 -5.5 46.5t-16 27.5t-27 13.5t-38.5 5.5h-8v60h9q22 1 38.5 5t27 14.5t15.5 28t5 45.5v131q0 59 7 99.5t28 65t58.5 35t98.5 10.5h9v-60h-9q-36 -1 -57.5 -6t-32.5 -17t-14.5 -33.5t-3.5 -54.5v-131q0 -29 -1 -53.5t-8 -45t-21.5 -36t-41.5 -26.5
q26 -10 40.5 -26.5t21.5 -38t8.5 -47t1.5 -52.5v-130q0 -31 3.5 -52.5t15.5 -34.5t35 -18.5t63 -5.5v-60h-9q-54 0 -91 9.5t-59.5 29t-32 50t-9.5 73.5v179z" />
    <glyph glyph-name="bar" unicode="|" horiz-adv-x="256" 
d="M88 -210v967h80v-967h-80z" />
    <glyph glyph-name="braceright" unicode="}" horiz-adv-x="405" 
d="M258 -55q0 -84 -44 -120t-148 -36h-9v60q39 0 62 5t35 18t16 34t4 54v130q0 26 1 51t8 46.5t21.5 39t41.5 27.5q-44 18 -58 57t-14 104v131q0 33 -3.5 54.5t-14.5 33.5t-32 17t-57 6h-10v60h9q61 0 98.5 -10.5t58.5 -35t28 -65t7 -99.5v-124q0 -30 4.5 -49t14.5 -30
t26.5 -15.5t40.5 -5.5h9v-60h-8q-21 -1 -37.5 -4.5t-27.5 -13.5t-16.5 -27.5t-5.5 -47.5v-185z" />
    <glyph glyph-name="asciitilde" unicode="~" horiz-adv-x="585" 
d="M473 313q14 -10 27.5 -20t27.5 -20q-10 -21 -24 -39.5t-31 -32.5t-36.5 -22.5t-41.5 -8.5q-33 0 -60 11t-51 24t-46 24t-44 11q-26 0 -46.5 -20.5t-37.5 -45.5l-53 44q22 41 55.5 70t76.5 29q30 0 56.5 -11t51 -24.5t47 -24.5t45.5 -11q26 0 46.5 20t37.5 47z" />
    <glyph glyph-name="uni00A0" unicode="&#xa0;" horiz-adv-x="251" 
 />
    <glyph glyph-name="exclamdown" unicode="&#xa1;" horiz-adv-x="273" 
d="M83 -210l13 534h79l14 -534h-106zM197 452q0 -25 -18 -43t-43 -18t-43 18t-18 43t18 43t43 18t43 -18t18 -43z" />
    <glyph glyph-name="cent" unicode="&#xa2;" horiz-adv-x="478" 
d="M391 425q-15 24 -38 40.5t-52 22.5v-322q27 8 51 25.5t42 44.5l63 -43q-27 -41 -66 -66.5t-90 -31.5v-105h-77v107q-43 7 -77.5 28t-58.5 52t-37 69.5t-13 81.5q0 42 13.5 80.5t38 69t59 51.5t75.5 29v107h77v-106q48 -6 86.5 -27.5t65.5 -57.5zM126 327q0 -67 28 -106
t70 -53v316q-41 -13 -69.5 -51t-28.5 -106z" />
    <glyph glyph-name="sterling" unicode="&#xa3;" 
d="M444 568q-63 23 -105 23q-98 0 -115 -115l-20 -139h128v-75h-140q-6 -37 -15 -87.5t-18 -96.5h303v-78h-409v14q14 50 27.5 114.5t25.5 133.5h-64v75h75l23 152q7 46 25 79t44.5 55t59.5 32.5t69 10.5q35 0 68 -7.5t59 -18.5l-21 -72v0z" />
    <glyph glyph-name="currency" unicode="&#xa4;" horiz-adv-x="520" 
d="M259 194q29 0 54 10.5t43.5 28.5t29 42t10.5 52q0 27 -10 50.5t-28 41t-43 28t-55 10.5q-29 0 -54 -10t-43.5 -28t-29 -41.5t-10.5 -50.5t10.5 -51.5t28.5 -42.5t43 -28.5t54 -10.5zM258 132q-55 0 -110 35l-51 -50l-51 50l51 50q-36 55 -36 111q0 27 8.5 54.5t27.5 53.5
l-52 51l50 50l53 -51q26 17 54.5 25t57.5 8q59 0 112 -33l52 51l50 -50l-51 -51q36 -53 36 -108q0 -58 -37 -111l51 -50l-51 -50l-50 49q-55 -34 -114 -34z" />
    <glyph glyph-name="yen" unicode="&#xa5;" 
d="M328 388h141v-72h-165v-80h165v-72h-165v-164h-92v164h-165v72h165v80h-165v72h142l-184 267h99l158 -235l155 235h93z" />
    <glyph glyph-name="brokenbar" unicode="&#xa6;" horiz-adv-x="256" 
d="M88 398v359h80v-359h-80zM88 -210v359h80v-359h-80z" />
    <glyph glyph-name="section" unicode="&#xa7;" 
d="M32 272q0 23 8 46.5t21.5 45t31 40t37.5 32.5q-35 26 -49 61t-14 70q0 30 13 59t38 51.5t59.5 36.5t78.5 14q66 0 123 -27.5t90 -78.5l-53 -52q-28 41 -69.5 63.5t-89.5 22.5q-51 0 -78 -26.5t-27 -62.5q0 -27 16.5 -50.5t51.5 -40.5q14 -8 38 -16.5t40 -13.5
q48 -17 83.5 -34.5t59 -40.5t35 -54t11.5 -73q0 -23 -8.5 -47t-22 -45.5t-31 -41t-35.5 -33.5q33 -26 46.5 -58.5t13.5 -68.5q0 -33 -14 -63t-40 -53t-62 -37t-80 -14q-68 0 -122 30t-95 85l54 53q39 -52 78.5 -73.5t84.5 -21.5q46 0 77 24.5t31 65.5q0 27 -14.5 51.5
t-50.5 41.5q-6 3 -16 7t-21 8l-22 8t-20 7q-46 16 -81 34.5t-58 42.5t-35 54.5t-12 71.5zM256 380q-8 2 -26.5 9.5t-38.5 15.5q-15 -11 -29 -26t-24.5 -32.5t-17 -35.5t-6.5 -35q0 -33 12 -55.5t32.5 -38t46.5 -26t54 -20.5q4 -1 12 -4t17.5 -6.5t19.5 -7.5t18 -8
q15 9 29.5 24t25.5 33t17.5 36.5t6.5 35.5q0 33 -13 55.5t-34 38t-47.5 26.5t-54.5 21z" />
    <glyph glyph-name="dieresis" unicode="&#xa8;" horiz-adv-x="324" 
d="M1 629q0 22 16 36.5t38 14.5t38 -14.5t16 -36.5t-16 -36.5t-38 -14.5t-38 14.5t-16 36.5zM215 629q0 22 16 36.5t38 14.5t38 -14.5t16 -36.5t-16 -36.5t-38 -14.5t-38 14.5t-16 36.5z" />
    <glyph glyph-name="copyright" unicode="&#xa9;" horiz-adv-x="830" 
d="M204 341q0 48 16 89t44.5 71t67.5 46.5t84 16.5q52 0 96.5 -22.5t73.5 -67.5l-59 -37q-19 25 -47 43.5t-65 18.5q-26 0 -50 -10t-43 -29.5t-30 -49.5t-11 -69t11 -69t30 -50.5t43 -31t50 -10.5q34 0 63.5 18.5t51.5 47.5l59 -37q-32 -48 -76.5 -70.5t-96.5 -22.5
q-46 0 -85 17t-67 47t-44 71t-16 90zM416 51q70 0 124 24.5t90.5 65t55 93t18.5 109.5q0 54 -18 105.5t-54 92t-90 65.5t-126 25t-126 -25t-90 -65.5t-54 -92t-18 -105.5q0 -57 18.5 -109.5t55 -93t90 -65t124.5 -24.5zM416 -11q-86 0 -151.5 29.5t-110.5 79t-68 113.5
t-23 132q0 66 22.5 129.5t66.5 113t110.5 79.5t153.5 30t153.5 -30t110.5 -79.5t66.5 -113t22.5 -129.5q0 -68 -23 -132t-68 -113.5t-111 -79t-151 -29.5z" />
    <glyph glyph-name="ordfeminine" unicode="&#xaa;" horiz-adv-x="404" 
d="M182 360q-63 0 -98 34.5t-35 83.5q0 21 8.5 42t25.5 37t42 26t59 10q25 0 52 -8.5t46 -24.5q0 53 -17 81t-62 28q-21 0 -45 -8.5t-50 -27.5q-8 13 -16 25t-17 25q32 23 66.5 33.5t69.5 10.5q36 0 62.5 -11.5t44.5 -30t26.5 -42t8.5 -47.5v-227h-68l-2 29q-20 -18 -49 -28
t-52 -10zM196 541q-35 0 -55.5 -17.5t-20.5 -45.5q0 -27 20 -45t56 -18q35 0 60.5 16.5t25.5 46.5q0 15 -8 26.5t-20 20t-27.5 12.5t-30.5 4zM58 302h295v-60h-295v60z" />
    <glyph glyph-name="guillemotleft" unicode="&#xab;" horiz-adv-x="527" 
d="M346 245l119 -143l-55 -45l-158 188l158 190l55 -45zM272 390l-119 -145l119 -143l-55 -45l-157 188l157 190z" />
    <glyph glyph-name="logicalnot" unicode="&#xac;" horiz-adv-x="598" 
d="M471 56v167h-408v71h480v-238h-72z" />
    <glyph glyph-name="uni00AD" unicode="&#xad;" horiz-adv-x="360" 
d="M300 202h-239v83h239v-83z" />
    <glyph glyph-name="registered" unicode="&#xae;" horiz-adv-x="830" 
d="M498 118l-102 178h-36v-178h-69v447h136q36 0 63.5 -10.5t46 -28.5t27.5 -42t9 -51q0 -48 -29.5 -82t-77.5 -44l114 -189h-82zM501 432q0 33 -19.5 54.5t-51.5 21.5h-70v-155h61q33 0 56.5 20.5t23.5 58.5zM416 51q70 0 124 24.5t90.5 65t55 93t18.5 109.5
q0 54 -18 105.5t-54 92t-90 65.5t-126 25t-126 -25t-90 -65.5t-54 -92t-18 -105.5q0 -57 18.5 -109.5t55 -93t90 -65t124.5 -24.5zM416 -11q-86 0 -151.5 29.5t-110.5 79t-68 113.5t-23 132q0 66 22.5 129.5t66.5 113t110.5 79.5t153.5 30t153.5 -30t110.5 -79.5t66.5 -113
t22.5 -129.5q0 -68 -23 -132t-68 -113.5t-111 -79t-151 -29.5z" />
    <glyph glyph-name="macron" unicode="&#xaf;" horiz-adv-x="324" 
d="M291 663v-65h-259v65h259z" />
    <glyph glyph-name="degree" unicode="&#xb0;" horiz-adv-x="372" 
d="M332 586q0 -28 -9.5 -54t-28.5 -46t-46 -32t-62 -12t-62 12t-46 32t-28.5 46t-9.5 54t10 54t28.5 46t45.5 32t62 12t62 -12t46 -32t28.5 -46t9.5 -54zM269 586q0 33 -21 59.5t-62 26.5t-62 -26.5t-21 -59.5t21 -59t62 -26t62 26t21 59z" />
    <glyph glyph-name="plusminus" unicode="&#xb1;" horiz-adv-x="598" 
d="M526 297h-191v-199h-72v199h-193v71h193v199h72v-199h191v-71zM526 71v-71h-456v71h456z" />
    <glyph glyph-name="uni00B2" unicode="&#xb2;" horiz-adv-x="351" 
d="M175 669q-49 0 -73 -67l-61 21q14 45 49.5 75t86.5 30q28 0 52 -9t42 -24.5t28 -38t10 -49.5q0 -23 -7.5 -43.5t-21 -40.5t-32.5 -41.5t-42 -46.5l-46 -50h158v-59h-271v28l119 130q40 43 54 70t14 51q0 29 -17 46.5t-42 17.5z" />
    <glyph glyph-name="uni00B3" unicode="&#xb3;" horiz-adv-x="351" 
d="M307 444q0 -30 -11.5 -53.5t-31 -39.5t-44 -24.5t-51.5 -8.5q-45 0 -82 24t-54 69l60 23q11 -29 31.5 -44.5t44.5 -15.5q32 0 50.5 20t18.5 49q0 19 -8 32t-22 21t-32.5 11.5t-38.5 3.5h-27l-2 16l94 131h-152v59h252v-21l-106 -142q49 -6 80 -35.5t31 -74.5z" />
    <glyph glyph-name="acute" unicode="&#xb4;" horiz-adv-x="324" 
d="M175 724l65 -50l-122 -142l-52 40z" />
    <glyph glyph-name="uni00B5" unicode="&#xb5;" horiz-adv-x="510" 
d="M232 57q25 0 45.5 9t34.5 23.5t22.5 33t11.5 37.5l39 290h89l-46 -326q-2 -10 -3.5 -24.5t-1.5 -19.5q0 -14 8.5 -20t20.5 -6q7 0 14 1t12 3l7 -50q-14 -8 -35 -12.5t-38 -4.5q-28 0 -46.5 14t-24.5 35q-22 -21 -49 -36t-63 -15q-37 0 -67 13t-47 37l-32 -249h-84l91 660
h88l-38 -261q-2 -16 -3.5 -26.5t-1.5 -22.5q0 -32 24.5 -57.5t72.5 -25.5z" />
    <glyph glyph-name="paragraph" unicode="&#xb6;" horiz-adv-x="659" 
d="M529 656v-866h-73v866h-107v-866h-73v456q-58 0 -105 16.5t-80 47.5t-51 74.5t-18 97.5q0 50 16.5 93t49 74.5t79.5 49.5t107 18h325v-61h-70z" />
    <glyph glyph-name="periodcentered" unicode="&#xb7;" horiz-adv-x="224" 
d="M52 359q0 25 18 43t43 18t43 -18t18 -43q0 -26 -18 -43.5t-43 -17.5t-43 17.5t-18 43.5z" />
    <glyph glyph-name="cedilla" unicode="&#xb8;" horiz-adv-x="324" 
d="M182 -31q37 -6 55 -29t18 -51q0 -41 -31 -65.5t-78 -24.5q-17 0 -37 5.5t-38 16.5l18 49q17 -8 29 -11.5t26 -3.5q17 0 26.5 9t9.5 23q0 11 -6.5 18.5t-17 12t-24 7t-27.5 3.5l20 72h65z" />
    <glyph glyph-name="uni00B9" unicode="&#xb9;" horiz-adv-x="351" 
d="M152 387v241l-75 -35l-25 55l171 80v-341h79v-62h-237v62h87z" />
    <glyph glyph-name="ordmasculine" unicode="&#xba;" horiz-adv-x="440" 
d="M113 545q0 -31 9.5 -54t24.5 -38.5t34 -23t39 -7.5q45 0 76.5 32.5t31.5 90.5q0 30 -9 53t-24 38.5t-34 23.5t-39 8q-50 0 -78.5 -34t-30.5 -89zM37 545q0 44 16 78t41.5 57t58.5 35t67 12t67 -12t59 -35t42 -57t16 -78q0 -45 -16 -79t-41.5 -57t-59 -35t-67.5 -12
t-66.5 12t-58.5 35t-42 57t-16 79zM47 302h347v-60h-347v60z" />
    <glyph glyph-name="guillemotright" unicode="&#xbb;" horiz-adv-x="527" 
d="M178 245l-118 145l55 44l157 -189l-157 -189l-55 45zM372 245l-120 145l56 44l157 -189l-157 -189l-56 45z" />
    <glyph glyph-name="onequarter" unicode="&#xbc;" horiz-adv-x="495" 
d="M272 -116h-184v19l155 278h76l-141 -241h94v96h69v-96h54v-56h-54v-98h-69v98zM287 718v-397h-71v297l-75 -36l-25 55zM70 279h355v-61h-355v61z" />
    <glyph glyph-name="onehalf" unicode="&#xbd;" horiz-adv-x="495" 
d="M122 -214v29l119 130q20 22 32.5 38.5t20 30t10.5 25t3 23.5q0 27 -17.5 46.5t-39.5 19.5q-49 0 -73 -67l-60 21q14 45 49 75t86 30q28 0 52 -9t42 -25.5t28 -39t10 -49.5q0 -24 -9 -46t-24 -42t-33.5 -40t-37.5 -41l-45 -49h158v-60h-271zM287 717v-396h-71v297l-75 -36
l-25 55zM70 279h355v-61h-355v61z" />
    <glyph glyph-name="threequarters" unicode="&#xbe;" horiz-adv-x="495" 
d="M179 517l95 131h-152v59h251v-21l-105 -142q49 -6 79.5 -35t30.5 -74q0 -31 -11.5 -54.5t-30.5 -39.5t-43.5 -24.5t-51.5 -8.5q-45 0 -82 24t-54 69q15 5 30 11.5t30 11.5q11 -29 31 -44.5t45 -15.5q32 0 50 20t18 49q0 38 -29.5 53t-71.5 15h-26zM70 279h355v-61h-355
v61zM272 -116h-184v19l155 278h76l-141 -241h94v96h69v-96h54v-56h-54v-98h-69v98z" />
    <glyph glyph-name="questiondown" unicode="&#xbf;" horiz-adv-x="458" 
d="M137 -54q0 -23 8 -41t22 -30.5t32.5 -19.5t39.5 -7q27 0 50 8.5t42 22t33.5 30t25.5 32.5q14 -13 28 -25t28 -26q-11 -19 -30.5 -39.5t-46 -37t-60 -27.5t-72.5 -11q-41 0 -77 12.5t-62.5 35.5t-42 55t-15.5 70q0 42 23 78.5t56 69.5l16 16q19 18 34 34t25.5 34.5
t16.5 40t7 49.5q2 24 2 36v19h75q2 -16 3.5 -33.5t1.5 -33.5q0 -36 -6.5 -62.5t-19.5 -48t-31 -41t-40 -41.5q-26 -25 -46 -52t-20 -67zM312 453q0 -26 -17.5 -43.5t-43.5 -17.5q-25 0 -43 17.5t-18 43.5q0 25 18 42t43 17q26 0 43.5 -17t17.5 -42z" />
    <glyph glyph-name="Agrave" unicode="&#xc0;" horiz-adv-x="678" 
d="M488 225h-305l-87 -225h-95l285 717h106l285 -717h-102zM214 305h244l-121 316zM397 815l-41 -51l-156 112l55 64z" />
    <glyph glyph-name="Aacute" unicode="&#xc1;" horiz-adv-x="678" 
d="M488 225h-305l-87 -225h-95l285 717h106l285 -717h-102zM214 305h244l-121 316zM414 940l55 -64l-156 -111l-41 51z" />
    <glyph glyph-name="Acircumflex" unicode="&#xc2;" horiz-adv-x="678" 
d="M488 225h-305l-87 -225h-95l285 717h106l285 -717h-102zM214 305h244l-121 316zM475 812l-48 -46l-90 81l-89 -81l-47 46l136 128z" />
    <glyph glyph-name="Atilde" unicode="&#xc3;" horiz-adv-x="678" 
d="M488 225h-305l-87 -225h-95l285 717h106l285 -717h-102zM214 305h244l-121 316zM393 854q27 0 41 50l54 -16q-6 -48 -31 -77t-63 -29q-16 0 -32 6.5t-37 20.5q-16 10 -26 15t-18 5q-14 0 -23.5 -14t-16.5 -37l-54 16q7 48 31.5 77t62.5 29q16 0 31.5 -6.5t36.5 -20.5
q15 -8 25 -13.5t19 -5.5z" />
    <glyph glyph-name="Adieresis" unicode="&#xc4;" horiz-adv-x="678" 
d="M488 225h-305l-87 -225h-95l285 717h106l285 -717h-102zM214 305h244l-121 316zM183 833q0 22 15 36.5t37 14.5t37 -14.5t15 -36.5t-15 -36.5t-37 -14.5t-37 14.5t-15 36.5zM388 833q0 22 15 36.5t37 14.5q23 0 38 -14.5t15 -36.5t-15 -36.5t-38 -14.5q-22 0 -37 14.5
t-15 36.5z" />
    <glyph glyph-name="Aring" unicode="&#xc5;" horiz-adv-x="678" 
d="M488 225h-305l-87 -225h-95l285 717h106l285 -717h-102zM214 305h244l-121 316zM437 844q0 -23 -8.5 -41t-22.5 -30t-31.5 -18.5t-36.5 -6.5t-36.5 6.5t-31.5 19t-22.5 30.5t-8.5 41t8.5 40.5t22.5 29.5t31.5 18.5t36.5 6.5t36.5 -6.5t31.5 -18.5t22.5 -30t8.5 -41z
M386 844q0 25 -14.5 37.5t-33.5 12.5q-18 0 -33 -12.5t-15 -37.5q0 -24 15 -37t33 -13q19 0 33.5 13t14.5 37z" />
    <glyph glyph-name="AE" unicode="&#xc6;" horiz-adv-x="1082" 
d="M526 229h-302l-88 -229h-94l286 717h426l29 -78h-320l97 -240h207l29 -77h-206l98 -244h321l31 -78h-426zM253 305h245q-13 34 -29 75t-32 83t-31.5 83t-28.5 75z" />
    <glyph glyph-name="Ccedilla" unicode="&#xc7;" horiz-adv-x="704" 
d="M42 358q0 75 25.5 142.5t72 117.5t112 79.5t145.5 29.5q52 0 95.5 -11.5t78 -30t59.5 -41.5t41 -47l-68 -52q-42 51 -91.5 76t-115.5 25q-59 0 -107 -23t-81.5 -62t-52 -91.5t-18.5 -111.5t19 -111.5t53 -91.5t81.5 -62t105.5 -23q63 0 117 26.5t90 74.5l69 -47
q-47 -65 -111.5 -97t-137.5 -37l-5 -21q37 -6 55 -29t18 -51q0 -41 -31 -65.5t-78 -24.5q-17 0 -37 5.5t-38 16.5l18 49q17 -8 29 -11.5t26 -3.5q17 0 26.5 9t9.5 23q0 11 -6.5 18.5t-17 12t-24 7t-27.5 3.5l17 63q-72 7 -130.5 38.5t-100 81t-63.5 113t-22 134.5z" />
    <glyph glyph-name="Egrave" unicode="&#xc8;" horiz-adv-x="565" 
d="M532 0h-459v717h451v-80h-358v-237h243v-80h-243v-240h366v-80zM378 815l-41 -51l-156 112l55 64z" />
    <glyph glyph-name="Eacute" unicode="&#xc9;" horiz-adv-x="565" 
d="M532 0h-459v717h451v-80h-358v-237h243v-80h-243v-240h366v-80zM359 940l55 -64l-156 -111l-41 51z" />
    <glyph glyph-name="Ecircumflex" unicode="&#xca;" horiz-adv-x="565" 
d="M532 0h-459v717h451v-80h-358v-237h243v-80h-243v-240h366v-80zM433 812l-48 -46l-90 81l-89 -81l-47 46l136 128z" />
    <glyph glyph-name="Edieresis" unicode="&#xcb;" horiz-adv-x="565" 
d="M532 0h-459v717h451v-80h-358v-237h243v-80h-243v-240h366v-80zM143 833q0 22 15 36.5t37 14.5t37 -14.5t15 -36.5t-15 -36.5t-37 -14.5t-37 14.5t-15 36.5zM348 833q0 22 15 36.5t37 14.5q23 0 38 -14.5t15 -36.5t-15 -36.5t-38 -14.5q-22 0 -37 14.5t-15 36.5z" />
    <glyph glyph-name="Igrave" unicode="&#xcc;" horiz-adv-x="239" 
d="M73 0v717h93v-717h-93zM184 815l-41 -51l-156 112l55 64z" />
    <glyph glyph-name="Iacute" unicode="&#xcd;" horiz-adv-x="239" 
d="M73 0v717h93v-717h-93zM196 940l55 -64l-156 -111l-41 51z" />
    <glyph glyph-name="Icircumflex" unicode="&#xce;" horiz-adv-x="239" 
d="M73 0v717h93v-717h-93zM257 812l-48 -46l-90 81l-89 -81l-47 46l136 128z" />
    <glyph glyph-name="Idieresis" unicode="&#xcf;" horiz-adv-x="239" 
d="M73 0v717h93v-717h-93zM-34 833q0 22 15 36.5t37 14.5t37 -14.5t15 -36.5t-15 -36.5t-37 -14.5t-37 14.5t-15 36.5zM171 833q0 22 15 36.5t37 14.5q23 0 38 -14.5t15 -36.5t-15 -36.5t-38 -14.5q-22 0 -37 14.5t-15 36.5z" />
    <glyph glyph-name="Eth" unicode="&#xd0;" horiz-adv-x="713" 
d="M671 371q0 -77 -21.5 -144.5t-65 -118t-108.5 -79.5t-152 -29h-251v324h-74v72h74v321h261q89 0 152.5 -30.5t104.5 -80t60.5 -111t19.5 -124.5zM574 371q0 53 -15.5 101.5t-46 85t-75 58t-102.5 21.5h-169v-241h168v-72h-168v-244h157q58 0 104.5 19.5t79 56.5t50 91.5
t17.5 123.5z" />
    <glyph glyph-name="Ntilde" unicode="&#xd1;" horiz-adv-x="724" 
d="M562 0l-402 584v-584h-87v717h101l389 -568v568h88v-717h-89zM427 854q27 0 41 50l54 -16q-6 -48 -31 -77t-63 -29q-16 0 -32 6.5t-37 20.5q-16 10 -26 15t-18 5q-14 0 -23.5 -14t-16.5 -37l-54 16q7 48 31.5 77t62.5 29q16 0 31.5 -6.5t36.5 -20.5q15 -8 25 -13.5
t19 -5.5z" />
    <glyph glyph-name="Ograve" unicode="&#xd2;" horiz-adv-x="820" 
d="M410 70q62 0 112 23t85.5 62.5t55 91.5t19.5 111q0 58 -19.5 110.5t-55 92t-85.5 62.5t-112 23t-112 -23t-85.5 -62t-55 -91.5t-19.5 -110.5q0 -59 19.5 -111t55 -92t85.5 -63t112 -23zM410 -11q-89 0 -158 32t-115.5 84t-70.5 118.5t-24 135.5t24 135t70.5 118
t115.5 83.5t158 31.5t157.5 -32t115.5 -83.5t71 -118t24 -135.5t-24 -135.5t-71 -118t-115.5 -83.5t-157.5 -32zM471 815l-41 -51l-156 112l55 64z" />
    <glyph glyph-name="Oacute" unicode="&#xd3;" horiz-adv-x="820" 
d="M410 70q62 0 112 23t85.5 62.5t55 91.5t19.5 111q0 58 -19.5 110.5t-55 92t-85.5 62.5t-112 23t-112 -23t-85.5 -62t-55 -91.5t-19.5 -110.5q0 -59 19.5 -111t55 -92t85.5 -63t112 -23zM410 -11q-89 0 -158 32t-115.5 84t-70.5 118.5t-24 135.5t24 135t70.5 118
t115.5 83.5t158 31.5t157.5 -32t115.5 -83.5t71 -118t24 -135.5t-24 -135.5t-71 -118t-115.5 -83.5t-157.5 -32zM481 940l55 -64l-156 -111l-41 51z" />
    <glyph glyph-name="Ocircumflex" unicode="&#xd4;" horiz-adv-x="820" 
d="M410 70q62 0 112 23t85.5 62.5t55 91.5t19.5 111q0 58 -19.5 110.5t-55 92t-85.5 62.5t-112 23t-112 -23t-85.5 -62t-55 -91.5t-19.5 -110.5q0 -59 19.5 -111t55 -92t85.5 -63t112 -23zM410 -11q-89 0 -158 32t-115.5 84t-70.5 118.5t-24 135.5t24 135t70.5 118
t115.5 83.5t158 31.5t157.5 -32t115.5 -83.5t71 -118t24 -135.5t-24 -135.5t-71 -118t-115.5 -83.5t-157.5 -32zM545 812l-48 -46l-90 81l-89 -81l-47 46l136 128z" />
    <glyph glyph-name="Otilde" unicode="&#xd5;" horiz-adv-x="820" 
d="M410 70q62 0 112 23t85.5 62.5t55 91.5t19.5 111q0 58 -19.5 110.5t-55 92t-85.5 62.5t-112 23t-112 -23t-85.5 -62t-55 -91.5t-19.5 -110.5q0 -59 19.5 -111t55 -92t85.5 -63t112 -23zM410 -11q-89 0 -158 32t-115.5 84t-70.5 118.5t-24 135.5t24 135t70.5 118
t115.5 83.5t158 31.5t157.5 -32t115.5 -83.5t71 -118t24 -135.5t-24 -135.5t-71 -118t-115.5 -83.5t-157.5 -32zM462 854q27 0 41 50l54 -16q-6 -48 -31 -77t-63 -29q-16 0 -32 6.5t-37 20.5q-16 10 -26 15t-18 5q-14 0 -23.5 -14t-16.5 -37l-54 16q7 48 31.5 77t62.5 29
q16 0 31.5 -6.5t36.5 -20.5q15 -8 25 -13.5t19 -5.5z" />
    <glyph glyph-name="Odieresis" unicode="&#xd6;" horiz-adv-x="820" 
d="M410 70q62 0 112 23t85.5 62.5t55 91.5t19.5 111q0 58 -19.5 110.5t-55 92t-85.5 62.5t-112 23t-112 -23t-85.5 -62t-55 -91.5t-19.5 -110.5q0 -59 19.5 -111t55 -92t85.5 -63t112 -23zM410 -11q-89 0 -158 32t-115.5 84t-70.5 118.5t-24 135.5t24 135t70.5 118
t115.5 83.5t158 31.5t157.5 -32t115.5 -83.5t71 -118t24 -135.5t-24 -135.5t-71 -118t-115.5 -83.5t-157.5 -32zM254 833q0 22 15 36.5t37 14.5t37 -14.5t15 -36.5t-15 -36.5t-37 -14.5t-37 14.5t-15 36.5zM459 833q0 22 15 36.5t37 14.5q23 0 38 -14.5t15 -36.5t-15 -36.5
t-38 -14.5q-22 0 -37 14.5t-15 36.5z" />
    <glyph glyph-name="multiply" unicode="&#xd7;" horiz-adv-x="598" 
d="M94 393q14 13 26.5 25.5t26.5 24.5l151 -150l151 150q27 -24 53 -50l-153 -150l153 -150l-52 -50q-38 37 -76 74.5t-76 74.5l-151 -149l-53 50l153 150z" />
    <glyph glyph-name="Oslash" unicode="&#xd8;" horiz-adv-x="820" 
d="M410 -11q-60 0 -110 14.5t-92 40.5l-48 -63l-52 37l50 65q-57 54 -86.5 126.5t-29.5 149.5q0 69 24 135t70.5 118t115.5 83.5t158 31.5q59 0 108.5 -14t90.5 -40l49 64l53 -39l-50 -65q58 -54 87.5 -126t29.5 -149q0 -69 -24 -135.5t-71 -118t-115.5 -83.5t-157.5 -32z
M410 70q62 0 112 23t85.5 62.5t55 91.5t19.5 111q0 60 -19.5 112t-56.5 92l-345 -449q31 -20 68.5 -31.5t80.5 -11.5zM138 359q0 -60 19.5 -112t55.5 -92l343 449q-31 20 -67.5 31t-78.5 11q-62 0 -112 -23t-85.5 -62t-55 -91.5t-19.5 -110.5z" />
    <glyph glyph-name="Ugrave" unicode="&#xd9;" horiz-adv-x="695" 
d="M622 283q0 -37 -5 -71.5t-16 -60.5q-14 -35 -38.5 -65t-57 -51.5t-72 -33.5t-83.5 -12q-95 0 -162.5 43.5t-96.5 120.5q-18 48 -18 129v435h93v-434q0 -66 16 -103q21 -48 62.5 -79t104.5 -31t104 30t61 81q15 33 15 103v433h93v-434zM409 815l-41 -51l-156 112l55 64z
" />
    <glyph glyph-name="Uacute" unicode="&#xda;" horiz-adv-x="695" 
d="M622 283q0 -37 -5 -71.5t-16 -60.5q-14 -35 -38.5 -65t-57 -51.5t-72 -33.5t-83.5 -12q-95 0 -162.5 43.5t-96.5 120.5q-18 48 -18 129v435h93v-434q0 -66 16 -103q21 -48 62.5 -79t104.5 -31t104 30t61 81q15 33 15 103v433h93v-434zM421 940l55 -64l-156 -111l-41 51z
" />
    <glyph glyph-name="Ucircumflex" unicode="&#xdb;" horiz-adv-x="695" 
d="M622 283q0 -37 -5 -71.5t-16 -60.5q-14 -35 -38.5 -65t-57 -51.5t-72 -33.5t-83.5 -12q-95 0 -162.5 43.5t-96.5 120.5q-18 48 -18 129v435h93v-434q0 -66 16 -103q21 -48 62.5 -79t104.5 -31t104 30t61 81q15 33 15 103v433h93v-434zM482 812l-48 -46l-90 81l-89 -81
l-47 46l136 128z" />
    <glyph glyph-name="Udieresis" unicode="&#xdc;" horiz-adv-x="695" 
d="M622 283q0 -37 -5 -71.5t-16 -60.5q-14 -35 -38.5 -65t-57 -51.5t-72 -33.5t-83.5 -12q-95 0 -162.5 43.5t-96.5 120.5q-18 48 -18 129v435h93v-434q0 -66 16 -103q21 -48 62.5 -79t104.5 -31t104 30t61 81q15 33 15 103v433h93v-434zM192 833q0 22 15 36.5t37 14.5
t37 -14.5t15 -36.5t-15 -36.5t-37 -14.5t-37 14.5t-15 36.5zM397 833q0 22 15 36.5t37 14.5q23 0 38 -14.5t15 -36.5t-15 -36.5t-38 -14.5q-22 0 -37 14.5t-15 36.5z" />
    <glyph glyph-name="Yacute" unicode="&#xdd;" horiz-adv-x="600" 
d="M240 0h-100l120 235l-262 482h106l205 -384l193 384h100zM369 940l55 -64l-156 -111l-41 51z" />
    <glyph glyph-name="Thorn" unicode="&#xde;" horiz-adv-x="595" 
d="M562 360q0 -100 -61 -159.5t-179 -59.5h-156v-141h-93v717h93v-147h156q57 0 101.5 -15.5t75.5 -43.5t47 -66.5t16 -84.5zM320 216q37 0 64.5 10.5t45.5 29.5t26.5 44.5t8.5 54.5q0 28 -9.5 53t-27.5 44t-45 30.5t-62 11.5h-155v-278h154z" />
    <glyph glyph-name="germandbls" unicode="&#xdf;" horiz-adv-x="553" 
d="M516 195q0 -40 -13 -77t-38.5 -65.5t-64 -46t-88.5 -17.5q-29 0 -63.5 8.5t-63.5 23.5l25 65q18 -10 45 -18.5t56 -8.5q28 0 49.5 11.5t36.5 31t23 44.5t8 52q0 24 -7 48t-21 44q-17 23 -45.5 37t-82.5 14h-57v67h41q35 0 58.5 11.5t38.5 30.5q15 18 22.5 41t7.5 48
q0 28 -10 50t-26 37t-36.5 22.5t-41.5 7.5q-26 0 -50 -10.5t-43 -33.5q-16 -20 -22.5 -50.5t-6.5 -76.5v-485h-88v480q0 58 12 101t44 80q29 34 70 50t85 16q38 0 74 -12t64.5 -35.5t45.5 -58.5t17 -80q0 -47 -24 -89.5t-77 -65.5q37 -9 64.5 -28.5t45.5 -45.5t27 -56.5
t9 -60.5z" />
    <glyph glyph-name="agrave" unicode="&#xe0;" horiz-adv-x="485" 
d="M209 285q34 0 70 -12t61 -34v32q0 35 -7 55t-21 34q-29 30 -79 30q-27 0 -60 -11t-65 -34l-35 60q38 28 83 41.5t88 13.5q40 0 75 -12t61 -38q26 -29 36 -59.5t10 -78.5v-272h-81l-3 43q-12 -14 -28.5 -24.5t-35 -17t-37.5 -9.5t-36 -3q-39 0 -70 12t-52.5 32t-33 47.5
t-11.5 57.5q0 28 10.5 54.5t32 47t53.5 33t75 12.5zM340 139q0 20 -10.5 36t-27 26.5t-37 16t-39.5 5.5q-47 0 -74.5 -23t-27.5 -61q0 -37 26.5 -61t74.5 -24q24 0 44.5 6t36.5 17t25 26.5t9 35.5zM315 572l-53 -40l-122 142l66 50z" />
    <glyph glyph-name="aacute" unicode="&#xe1;" horiz-adv-x="485" 
d="M209 285q34 0 70 -12t61 -34v32q0 35 -7 55t-21 34q-29 30 -79 30q-27 0 -60 -11t-65 -34l-35 60q38 28 83 41.5t88 13.5q40 0 75 -12t61 -38q26 -29 36 -59.5t10 -78.5v-272h-81l-3 43q-12 -14 -28.5 -24.5t-35 -17t-37.5 -9.5t-36 -3q-39 0 -70 12t-52.5 32t-33 47.5
t-11.5 57.5q0 28 10.5 54.5t32 47t53.5 33t75 12.5zM340 139q0 20 -10.5 36t-27 26.5t-37 16t-39.5 5.5q-47 0 -74.5 -23t-27.5 -61q0 -37 26.5 -61t74.5 -24q24 0 44.5 6t36.5 17t25 26.5t9 35.5zM294 724l65 -50l-122 -142l-52 40z" />
    <glyph glyph-name="acircumflex" unicode="&#xe2;" horiz-adv-x="485" 
d="M209 285q34 0 70 -12t61 -34v32q0 35 -7 55t-21 34q-29 30 -79 30q-27 0 -60 -11t-65 -34l-35 60q38 28 83 41.5t88 13.5q40 0 75 -12t61 -38q26 -29 36 -59.5t10 -78.5v-272h-81l-3 43q-12 -14 -28.5 -24.5t-35 -17t-37.5 -9.5t-36 -3q-39 0 -70 12t-52.5 32t-33 47.5
t-11.5 57.5q0 28 10.5 54.5t32 47t53.5 33t75 12.5zM340 139q0 20 -10.5 36t-27 26.5t-37 16t-39.5 5.5q-47 0 -74.5 -23t-27.5 -61q0 -37 26.5 -61t74.5 -24q24 0 44.5 6t36.5 17t25 26.5t9 35.5zM377 578l-51 -43l-87 90l-84 -90l-52 43l136 142z" />
    <glyph glyph-name="atilde" unicode="&#xe3;" horiz-adv-x="485" 
d="M209 285q34 0 70 -12t61 -34v32q0 35 -7 55t-21 34q-29 30 -79 30q-27 0 -60 -11t-65 -34l-35 60q38 28 83 41.5t88 13.5q40 0 75 -12t61 -38q26 -29 36 -59.5t10 -78.5v-272h-81l-3 43q-12 -14 -28.5 -24.5t-35 -17t-37.5 -9.5t-36 -3q-39 0 -70 12t-52.5 32t-33 47.5
t-11.5 57.5q0 28 10.5 54.5t32 47t53.5 33t75 12.5zM340 139q0 20 -10.5 36t-27 26.5t-37 16t-39.5 5.5q-47 0 -74.5 -23t-27.5 -61q0 -37 26.5 -61t74.5 -24q24 0 44.5 6t36.5 17t25 26.5t9 35.5zM293 645q28 0 41 50l54 -17q-6 -47 -31 -76t-63 -29q-17 0 -32.5 6.5
t-36.5 20.5q-16 10 -26 14.5t-18 4.5q-14 0 -23.5 -13.5t-16.5 -36.5l-54 16q7 48 31.5 76.5t62.5 28.5q16 0 31.5 -6.5t37.5 -20.5q14 -8 24 -13t19 -5z" />
    <glyph glyph-name="adieresis" unicode="&#xe4;" horiz-adv-x="485" 
d="M209 285q34 0 70 -12t61 -34v32q0 35 -7 55t-21 34q-29 30 -79 30q-27 0 -60 -11t-65 -34l-35 60q38 28 83 41.5t88 13.5q40 0 75 -12t61 -38q26 -29 36 -59.5t10 -78.5v-272h-81l-3 43q-12 -14 -28.5 -24.5t-35 -17t-37.5 -9.5t-36 -3q-39 0 -70 12t-52.5 32t-33 47.5
t-11.5 57.5q0 28 10.5 54.5t32 47t53.5 33t75 12.5zM340 139q0 20 -10.5 36t-27 26.5t-37 16t-39.5 5.5q-47 0 -74.5 -23t-27.5 -61q0 -37 26.5 -61t74.5 -24q24 0 44.5 6t36.5 17t25 26.5t9 35.5zM79 629q0 22 16 36.5t38 14.5t38 -14.5t16 -36.5t-16 -36.5t-38 -14.5
t-38 14.5t-16 36.5zM293 629q0 22 16 36.5t38 14.5t38 -14.5t16 -36.5t-16 -36.5t-38 -14.5t-38 14.5t-16 36.5z" />
    <glyph glyph-name="aring" unicode="&#xe5;" horiz-adv-x="485" 
d="M209 285q34 0 70 -12t61 -34v32q0 35 -7 55t-21 34q-29 30 -79 30q-27 0 -60 -11t-65 -34l-35 60q38 28 83 41.5t88 13.5q40 0 75 -12t61 -38q26 -29 36 -59.5t10 -78.5v-272h-81l-3 43q-12 -14 -28.5 -24.5t-35 -17t-37.5 -9.5t-36 -3q-39 0 -70 12t-52.5 32t-33 47.5
t-11.5 57.5q0 28 10.5 54.5t32 47t53.5 33t75 12.5zM340 139q0 20 -10.5 36t-27 26.5t-37 16t-39.5 5.5q-47 0 -74.5 -23t-27.5 -61q0 -37 26.5 -61t74.5 -24q24 0 44.5 6t36.5 17t25 26.5t9 35.5zM339 630q0 -23 -8.5 -41t-22.5 -30t-31.5 -18.5t-36.5 -6.5t-36.5 6.5
t-31.5 18.5t-22.5 30t-8.5 41t8.5 41t22.5 30t31.5 18.5t36.5 6.5t36.5 -6.5t31.5 -18.5t22.5 -30t8.5 -41zM288 630q0 25 -14.5 37.5t-33.5 12.5q-18 0 -33 -13t-15 -37t15 -37.5t33 -13.5q19 0 33.5 13.5t14.5 37.5z" />
    <glyph glyph-name="ae" unicode="&#xe6;" horiz-adv-x="784" 
d="M542 -11q-52 0 -96.5 22t-72.5 65q-29 -46 -76 -66.5t-93 -20.5q-34 0 -64.5 9.5t-53 27t-36 43t-13.5 57.5q0 26 9.5 51.5t32 45.5t60.5 32.5t96 12.5h98q0 24 -6 46.5t-18 39t-30.5 26.5t-43.5 10q-64 0 -128 -45q-10 14 -18 29.5t-18 30.5q38 28 81 41.5t86 13.5
q47 0 85 -19.5t60 -59.5q29 38 69.5 58.5t88.5 20.5q39 0 76 -14.5t65.5 -44t46 -74.5t17.5 -107v-14h-336q1 -37 13 -64.5t31 -46t42.5 -27.5t47.5 -9q41 0 73 17t59 55l62 -41q-30 -48 -81.5 -74.5t-114.5 -26.5zM333 206h-82q-43 0 -68 -6.5t-38.5 -17t-17.5 -25
t-4 -29.5q0 -31 24.5 -51.5t66.5 -20.5q57 0 88 33t31 86v31zM655 268q-2 31 -12 54t-25.5 38t-36 22.5t-41.5 7.5q-43 0 -80.5 -30.5t-48.5 -91.5h244z" />
    <glyph glyph-name="ccedilla" unicode="&#xe7;" horiz-adv-x="486" 
d="M125 225q0 -36 11.5 -66.5t31 -52.5t46 -34.5t56.5 -12.5q45 0 75 19.5t56 55.5l62 -43q-28 -44 -71 -70t-97 -31l-5 -21q37 -6 55 -29t18 -51q0 -41 -31 -65.5t-78 -24.5q-17 0 -37 5.5t-38 16.5l18 49q17 -8 29 -11.5t26 -3.5q17 0 26.5 9t9.5 23q0 11 -6.5 18.5
t-17 12t-24 7t-27.5 3.5l18 64q-44 7 -79.5 28t-61 52.5t-39.5 70.5t-14 82q0 48 18 91t49.5 75.5t74.5 51t93 18.5q58 0 106.5 -23t80.5 -67l-60 -49q-21 28 -52.5 48t-76.5 20q-30 0 -56.5 -12.5t-46 -34.5t-31 -52.5t-11.5 -65.5z" />
    <glyph glyph-name="egrave" unicode="&#xe8;" horiz-adv-x="526" 
d="M269 59q41 0 73 17t59 55l62 -41q-30 -48 -81.5 -74.5t-114.5 -26.5q-49 0 -91 16.5t-73 47.5t-48.5 74t-17.5 97q0 48 16 91t46 75t72 51t94 19q48 0 89 -16.5t71.5 -47t47.5 -75t17 -101.5v-14h-369q2 -33 15 -60t33 -46.5t46 -30t54 -10.5zM399 268q-5 58 -43.5 90
t-90.5 32q-29 0 -53 -10.5t-42.5 -27.5t-30 -39t-14.5 -45h274zM338 572l-53 -40l-122 142l66 50z" />
    <glyph glyph-name="eacute" unicode="&#xe9;" horiz-adv-x="526" 
d="M269 59q41 0 73 17t59 55l62 -41q-30 -48 -81.5 -74.5t-114.5 -26.5q-49 0 -91 16.5t-73 47.5t-48.5 74t-17.5 97q0 48 16 91t46 75t72 51t94 19q48 0 89 -16.5t71.5 -47t47.5 -75t17 -101.5v-14h-369q2 -33 15 -60t33 -46.5t46 -30t54 -10.5zM399 268q-5 58 -43.5 90
t-90.5 32q-29 0 -53 -10.5t-42.5 -27.5t-30 -39t-14.5 -45h274zM304 724l65 -50l-122 -142l-52 40z" />
    <glyph glyph-name="ecircumflex" unicode="&#xea;" horiz-adv-x="526" 
d="M269 59q41 0 73 17t59 55l62 -41q-30 -48 -81.5 -74.5t-114.5 -26.5q-49 0 -91 16.5t-73 47.5t-48.5 74t-17.5 97q0 48 16 91t46 75t72 51t94 19q48 0 89 -16.5t71.5 -47t47.5 -75t17 -101.5v-14h-369q2 -33 15 -60t33 -46.5t46 -30t54 -10.5zM399 268q-5 58 -43.5 90
t-90.5 32q-29 0 -53 -10.5t-42.5 -27.5t-30 -39t-14.5 -45h274zM400 578l-51 -43l-87 90l-84 -90l-52 43l136 142z" />
    <glyph glyph-name="edieresis" unicode="&#xeb;" horiz-adv-x="526" 
d="M269 59q41 0 73 17t59 55l62 -41q-30 -48 -81.5 -74.5t-114.5 -26.5q-49 0 -91 16.5t-73 47.5t-48.5 74t-17.5 97q0 48 16 91t46 75t72 51t94 19q48 0 89 -16.5t71.5 -47t47.5 -75t17 -101.5v-14h-369q2 -33 15 -60t33 -46.5t46 -30t54 -10.5zM399 268q-5 58 -43.5 90
t-90.5 32q-29 0 -53 -10.5t-42.5 -27.5t-30 -39t-14.5 -45h274zM101 629q0 22 16 36.5t38 14.5t38 -14.5t16 -36.5t-16 -36.5t-38 -14.5t-38 14.5t-16 36.5zM315 629q0 22 16 36.5t38 14.5t38 -14.5t16 -36.5t-16 -36.5t-38 -14.5t-38 14.5t-16 36.5z" />
    <glyph glyph-name="igrave" unicode="&#xec;" horiz-adv-x="206" 
d="M154 572l-53 -40l-122 142l66 50zM59 0v450h88v-450h-88z" />
    <glyph glyph-name="iacute" unicode="&#xed;" horiz-adv-x="206" 
d="M154 723l65 -50l-122 -142l-52 40zM59 0v450h88v-450h-88z" />
    <glyph glyph-name="icircumflex" unicode="&#xee;" horiz-adv-x="206" 
d="M59 0v450h88v-450h-88zM236 578l-51 -43l-87 90l-84 -90l-52 43l136 142z" />
    <glyph glyph-name="idieresis" unicode="&#xef;" horiz-adv-x="206" 
d="M59 0v450h88v-450h-88zM-33 629q0 22 15.5 36.5t38.5 14.5q22 0 38 -14.5t16 -36.5t-16 -37.5t-38 -15.5q-23 0 -38.5 15.5t-15.5 37.5zM131 629q0 22 15.5 36.5t38.5 14.5q22 0 38 -14.5t16 -36.5t-16 -37.5t-38 -15.5q-23 0 -38.5 15.5t-15.5 37.5z" />
    <glyph glyph-name="eth" unicode="&#xf0;" horiz-adv-x="521" 
d="M153 555q16 14 30.5 29t29.5 29q-56 35 -122 44q8 17 16 33t17 33q39 -5 76.5 -19.5t72.5 -35.5l60 58l42 -41q-14 -12 -27 -25t-27 -26q78 -63 124 -158.5t46 -214.5q0 -57 -15 -106.5t-44.5 -86t-72 -57.5t-97.5 -21q-56 0 -99 19.5t-72 52t-44 75t-15 89.5
q0 54 18 97.5t49 73.5t70.5 46t83.5 16q35 0 68.5 -14.5t63.5 -46.5q-14 49 -45 96.5t-78 84.5l-68 -64zM404 229q0 33 -9 62t-27 51.5t-44 35.5t-60 13q-35 0 -61.5 -13.5t-44.5 -36t-27 -52.5t-9 -63t9 -63t26.5 -53t43.5 -37t60 -14q65 0 104 46.5t39 123.5z" />
    <glyph glyph-name="ntilde" unicode="&#xf1;" horiz-adv-x="510" 
d="M363 0v253q0 31 -3 50.5t-11 35.5q-11 23 -32 37t-54 14q-34 0 -57.5 -12.5t-37.5 -32.5q-10 -15 -15.5 -35t-5.5 -53v-257h-88v450h81l5 -52q23 30 60.5 46t77.5 16q44 0 83 -19.5t62 -60.5q11 -22 17 -49t6 -70v-261h-88zM305 645q28 0 41 50l54 -17q-6 -47 -31 -76
t-63 -29q-17 0 -32.5 6.5t-36.5 20.5q-16 10 -26 14.5t-18 4.5q-14 0 -23.5 -13.5t-16.5 -36.5l-54 16q7 48 31.5 76.5t62.5 28.5q16 0 31.5 -6.5t37.5 -20.5q14 -8 24 -13t19 -5z" />
    <glyph glyph-name="ograve" unicode="&#xf2;" horiz-adv-x="552" 
d="M276 59q34 0 62 13.5t48 36.5t30.5 53t10.5 62q0 33 -10.5 63t-30.5 53t-48 36.5t-62 13.5q-35 0 -62.5 -13.5t-47.5 -36.5t-30.5 -53t-10.5 -63q0 -32 10.5 -62t30.5 -53t47.5 -36.5t62.5 -13.5zM276 -11q-56 0 -100 19t-75 51.5t-47.5 75t-16.5 89.5t16.5 89.5t47.5 75
t75 52t100 19.5q55 0 99.5 -19.5t75.5 -52t47.5 -75t16.5 -89.5t-16.5 -89.5t-47.5 -75t-75.5 -51.5t-99.5 -19zM327 572l-53 -40l-122 142l66 50z" />
    <glyph glyph-name="oacute" unicode="&#xf3;" horiz-adv-x="552" 
d="M276 59q34 0 62 13.5t48 36.5t30.5 53t10.5 62q0 33 -10.5 63t-30.5 53t-48 36.5t-62 13.5q-35 0 -62.5 -13.5t-47.5 -36.5t-30.5 -53t-10.5 -63q0 -32 10.5 -62t30.5 -53t47.5 -36.5t62.5 -13.5zM276 -11q-56 0 -100 19t-75 51.5t-47.5 75t-16.5 89.5t16.5 89.5t47.5 75
t75 52t100 19.5q55 0 99.5 -19.5t75.5 -52t47.5 -75t16.5 -89.5t-16.5 -89.5t-47.5 -75t-75.5 -51.5t-99.5 -19zM317 724l65 -50l-122 -142l-52 40z" />
    <glyph glyph-name="ocircumflex" unicode="&#xf4;" horiz-adv-x="552" 
d="M276 59q34 0 62 13.5t48 36.5t30.5 53t10.5 62q0 33 -10.5 63t-30.5 53t-48 36.5t-62 13.5q-35 0 -62.5 -13.5t-47.5 -36.5t-30.5 -53t-10.5 -63q0 -32 10.5 -62t30.5 -53t47.5 -36.5t62.5 -13.5zM276 -11q-56 0 -100 19t-75 51.5t-47.5 75t-16.5 89.5t16.5 89.5t47.5 75
t75 52t100 19.5q55 0 99.5 -19.5t75.5 -52t47.5 -75t16.5 -89.5t-16.5 -89.5t-47.5 -75t-75.5 -51.5t-99.5 -19zM413 578l-51 -43l-87 90l-84 -90l-52 43l136 142z" />
    <glyph glyph-name="otilde" unicode="&#xf5;" horiz-adv-x="552" 
d="M276 59q34 0 62 13.5t48 36.5t30.5 53t10.5 62q0 33 -10.5 63t-30.5 53t-48 36.5t-62 13.5q-35 0 -62.5 -13.5t-47.5 -36.5t-30.5 -53t-10.5 -63q0 -32 10.5 -62t30.5 -53t47.5 -36.5t62.5 -13.5zM276 -11q-56 0 -100 19t-75 51.5t-47.5 75t-16.5 89.5t16.5 89.5t47.5 75
t75 52t100 19.5q55 0 99.5 -19.5t75.5 -52t47.5 -75t16.5 -89.5t-16.5 -89.5t-47.5 -75t-75.5 -51.5t-99.5 -19zM329 645q28 0 41 50l54 -17q-6 -47 -31 -76t-63 -29q-17 0 -32.5 6.5t-36.5 20.5q-16 10 -26 14.5t-18 4.5q-14 0 -23.5 -13.5t-16.5 -36.5l-54 16
q7 48 31.5 76.5t62.5 28.5q16 0 31.5 -6.5t37.5 -20.5q14 -8 24 -13t19 -5z" />
    <glyph glyph-name="odieresis" unicode="&#xf6;" horiz-adv-x="552" 
d="M276 59q34 0 62 13.5t48 36.5t30.5 53t10.5 62q0 33 -10.5 63t-30.5 53t-48 36.5t-62 13.5q-35 0 -62.5 -13.5t-47.5 -36.5t-30.5 -53t-10.5 -63q0 -32 10.5 -62t30.5 -53t47.5 -36.5t62.5 -13.5zM276 -11q-56 0 -100 19t-75 51.5t-47.5 75t-16.5 89.5t16.5 89.5t47.5 75
t75 52t100 19.5q55 0 99.5 -19.5t75.5 -52t47.5 -75t16.5 -89.5t-16.5 -89.5t-47.5 -75t-75.5 -51.5t-99.5 -19zM112 629q0 22 16 36.5t38 14.5t38 -14.5t16 -36.5t-16 -36.5t-38 -14.5t-38 14.5t-16 36.5zM326 629q0 22 16 36.5t38 14.5t38 -14.5t16 -36.5t-16 -36.5
t-38 -14.5t-38 14.5t-16 36.5z" />
    <glyph glyph-name="divide" unicode="&#xf7;" horiz-adv-x="598" 
d="M525 279v-72h-453v72h453zM244 73q0 23 16 39t39 16t39.5 -16t16.5 -39t-16.5 -39t-39.5 -16t-39 16t-16 39zM244 414q0 23 16 39t39 16t39.5 -16t16.5 -39t-16.5 -39.5t-39.5 -16.5t-39 16.5t-16 39.5z" />
    <glyph glyph-name="oslash" unicode="&#xf8;" horiz-adv-x="552" 
d="M276 -11q-77 0 -133 36l-37 -43l-44 33l38 45q-31 32 -47 74.5t-16 89.5t16.5 89.5t47.5 75t75 52t100 19.5q38 0 71.5 -9.5t60.5 -26.5l38 45l44 -34l-39 -46q31 -33 47.5 -75.5t16.5 -89.5t-16.5 -89.5t-47.5 -75t-75.5 -51.5t-99.5 -19zM276 59q34 0 62 13.5t48 36.5
t30.5 53t10.5 62q0 28 -8 53.5t-22 47.5l-204 -241q36 -25 83 -25zM125 224q0 -56 29 -100l204 241q-17 11 -38 18t-44 7q-35 0 -62.5 -13.5t-47.5 -36.5t-30.5 -53t-10.5 -63z" />
    <glyph glyph-name="ugrave" unicode="&#xf9;" horiz-adv-x="502" 
d="M253 -11q-91 0 -142.5 47.5t-51.5 145.5v268h88v-272q0 -63 29.5 -91t74.5 -28q43 0 73.5 27t30.5 92v272h88v-268q0 -53 -16 -89.5t-42 -59.5t-60.5 -33.5t-71.5 -10.5zM304 572l-53 -40l-122 142l66 50z" />
    <glyph glyph-name="uacute" unicode="&#xfa;" horiz-adv-x="502" 
d="M253 -11q-91 0 -142.5 47.5t-51.5 145.5v268h88v-272q0 -63 29.5 -91t74.5 -28q43 0 73.5 27t30.5 92v272h88v-268q0 -53 -16 -89.5t-42 -59.5t-60.5 -33.5t-71.5 -10.5zM307 724l65 -50l-122 -142l-52 40z" />
    <glyph glyph-name="ucircumflex" unicode="&#xfb;" horiz-adv-x="502" 
d="M253 -11q-91 0 -142.5 47.5t-51.5 145.5v268h88v-272q0 -63 29.5 -91t74.5 -28q43 0 73.5 27t30.5 92v272h88v-268q0 -53 -16 -89.5t-42 -59.5t-60.5 -33.5t-71.5 -10.5zM385 578l-51 -43l-87 90l-84 -90l-52 43l136 142z" />
    <glyph glyph-name="udieresis" unicode="&#xfc;" horiz-adv-x="502" 
d="M253 -11q-91 0 -142.5 47.5t-51.5 145.5v268h88v-272q0 -63 29.5 -91t74.5 -28q43 0 73.5 27t30.5 92v272h88v-268q0 -53 -16 -89.5t-42 -59.5t-60.5 -33.5t-71.5 -10.5zM87 629q0 22 16 36.5t38 14.5t38 -14.5t16 -36.5t-16 -36.5t-38 -14.5t-38 14.5t-16 36.5zM301 629
q0 22 16 36.5t38 14.5t38 -14.5t16 -36.5t-16 -36.5t-38 -14.5t-38 14.5t-16 36.5z" />
    <glyph glyph-name="yacute" unicode="&#xfd;" horiz-adv-x="461" 
d="M6 450h96l136 -340h2l130 340h85l-268 -659h-87l91 216zM285 724l65 -50l-122 -142l-52 40z" />
    <glyph glyph-name="thorn" unicode="&#xfe;" horiz-adv-x="547" 
d="M510 226q0 -50 -15.5 -93t-43 -74.5t-67 -49.5t-87.5 -18q-54 0 -89.5 21.5t-58.5 53.5l-2 -1v-291h-88v943h88v-325l2 -1q7 10 19.5 22t31 22.5t42.5 18t53 7.5q46 0 85.5 -16t68 -46.5t45 -74t16.5 -98.5zM146 226q0 -33 8 -63.5t24.5 -53t43 -36t62.5 -13.5
q30 0 55 12t43 34t28.5 52.5t10.5 67.5q0 36 -9.5 66.5t-27.5 52.5t-43.5 34.5t-57.5 12.5q-64 0 -100.5 -44t-36.5 -122z" />
    <glyph glyph-name="ydieresis" unicode="&#xff;" horiz-adv-x="461" 
d="M6 450h96l136 -340h2l130 340h85l-268 -659h-87l91 216zM75 629q0 22 16 36.5t38 14.5t38 -14.5t16 -36.5t-16 -36.5t-38 -14.5t-38 14.5t-16 36.5zM289 629q0 22 16 36.5t38 14.5t38 -14.5t16 -36.5t-16 -36.5t-38 -14.5t-38 14.5t-16 36.5z" />
    <glyph glyph-name="dotlessi" unicode="&#x131;" horiz-adv-x="205" 
d="M59 0v450h88v-450h-88z" />
    <glyph glyph-name="OE" unicode="&#x152;" horiz-adv-x="1120" 
d="M387 73q56 0 101.5 20.5t78 58t50.5 90t18 116.5q0 66 -18.5 119t-51.5 90t-78.5 56.5t-99.5 19.5q-59 0 -105 -22.5t-78 -61t-49 -90.5t-17 -110q0 -59 17 -111t49 -91t78 -61.5t105 -22.5zM40 359q0 69 22 134.5t65.5 116.5t106.5 82.5t146 31.5q92 0 155 -39t100 -99
v131h444v-78h-350v-240h234v-77h-234v-244h358v-78h-452v130q-37 -60 -100 -98.5t-155 -38.5q-83 0 -146 31.5t-106.5 83t-65.5 117t-22 134.5z" />
    <glyph glyph-name="oe" unicode="&#x153;" horiz-adv-x="885" 
d="M635 59q41 0 73 17t58 55l62 -41q-30 -48 -81.5 -74.5t-111.5 -26.5q-64 0 -112.5 29.5t-74.5 80.5q-25 -50 -71 -80t-114 -30q-55 0 -97 19t-70.5 51.5t-43.5 75t-15 89.5t15 89.5t43.5 75t70.5 52t97 19.5q69 0 116 -31t73 -81q26 51 73 81.5t111 30.5q44 0 82.5 -15.5
t67.5 -45.5t45.5 -75t16.5 -104v-14h-351q1 -35 12 -62t30 -46t43.5 -29t52.5 -10zM126 224q0 -33 9 -62.5t27 -52.5t44 -36.5t61 -13.5q34 0 60 13.5t44 36.5t27 52.5t9 62.5t-9 63t-27 53t-44 36.5t-60 13.5q-35 0 -61 -13.5t-44 -36.5t-27 -53t-9 -63zM757 268
q-5 59 -38.5 90.5t-86.5 31.5q-25 0 -47.5 -8t-40.5 -24t-30.5 -38.5t-16.5 -51.5h260z" />
    <glyph glyph-name="Scaron" unicode="&#x160;" horiz-adv-x="564" 
d="M521 195q0 -50 -19.5 -88.5t-53 -64.5t-77.5 -39.5t-93 -13.5q-40 0 -78.5 9t-72.5 25.5t-62.5 39.5t-49.5 52l62 58q41 -54 95 -78.5t106 -24.5q32 0 59.5 7.5t48 22.5t32 36.5t11.5 49.5q0 51 -42.5 81.5t-110.5 50.5l-60 18q-50 15 -83 33.5t-53.5 42t-29 51.5
t-8.5 61q0 42 16.5 78.5t47.5 64.5t73.5 44t95.5 16q74 0 138.5 -29t101.5 -85l-64 -59q-30 41 -75 66t-101 25q-37 0 -64 -10.5t-44 -27.5t-25.5 -37.5t-8.5 -39.5q0 -23 6.5 -40t20.5 -30t36.5 -23t54.5 -20l71 -22q41 -13 77.5 -28.5t63.5 -38t42.5 -55t15.5 -78.5z
M137 894l47 46l91 -81l88 81l48 -46l-136 -128z" />
    <glyph glyph-name="scaron" unicode="&#x161;" horiz-adv-x="412" 
d="M371 126q0 -30 -12.5 -55.5t-35 -43.5t-53 -28t-66.5 -10q-61 0 -108 24.5t-76 64.5l55 53q28 -35 57.5 -53.5t71.5 -18.5q43 0 63.5 18.5t20.5 44.5q0 10 -4 20.5t-16 19.5t-28 15.5t-42 14.5l-33 10q-21 7 -36.5 13t-27.5 14q-31 20 -43 43.5t-12 55.5q0 25 11 48.5
t31 42t49.5 30t66.5 11.5q54 0 95 -21.5t66 -56.5l-53 -50q-21 27 -49.5 42.5t-58.5 15.5q-31 0 -53.5 -14t-22.5 -43q0 -15 8 -26.5t19 -18.5q11 -6 22 -11t30 -11l36 -11q32 -10 54.5 -20.5t41.5 -27.5q32 -30 32 -81zM73 677l52 43l86 -89l85 89l51 -43l-136 -142z" />
    <glyph glyph-name="Ydieresis" unicode="&#x178;" horiz-adv-x="600" 
d="M240 0h-100l120 235l-262 482h106l205 -384l193 384h100zM147 833q0 22 15 36.5t37 14.5t37 -14.5t15 -36.5t-15 -36.5t-37 -14.5t-37 14.5t-15 36.5zM352 833q0 22 15 36.5t37 14.5q23 0 38 -14.5t15 -36.5t-15 -36.5t-38 -14.5q-22 0 -37 14.5t-15 36.5z" />
    <glyph glyph-name="Zcaron" unicode="&#x17d;" horiz-adv-x="599" 
d="M554 0h-515v88l395 549h-391v80h497v-87l-397 -550h411v-80zM151 894l47 46l91 -81l88 81l48 -46l-136 -128z" />
    <glyph glyph-name="zcaron" unicode="&#x17e;" horiz-adv-x="439" 
d="M406 0h-373v72l261 308h-259v70h361v-72l-262 -308h272v-70zM219 535l-138 142l52 43l86 -89l85 89l51 -43z" />
    <glyph glyph-name="longs" unicode="&#x17f;" horiz-adv-x="232" 
d="M159 0h-88v380h-60v70h60v43q0 27 0.5 44t1.5 33q2 38 15 66.5t34 48t48 29t57 9.5q17 0 34.5 -3t34.5 -11l-16 -67q-11 4 -23 6.5t-23 2.5q-26 0 -44.5 -12t-25.5 -39q-2 -9 -3.5 -25t-1.5 -58v-517z" />
    <glyph glyph-name="florin" unicode="&#x192;" horiz-adv-x="436" 
d="M169 309h-86v69h92l7 66q4 50 12 96.5t25 82.5t47 57.5t77 21.5q43 0 90 -18l-11 -66q-35 13 -61 13q-30 0 -47 -17.5t-26.5 -50.5t-13.5 -80t-8 -105h85v-69h-92l-22 -242q-2 -23 -5 -45.5t-5 -43.5q-5 -40 -15.5 -73.5t-28 -58t-44 -38t-62.5 -13.5q-20 0 -42.5 4
t-47.5 14l10 64q34 -12 61 -12q40 0 58 31.5t24 94.5z" />
    <glyph glyph-name="uni0237" unicode="&#x237;" horiz-adv-x="205" 
d="M56 -77q3 43 3 92v435h88v-437v-48.5t-2 -46.5q-5 -60 -45.5 -97.5t-103.5 -37.5q-8 0 -18 0.5t-18 2.5v67q2 0 4.5 -0.5t5.5 -0.5q15 0 30.5 2t27.5 9.5t20 21.5t8 38z" />
    <glyph glyph-name="circumflex" unicode="&#x2c6;" horiz-adv-x="324" 
d="M298 578l-51 -43l-87 90l-84 -90l-52 43l136 142z" />
    <glyph glyph-name="tilde" unicode="&#x2dc;" horiz-adv-x="324" 
d="M220 645q28 0 41 50l54 -17q-6 -47 -31 -76t-63 -29q-17 0 -32.5 6.5t-36.5 20.5q-16 10 -26 14.5t-18 4.5q-14 0 -23.5 -13.5t-16.5 -36.5l-54 16q7 48 31.5 76.5t62.5 28.5q16 0 31.5 -6.5t37.5 -20.5q14 -8 24 -13t19 -5z" />
    <glyph glyph-name="endash" unicode="&#x2013;" horiz-adv-x="598" 
d="M524 208h-456v72h456v-72z" />
    <glyph glyph-name="emdash" unicode="&#x2014;" horiz-adv-x="1002" 
d="M931 208h-860v72h860v-72z" />
    <glyph glyph-name="quoteleft" unicode="&#x2018;" horiz-adv-x="220" 
d="M131 482h-89l68 235h67z" />
    <glyph glyph-name="quoteright" unicode="&#x2019;" horiz-adv-x="220" 
d="M88 717h89l-68 -235h-67z" />
    <glyph glyph-name="quotesinglbase" unicode="&#x201a;" horiz-adv-x="220" 
d="M91 105h89l-71 -233h-65z" />
    <glyph glyph-name="quotedblleft" unicode="&#x201c;" horiz-adv-x="391" 
d="M302 482h-90l69 235h67zM131 482h-89l68 235h67z" />
    <glyph glyph-name="quotedblright" unicode="&#x201d;" horiz-adv-x="391" 
d="M88 717h89l-68 -235h-67zM212 482l47 235h89l-69 -235h-67z" />
    <glyph glyph-name="quotedblbase" unicode="&#x201e;" horiz-adv-x="391" 
d="M91 105h89l-69 -233h-67zM261 105h89l-68 -233h-67z" />
    <glyph glyph-name="dagger" unicode="&#x2020;" horiz-adv-x="577" 
d="M513 511h-186v-681h-78v681h-185v73h185v213h78v-213h186v-73z" />
    <glyph glyph-name="daggerdbl" unicode="&#x2021;" horiz-adv-x="577" 
d="M66 115h183v396h-183v73h183v213h78v-213h183v-73h-183v-396h183v-73h-183v-212h-78v212h-183v73z" />
    <glyph glyph-name="bullet" unicode="&#x2022;" horiz-adv-x="357" 
d="M299 253q0 -25 -9.5 -47.5t-26 -39t-38.5 -26.5t-47 -10q-26 0 -48 10t-39 26.5t-26.5 39t-9.5 47.5t9.5 47.5t26.5 39.5t39 26.5t48 9.5q25 0 47 -9.5t38.5 -26.5t26 -39.5t9.5 -47.5z" />
    <glyph glyph-name="ellipsis" unicode="&#x2026;" horiz-adv-x="704" 
d="M61 50q0 25 18 43t43 18t42.5 -18t17.5 -43t-17.5 -43t-42.5 -18t-43 18t-18 43zM292 50q0 25 18 43t43 18t42.5 -18t17.5 -43t-17.5 -43t-42.5 -18t-43 18t-18 43zM522 50q0 25 17.5 43t42.5 18q26 0 43.5 -18t17.5 -43t-17.5 -43t-43.5 -18q-25 0 -42.5 18t-17.5 43z
" />
    <glyph glyph-name="perthousand" unicode="&#x2030;" horiz-adv-x="1062" 
d="M193 665q37 0 65 -12.5t47.5 -33.5t29.5 -48.5t10 -56.5q0 -30 -10.5 -57.5t-30 -49t-48 -34.5t-64.5 -13t-64.5 12.5t-48 33.5t-29.5 48.5t-10 56.5q0 30 10.5 57.5t30 49t48 34.5t64.5 13zM625 658l-441 -660h-77l441 660h77zM193 419q21 0 37.5 8t27.5 20.5t16.5 29
t5.5 34.5t-5.5 34.5t-16.5 29.5t-27.5 21t-37.5 8q-44 0 -65.5 -27.5t-21.5 -62.5q0 -18 5.5 -35t17 -30.5t27.5 -21.5t37 -8zM539 295q37 0 65.5 -12.5t48 -33.5t29.5 -48.5t10 -56.5q0 -30 -10.5 -57.5t-30 -49t-48 -34.5t-64.5 -13q-37 0 -65 12.5t-47.5 33.5t-29.5 48
t-10 56q0 30 10 58t29.5 49.5t48 34.5t64.5 13zM539 49q22 0 38 7.5t27 20.5t16.5 29t5.5 34q0 36 -22 65t-65 29q-22 0 -38 -7.5t-27 -20t-16.5 -29t-5.5 -33.5q0 -18 5.5 -35t17 -30.5t27.5 -21.5t37 -8zM880 295q37 0 65.5 -12.5t48 -33.5t29.5 -48.5t10 -56.5
q0 -30 -10.5 -57.5t-30 -49t-48 -34.5t-64.5 -13q-37 0 -65 12.5t-47.5 33.5t-29.5 48t-10 56q0 30 10 58t29.5 49.5t48 34.5t64.5 13zM880 49q22 0 38 7.5t27 20.5t16.5 29t5.5 34q0 36 -22 65t-65 29q-22 0 -38 -7.5t-27 -20t-16.5 -29t-5.5 -33.5q0 -18 5.5 -35t17 -30.5
t27.5 -21.5t37 -8z" />
    <glyph glyph-name="guilsinglleft" unicode="&#x2039;" horiz-adv-x="333" 
d="M272 390l-119 -145l119 -143l-55 -45l-157 188l157 190l55 -45v0z" />
    <glyph glyph-name="guilsinglright" unicode="&#x203a;" horiz-adv-x="333" 
d="M179 246l-119 144l55 45l158 -189l-158 -189l-55 44z" />
    <glyph glyph-name="Euro" unicode="&#x20ac;" horiz-adv-x="681" 
d="M112 291q-3 21 -3 41q0 8 0.5 15t1.5 15h-87l23 67h77q14 54 42.5 97.5t69 74.5t92.5 48t112 17q51 0 103.5 -16.5t98.5 -50.5l-26 -69q-41 31 -85.5 48.5t-97.5 17.5q-44 0 -79.5 -13t-62.5 -35.5t-45.5 -53t-29.5 -65.5h364l-24 -67h-357q-1 -8 -1.5 -16t-0.5 -16
q0 -18 3 -39h330l-24 -67h-290q11 -33 30 -63t46 -52.5t61 -35.5t76 -13q53 0 97 14t97 43v-78q-19 -12 -42.5 -21.5t-48 -15.5t-49 -9.5t-45.5 -3.5q-66 0 -118.5 18t-91.5 49.5t-65 74.5t-40 93h-99l23 67h65z" />
    <glyph glyph-name="trademark" unicode="&#x2122;" horiz-adv-x="605" 
d="M503 482v164l-68 -111h-7l-64 107v-160h-50v235h54l66 -108l66 108h55v-235h-52zM184 677v-195h-53v195h-79v40h211v-40h-79z" />
    <glyph glyph-name="i.aalt" horiz-adv-x="205" 
d="M59 0v450h88v-450h-88zM46 662q0 23 16.5 40t40.5 17q23 0 40 -17t17 -40q0 -24 -17 -40.5t-40 -16.5q-24 0 -40.5 16.5t-16.5 40.5z" />
    <glyph glyph-name="zero.pnum" horiz-adv-x="503" 
d="M461 328q0 -69 -9 -124.5t-29 -98.5q-26 -55 -67.5 -85.5t-104.5 -30.5q-65 0 -107.5 32t-67.5 89q-19 44 -26.5 98t-7.5 120q0 63 6 116t23 95q26 60 69.5 93.5t110.5 33.5t110.5 -33.5t69.5 -93.5q18 -43 24 -95t6 -116zM369 327q0 54 -2.5 98.5t-14.5 82.5
q-14 43 -40 64.5t-61 21.5q-34 0 -60 -21.5t-40 -64.5q-12 -38 -15 -82.5t-3 -98.5q0 -53 3 -98.5t15 -83.5q14 -42 40 -63t60 -21q35 0 61 21t40 63q12 38 14.5 83.5t2.5 98.5z" />
    <glyph glyph-name="one.pnum" horiz-adv-x="319" 
d="M152 0v542l-124 -59l-29 68l242 115v-666h-89z" />
    <glyph glyph-name="two.pnum" horiz-adv-x="490" 
d="M224 594q-53 0 -83 -32t-48 -79l-76 29q9 29 26.5 56.5t43 49.5t61 35t80.5 13q42 0 79 -14.5t65 -40t44 -60.5t16 -76q0 -36 -11 -68t-29.5 -63t-43.5 -60.5t-52 -60.5l-129 -145h289v-78h-432v38l201 224q34 39 56.5 68t35 53.5t17.5 46t5 44.5q0 25 -9 47t-24.5 38.5
t-36.5 25.5t-45 9z" />
    <glyph glyph-name="three.pnum" horiz-adv-x="486" 
d="M446 195q0 -41 -15 -78.5t-43.5 -66t-69 -45t-91.5 -16.5q-73 0 -131.5 36t-83.5 105l79 32q16 -48 52 -75t82 -27q30 0 54 10.5t41 28.5t26 42t9 52q0 44 -24 78t-74 51q-17 5 -37 8t-49 3h-33l-4 11l167 233h-271v78h401v-24l-177 -243q49 -5 85 -23t60 -45t35.5 -59.5
t11.5 -65.5z" />
    <glyph glyph-name="four.pnum" horiz-adv-x="509" 
d="M304 168h-289v38l272 449h96l-252 -412h173v151h89v-151h88v-75h-88v-168h-89v168z" />
    <glyph glyph-name="five.pnum" horiz-adv-x="497" 
d="M456 206q0 -47 -16.5 -86.5t-46 -68.5t-70 -45.5t-88.5 -16.5q-35 0 -68 9t-60.5 26.5t-48.5 43.5t-33 61l78 30q17 -48 50 -73.5t79 -25.5q31 0 55.5 11.5t42 31t27 45.5t9.5 55q0 27 -8.5 53.5t-25 46.5t-41.5 32.5t-59 12.5t-67 -16.5t-56 -41.5l-66 25l63 340h322
v-78h-257l-38 -198q25 17 56.5 25.5t63.5 8.5q43 0 80 -15t64.5 -42.5t43 -65.5t15.5 -84z" />
    <glyph glyph-name="six.pnum" horiz-adv-x="519" 
d="M212 409q25 7 59 7q40 0 78 -15.5t66.5 -43.5t46 -67t17.5 -86q0 -46 -16.5 -85.5t-46 -68t-70.5 -45t-91 -16.5q-49 0 -89.5 15.5t-70 44t-46 68t-16.5 87.5q0 21 3 41t11 42t21 47.5t34 57.5l168 263h108zM256 347q-31 0 -55.5 -11t-42 -30.5t-26.5 -46t-9 -56.5t9 -56
t26.5 -45.5t42 -30.5t55.5 -11q32 0 57 11.5t42 31t25.5 45t8.5 54.5q0 64 -36 104.5t-97 40.5z" />
    <glyph glyph-name="seven.pnum" horiz-adv-x="487" 
d="M14 577v78h451v-11q-75 -162 -149.5 -322.5t-149.5 -321.5h-97l272 577h-327z" />
    <glyph glyph-name="eight.pnum" horiz-adv-x="508" 
d="M471 178q0 -43 -16 -78t-44.5 -59.5t-68.5 -38t-88 -13.5q-50 0 -90 13.5t-68.5 38.5t-44 60t-15.5 77q0 61 30.5 104t82.5 63q-41 20 -66 57.5t-25 88.5q0 33 12.5 64.5t37 56t61.5 39.5t85 15t84.5 -14.5t61 -39t37 -56t12.5 -65.5q0 -51 -25 -88.5t-66 -57.5
q52 -20 82.5 -63t30.5 -104zM253 375q47 0 77.5 28.5t30.5 82.5q0 22 -6.5 42t-19.5 35t-33 23.5t-48 8.5t-48 -8.5t-33.5 -23.5t-20 -35t-6.5 -42q0 -54 28.5 -82.5t78.5 -28.5zM254 60q62 0 94 36.5t32 87.5q0 25 -8.5 47.5t-24.5 40t-39.5 27.5t-53.5 10q-31 0 -55 -10
t-40 -27.5t-24.5 -40t-8.5 -47.5q0 -26 8.5 -48.5t24.5 -39t40 -26.5t55 -10z" />
    <glyph glyph-name="nine.pnum" horiz-adv-x="520" 
d="M301 245q-25 -7 -59 -7q-41 0 -78.5 15.5t-66.5 43.5t-46.5 67t-17.5 86q0 46 16.5 85.5t46 68t71 45t91.5 16.5q49 0 89.5 -15.5t70 -44t46 -68t16.5 -87.5q0 -21 -3 -41t-11 -42t-21 -47.5t-34 -57.5l-168 -262h-109zM257 307q31 0 55.5 11t42 30.5t26.5 46t9 56.5
t-9 56t-26.5 45.5t-42 30.5t-55.5 11q-33 0 -58 -11.5t-42 -31t-25.5 -45.5t-8.5 -54q0 -64 36 -104.5t98 -40.5z" />
    <glyph glyph-name="parenleft.aalt" horiz-adv-x="346" 
d="M69 359q0 130 43.5 254.5t131.5 229.5l68 -40q-78 -99 -116 -212.5t-38 -231.5t38 -231t116 -213l-68 -39q-88 104 -131.5 228.5t-43.5 254.5z" />
    <glyph glyph-name="parenright.aalt" horiz-adv-x="347" 
d="M278 359q0 -130 -43.5 -254.5t-131.5 -228.5l-68 39q78 100 116 213t38 231t-38 231.5t-116 212.5l68 40q88 -105 131.5 -229.5t43.5 -254.5z" />
    <glyph glyph-name="hyphen.aalt" horiz-adv-x="360" 
d="M301 318h-240v85h240v-85z" />
    <glyph glyph-name="bracketleft.aalt" horiz-adv-x="404" 
d="M349 -114h-256v946h255v-61h-167v-821h168v-64z" />
    <glyph glyph-name="bracketright.aalt" horiz-adv-x="404" 
d="M54 -50h168v819h-167v63h254v-946h-255v64z" />
    <glyph glyph-name="braceleft.aalt" horiz-adv-x="405" 
d="M142 236q0 29 -5.5 47t-16.5 27.5t-27.5 13.5t-37.5 5h-8v60h9q24 1 40.5 5.5t26.5 15.5t14.5 30t4.5 49v131q0 60 7 100.5t27.5 65.5t58 36t99.5 11h9v-60h-10q-36 -1 -57 -6t-32 -17.5t-14.5 -33.5t-3.5 -54v-166q0 -24 -2 -45t-9.5 -38t-22 -30.5t-38.5 -23.5
q24 -9 38 -23t21.5 -32t10 -39t2.5 -44v-166q0 -33 3.5 -53.5t15 -32.5t33 -17.5t57.5 -6.5h8v-60h-9q-104 0 -148 36t-44 119v31v165z" />
    <glyph glyph-name="braceright.aalt" horiz-adv-x="405" 
d="M263 71v-31q0 -83 -44 -119t-148 -36h-9v60h8q36 1 57.5 6.5t33 17.5t15 32.5t3.5 53.5v166q0 23 2.5 44t10 39t21.5 32t38 23q-24 10 -38.5 23.5t-22 30.5t-9.5 38t-2 45v166q0 33 -3.5 54t-14.5 33.5t-32 17.5t-57 6h-10v60h9q61 0 99 -11t58.5 -36t27.5 -65.5
t7 -100.5v-131q0 -30 4.5 -49t14.5 -30t26.5 -15.5t40.5 -5.5h9v-60h-8q-21 -1 -37.5 -5t-27.5 -13.5t-16.5 -27.5t-5.5 -47v-165z" />
    <glyph glyph-name="guillemotleft.aalt" horiz-adv-x="527" 
d="M346 358l119 -144l-55 -44l-158 188l158 190l55 -45zM153 358l119 -144l-55 -44l-157 188l157 190l55 -45z" />
    <glyph glyph-name="uni00AD.aalt" horiz-adv-x="360" 
d="M301 318h-240v85h240v-85z" />
    <glyph glyph-name="guillemotright.aalt" horiz-adv-x="527" 
d="M60 214l118 145l-118 144l55 45l157 -189l-157 -189zM372 359l-120 144l56 45l157 -189l-157 -189l-56 44z" />
    <glyph glyph-name="endash.aalt" horiz-adv-x="591" 
d="M523 317h-455v86h455v-86z" />
    <glyph glyph-name="emdash.aalt" horiz-adv-x="1002" 
d="M934 317h-866v86h866v-86z" />
    <glyph glyph-name="guilsinglleft.aalt" horiz-adv-x="333" 
d="M153 358l119 -144l-55 -44l-157 188l157 190l55 -45z" />
    <glyph glyph-name="guilsinglright.aalt" horiz-adv-x="333" 
d="M179 359l-119 144l55 45l158 -189l-158 -189l-55 45z" />
    <glyph glyph-name="zero.aalt" horiz-adv-x="563" 
d="M147 359q0 -60 2.5 -108.5t16.5 -90.5q16 -47 46.5 -68.5t69.5 -21.5t69.5 21.5t46.5 68.5q14 42 16 90.5t2 108.5t-2 108t-16 90q-16 47 -46.5 68t-69.5 21t-69.5 -21t-46.5 -68q-14 -42 -16.5 -90t-2.5 -108zM53 359q0 68 5.5 125t25.5 103q27 65 76.5 102.5
t121.5 37.5t121 -37.5t76 -102.5q20 -46 26 -103t6 -125t-6 -125.5t-26 -104.5q-27 -64 -76 -102t-121 -38t-121.5 38t-76.5 102q-20 47 -25.5 104.5t-5.5 125.5z" />
    <glyph glyph-name="one.aalt" horiz-adv-x="563" 
d="M241 80v521l-137 -65l-31 68l260 123v-647h151v-80h-394v80h151z" />
    <glyph glyph-name="two.aalt" horiz-adv-x="563" 
d="M266 646q-29 0 -52 -9t-40.5 -24.5t-30.5 -36.5t-22 -45l-77 29q10 31 28.5 61.5t46.5 53.5t65.5 37.5t85.5 14.5q46 0 86.5 -15.5t70.5 -43t47.5 -66t17.5 -83.5t-15.5 -86t-42.5 -79q-20 -27 -49.5 -62.5t-71.5 -82.5l-115 -129h319v-80h-468v37l220 245q39 43 63.5 76
t38.5 60t19.5 50.5t5.5 48.5q0 28 -10 51.5t-27.5 41t-41.5 27t-51 9.5z" />
    <glyph glyph-name="three.aalt" horiz-adv-x="563" 
d="M515 212q0 -44 -16.5 -84.5t-47 -71.5t-75 -49t-99.5 -18q-45 0 -82.5 12t-67 33t-50 48.5t-32.5 57.5l77 35q18 -46 56.5 -75.5t96.5 -29.5q68 0 106 39.5t38 102.5q0 49 -25.5 88.5t-86.5 56.5q-17 5 -42.5 7.5t-58.5 2.5h-24l-5 10l187 260h-300v80h434v-25l-187 -260
q97 -17 150.5 -76t53.5 -144z" />
    <glyph glyph-name="four.aalt" horiz-adv-x="563" 
d="M338 185h-316v38l297 494h101l-278 -454h196v170h93v-170h98v-78h-98v-185h-93v185z" />
    <glyph glyph-name="five.aalt" horiz-adv-x="563" 
d="M514 224q0 -51 -18.5 -94t-51 -74.5t-76.5 -49t-95 -17.5q-44 0 -81 12t-66.5 32t-50.5 47.5t-33 59.5l78 33q17 -45 54.5 -76t95.5 -31q31 0 58 11.5t47.5 32t32.5 49t12 63.5q0 31 -10.5 59.5t-30 50t-47.5 34t-62 12.5q-73 0 -136 -60l-70 25q9 47 21 110.5t23 122.5
q13 69 27 141h348v-80h-279l-44 -226q62 40 133 40q45 0 85 -16.5t70 -46.5t48 -72t18 -92z" />
    <glyph glyph-name="six.aalt" horiz-adv-x="563" 
d="M227 444q36 14 77 14q26 0 53.5 -7t56.5 -24q49 -29 79.5 -82t30.5 -119q0 -51 -18.5 -94.5t-51.5 -75t-77.5 -49.5t-96.5 -18q-51 0 -95 17t-76.5 48t-51 75t-18.5 97q0 26 5 51t15.5 51t26.5 54.5t38 63.5l174 271h114zM281 382q-69 0 -109 -43.5t-40 -114.5
q0 -32 10 -60t29 -49t47 -33t63 -12q36 0 64 12.5t46.5 33.5t28.5 49t10 60q0 33 -10 61.5t-29 50t-47 33.5t-63 12z" />
    <glyph glyph-name="seven.aalt" horiz-adv-x="563" 
d="M49 637v80h488v-10l-328 -707h-100l298 637h-358z" />
    <glyph glyph-name="eight.aalt" horiz-adv-x="563" 
d="M282 414q51 0 86.5 30.5t35.5 88.5q0 47 -30.5 80t-91.5 33q-31 0 -54 -9t-38 -24.5t-22.5 -36t-7.5 -43.5q0 -58 35 -88.5t87 -30.5zM282 70q34 0 60.5 10.5t44.5 28.5t27 42t9 51t-9 51t-27 42t-44.5 28.5t-60.5 10.5q-35 0 -61.5 -10.5t-44.5 -28.5t-27 -42t-9 -51
t9 -51t27 -42t44.5 -28.5t61.5 -10.5zM282 -11q-56 0 -99.5 16t-73.5 43.5t-46 65t-16 81.5q0 65 32 111t91 69q-45 25 -72 66t-27 96q0 40 15 75t43 60.5t66.5 40t86.5 14.5q47 0 86 -14t66.5 -39.5t42.5 -60.5t15 -76q0 -55 -27 -96t-72 -66q59 -23 91 -69t32 -111
q0 -46 -17.5 -84t-48.5 -65t-74 -42t-94 -15z" />
    <glyph glyph-name="nine.aalt" horiz-adv-x="563" 
d="M335 272q-36 -14 -77 -14q-26 0 -53.5 7t-56.5 24q-49 29 -79.5 82t-30.5 119q0 51 18.5 94.5t51.5 75t77.5 49.5t96.5 18q51 0 95 -17t76.5 -48t51 -75t18.5 -97q0 -26 -5 -51t-15.5 -51t-26.5 -55t-38 -63l-174 -270h-114zM281 334q69 0 109 43.5t40 114.5q0 32 -10 60
t-29 49t-47 33t-63 12q-36 0 -64 -12.5t-46.5 -33.5t-28.5 -49.5t-10 -59.5q0 -33 10 -61.5t29 -50t47 -33.5t63 -12z" />
    <glyph glyph-name="zero.pnum.case" horiz-adv-x="579" 
d="M290 646q-77 0 -113.5 -70.5t-36.5 -217.5q0 -145 36 -216.5t114 -71.5q77 0 113 70.5t36 217.5t-36 217.5t-113 70.5zM290 -11q-63 0 -109 26t-76 74t-45 116t-15 153q0 84 15 152.5t45.5 116.5t76.5 74t108 26t108 -26t76 -74t45 -116.5t15 -152.5t-15 -152.5
t-45 -116.5t-76 -74t-108 -26z" />
    <glyph glyph-name="one.pnum.case" horiz-adv-x="329" 
d="M157 0v601l-136 -65l-30 69l258 122v-727h-92z" />
    <glyph glyph-name="two.pnum.case" horiz-adv-x="515" 
d="M235 646q-29 0 -52 -9t-40.5 -24.5t-30.5 -36.5t-22 -45l-77 29q10 31 28.5 61.5t46.5 53.5t65.5 37.5t85.5 14.5q46 0 86.5 -15.5t70.5 -43t47.5 -66t17.5 -83.5t-15.5 -86t-42.5 -79q-20 -27 -49.5 -62.5t-71.5 -82.5l-115 -129h319v-80h-468v37l220 245q39 43 63.5 76
t38.5 60t19.5 50.5t5.5 48.5q0 28 -10 51.5t-27.5 41t-41.5 27t-51 9.5z" />
    <glyph glyph-name="three.pnum.case" horiz-adv-x="521" 
d="M478 212q0 -44 -16.5 -84.5t-47 -71.5t-75 -49t-99.5 -18q-45 0 -82.5 12t-67 33t-50 48.5t-32.5 57.5l77 35q18 -46 56.5 -75.5t96.5 -29.5q68 0 106 39.5t38 102.5q0 49 -25.5 88.5t-86.5 56.5q-17 5 -42.5 7.5t-58.5 2.5h-24l-5 10l187 260h-300v80h434v-25l-187 -260
q97 -17 150.5 -76t53.5 -144z" />
    <glyph glyph-name="four.pnum.case" horiz-adv-x="554" 
d="M338 185h-316v43l297 489h101l-280 -454h198v170h93v-170h98v-78h-98v-185h-93v185z" />
    <glyph glyph-name="five.pnum.case" horiz-adv-x="537" 
d="M494 224q0 -51 -18.5 -94t-51 -74.5t-76.5 -49t-95 -17.5q-44 0 -81 12t-66.5 32t-50.5 47.5t-33 59.5l78 33q17 -45 54.5 -76t95.5 -31q31 0 58 11.5t47.5 32t32.5 49t12 63.5q0 31 -10.5 59.5t-30 50t-47.5 34t-62 12.5q-73 0 -136 -60l-70 25q9 47 21 110.5t23 122.5
q13 69 27 141h348v-80h-279l-44 -226q62 40 133 40q45 0 85 -16.5t70 -46.5t48 -72t18 -92z" />
    <glyph glyph-name="six.pnum.case" horiz-adv-x="565" 
d="M228 444q36 14 77 14q26 0 53.5 -7t56.5 -24q49 -29 79.5 -82t30.5 -119q0 -51 -18.5 -94.5t-51.5 -75t-77.5 -49.5t-96.5 -18q-51 0 -95 17t-76.5 48t-51 75t-18.5 97q0 26 5 51t15.5 51t26.5 54.5t38 63.5l174 271h114zM282 382q-69 0 -109 -43.5t-40 -114.5
q0 -32 10 -60t29 -49t47 -33t63 -12q36 0 64 12.5t46.5 33.5t28.5 49t10 60q0 33 -10 61.5t-29 50t-47 33.5t-63 12z" />
    <glyph glyph-name="seven.pnum.case" horiz-adv-x="528" 
d="M20 637v80h488v-10l-328 -707h-100l298 637h-358z" />
    <glyph glyph-name="eight.pnum.case" horiz-adv-x="552" 
d="M276 414q51 0 86.5 30.5t35.5 88.5q0 47 -30.5 80t-91.5 33q-31 0 -54 -9t-38 -24.5t-22.5 -36t-7.5 -43.5q0 -58 35 -88.5t87 -30.5zM276 70q34 0 60.5 10.5t44.5 28.5t27 42t9 51t-9 51t-27 42t-44.5 28.5t-60.5 10.5q-35 0 -61.5 -10.5t-44.5 -28.5t-27 -42t-9 -51
t9 -51t27 -42t44.5 -28.5t61.5 -10.5zM276 -11q-56 0 -99.5 16t-73.5 43.5t-46 65t-16 81.5q0 65 32 111t91 69q-45 25 -72 66t-27 96q0 40 15 75t43 60.5t66.5 40t86.5 14.5q47 0 86 -14t66.5 -39.5t42.5 -60.5t15 -76q0 -55 -27 -96t-72 -66q59 -23 91 -69t32 -111
q0 -46 -17.5 -84t-48.5 -65t-74 -42t-94 -15z" />
    <glyph glyph-name="nine.pnum.case" horiz-adv-x="566" 
d="M339 273q-37 -14 -78 -14q-26 0 -53.5 7t-57.5 24q-49 29 -79.5 81.5t-30.5 118.5q0 51 18.5 94.5t51.5 75t78 49.5t97 18q51 0 95.5 -17t77.5 -48t51.5 -75t18.5 -97q0 -26 -5 -51t-15.5 -51t-27 -54.5t-38.5 -62.5l-175 -271h-115zM284 335q70 0 110 43t40 114
q0 32 -10 60t-29.5 49t-47 33t-63.5 12t-64 -12.5t-47 -33.5t-29 -49.5t-10 -59.5q0 -33 10 -61.5t29.5 -49.5t47.5 -33t63 -12z" />
    <glyph glyph-name="dollar.aalt" horiz-adv-x="563" 
d="M239 -1q-30 3 -59 13.5t-54.5 27t-45.5 38t-32 46.5l63 45q20 -38 55.5 -64t77.5 -35v265q-53 18 -88.5 38t-56.5 43t-30 50.5t-9 60.5q0 40 16 73t41.5 57.5t57.5 39.5t64 20v72h83v-72q42 -5 74 -19.5t54 -32.5t35.5 -37t19.5 -32l-62 -45q-20 36 -53 60t-73 32v-248
q45 -14 80.5 -31.5t61 -41.5t39 -56t13.5 -76q0 -38 -14.5 -71t-39.5 -58t-60 -41.5t-75 -20.5v-80h-83v80zM428 186q0 50 -30 78.5t-81 46.5v-243q45 8 78 36.5t33 81.5zM143 532q0 -43 26 -69.5t75 -43.5v226q-50 -8 -75.5 -39.5t-25.5 -73.5z" />
    <glyph glyph-name="sterling.aalt" horiz-adv-x="563" 
d="M471 613q-32 19 -60 26t-54 7q-67 0 -99 -47q-11 -16 -18.5 -38.5t-13.5 -64.5l-20 -128h159v-80h-171q-6 -40 -15.5 -92t-21.5 -116h349v-80h-464v12q16 54 30.5 126t27.5 150h-70v80h83l23 149q8 46 20 77t29 53q32 42 76.5 61t95.5 19q54 0 90.5 -14.5t58.5 -28.5
l-35 -71v0z" />
    <glyph glyph-name="yen.aalt" horiz-adv-x="563" 
d="M350 422h159v-74h-181v-91h181v-74h-181v-183h-93v183h-181v74h181v91h-181v74h155l-202 295h101l175 -263l177 263h95z" />
    <glyph glyph-name="Euro.aalt" horiz-adv-x="734" 
d="M122 317q-3 20 -3 39t2 39h-97l26 71h83q14 54 42 101t69.5 82.5t97 56t124.5 20.5q59 0 119.5 -17t115.5 -59l-28 -77q-45 36 -94 54.5t-109 18.5q-47 0 -86 -14t-69 -38t-51 -57t-33 -71h403l-25 -71h-394q-6 -38 0 -78h365l-26 -72h-322q12 -36 32.5 -68t50 -56
t67 -37.5t83.5 -13.5q29 0 54.5 3t51 10.5t52.5 18.5t57 28v-85q-46 -29 -106.5 -42.5t-114.5 -13.5q-67 0 -120.5 20.5t-94 55.5t-68 81.5t-42.5 98.5h-110l26 72h72z" />
    <glyph glyph-name="a.ss01" horiz-adv-x="562" 
d="M37 225q0 48 17 90.5t46 74.5q32 35 73.5 52.5t85.5 17.5t85 -18.5t69 -53.5l2 1l6 62h82v-451h-82l-4 60l-2 1q-27 -35 -68 -53.5t-86 -18.5q-44 0 -86.5 17.5t-74.5 52.5q-29 31 -46 73t-17 93zM416 225q0 33 -9 63t-27.5 52.5t-46 36t-63.5 13.5q-30 0 -56 -12
t-45.5 -33.5t-31 -52t-11.5 -67.5q0 -36 10.5 -66.5t30 -52.5t46 -34.5t58.5 -12.5q64 0 104.5 44t40.5 122z" />
    <glyph glyph-name="aacute.ss01" horiz-adv-x="562" 
d="M37 225q0 48 17 90.5t46 74.5q32 35 73.5 52.5t85.5 17.5t85 -18.5t69 -53.5l2 1l6 62h82v-451h-82l-4 60l-2 1q-27 -35 -68 -53.5t-86 -18.5q-44 0 -86.5 17.5t-74.5 52.5q-29 31 -46 73t-17 93zM416 225q0 33 -9 63t-27.5 52.5t-46 36t-63.5 13.5q-30 0 -56 -12
t-45.5 -33.5t-31 -52t-11.5 -67.5q0 -36 10.5 -66.5t30 -52.5t46 -34.5t58.5 -12.5q64 0 104.5 44t40.5 122zM315 724l65 -50l-122 -142l-52 40z" />
    <glyph glyph-name="agrave.ss01" horiz-adv-x="562" 
d="M37 225q0 48 17 90.5t46 74.5q32 35 73.5 52.5t85.5 17.5t85 -18.5t69 -53.5l2 1l6 62h82v-451h-82l-4 60l-2 1q-27 -35 -68 -53.5t-86 -18.5q-44 0 -86.5 17.5t-74.5 52.5q-29 31 -46 73t-17 93zM416 225q0 33 -9 63t-27.5 52.5t-46 36t-63.5 13.5q-30 0 -56 -12
t-45.5 -33.5t-31 -52t-11.5 -67.5q0 -36 10.5 -66.5t30 -52.5t46 -34.5t58.5 -12.5q64 0 104.5 44t40.5 122zM334 572l-53 -40l-122 142l66 50z" />
    <glyph glyph-name="acircumflex.ss01" horiz-adv-x="562" 
d="M37 225q0 48 17 90.5t46 74.5q32 35 73.5 52.5t85.5 17.5t85 -18.5t69 -53.5l2 1l6 62h82v-451h-82l-4 60l-2 1q-27 -35 -68 -53.5t-86 -18.5q-44 0 -86.5 17.5t-74.5 52.5q-29 31 -46 73t-17 93zM416 225q0 33 -9 63t-27.5 52.5t-46 36t-63.5 13.5q-30 0 -56 -12
t-45.5 -33.5t-31 -52t-11.5 -67.5q0 -36 10.5 -66.5t30 -52.5t46 -34.5t58.5 -12.5q64 0 104.5 44t40.5 122zM407 578l-51 -43l-87 90l-84 -90l-52 43l136 142z" />
    <glyph glyph-name="adieresis.ss01" horiz-adv-x="562" 
d="M37 225q0 48 17 90.5t46 74.5q32 35 73.5 52.5t85.5 17.5t85 -18.5t69 -53.5l2 1l6 62h82v-451h-82l-4 60l-2 1q-27 -35 -68 -53.5t-86 -18.5q-44 0 -86.5 17.5t-74.5 52.5q-29 31 -46 73t-17 93zM416 225q0 33 -9 63t-27.5 52.5t-46 36t-63.5 13.5q-30 0 -56 -12
t-45.5 -33.5t-31 -52t-11.5 -67.5q0 -36 10.5 -66.5t30 -52.5t46 -34.5t58.5 -12.5q64 0 104.5 44t40.5 122zM109 629q0 22 16 36.5t38 14.5t38 -14.5t16 -36.5t-16 -36.5t-38 -14.5t-38 14.5t-16 36.5zM323 629q0 22 16 36.5t38 14.5t38 -14.5t16 -36.5t-16 -36.5
t-38 -14.5t-38 14.5t-16 36.5z" />
    <glyph glyph-name="atilde.ss01" horiz-adv-x="562" 
d="M37 225q0 48 17 90.5t46 74.5q32 35 73.5 52.5t85.5 17.5t85 -18.5t69 -53.5l2 1l6 62h82v-451h-82l-4 60l-2 1q-27 -35 -68 -53.5t-86 -18.5q-44 0 -86.5 17.5t-74.5 52.5q-29 31 -46 73t-17 93zM416 225q0 33 -9 63t-27.5 52.5t-46 36t-63.5 13.5q-30 0 -56 -12
t-45.5 -33.5t-31 -52t-11.5 -67.5q0 -36 10.5 -66.5t30 -52.5t46 -34.5t58.5 -12.5q64 0 104.5 44t40.5 122zM326 645q28 0 41 50l54 -17q-6 -47 -31 -76t-63 -29q-17 0 -32.5 6.5t-36.5 20.5q-16 10 -26 14.5t-18 4.5q-14 0 -23.5 -13.5t-16.5 -36.5l-54 16q7 48 31.5 76.5
t62.5 28.5q16 0 31.5 -6.5t37.5 -20.5q14 -8 24 -13t19 -5z" />
    <glyph glyph-name="aring.ss01" horiz-adv-x="562" 
d="M37 225q0 48 17 90.5t46 74.5q32 35 73.5 52.5t85.5 17.5t85 -18.5t69 -53.5l2 1l6 62h82v-451h-82l-4 60l-2 1q-27 -35 -68 -53.5t-86 -18.5q-44 0 -86.5 17.5t-74.5 52.5q-29 31 -46 73t-17 93zM416 225q0 33 -9 63t-27.5 52.5t-46 36t-63.5 13.5q-30 0 -56 -12
t-45.5 -33.5t-31 -52t-11.5 -67.5q0 -36 10.5 -66.5t30 -52.5t46 -34.5t58.5 -12.5q64 0 104.5 44t40.5 122zM369 630q0 -23 -8.5 -41t-22.5 -30t-31.5 -18.5t-36.5 -6.5t-36.5 6.5t-31.5 18.5t-22.5 30t-8.5 41t8.5 41t22.5 30t31.5 18.5t36.5 6.5t36.5 -6.5t31.5 -18.5
t22.5 -30t8.5 -41zM318 630q0 25 -14.5 37.5t-33.5 12.5q-18 0 -33 -13t-15 -37t15 -37.5t33 -13.5q19 0 33.5 13.5t14.5 37.5z" />
    </font>
</defs>
</svg>
