<?xml version="1.0" standalone="no"?>
<!DOCTYPE svg PUBLIC "-//W3C//DTD SVG 1.1//EN" "http://www.w3.org/Graphics/SVG/1.1/DTD/svg11.dtd" >
<svg xmlns="http://www.w3.org/2000/svg" xmlns:xlink="http://www.w3.org/1999/xlink" version="1.1">
<metadata>
Created by FontForge 20200427 at Thu Mar  5 11:38:16 2015
 By www
Copyright (c) 2014 by Nick Shinn. All rights reserved.
</metadata>
<defs>
<font id="NeologyDecoW03-Medium" horiz-adv-x="538" >
  <font-face 
    font-family="NeologyDecoW03-Medium"
    font-weight="500"
    font-stretch="normal"
    units-per-em="1000"
    panose-1="2 0 0 0 0 0 0 0 0 0"
    ascent="800"
    descent="-200"
    x-height="455"
    cap-height="717"
    bbox="-48 -229 1086 940"
    underline-thickness="50"
    underline-position="-125"
    unicode-range="U+0020-FB02"
  />
<missing-glyph horiz-adv-x="493" 
d="M2 755h488v-755h-488v755zM412 60v635h-331v-635h331z" />
    <glyph glyph-name="uniFB01" unicode="fi" horiz-adv-x="532" 
d="M314 711q-2 -23 -3.5 -45t-3.5 -45q-12 5 -23 6.5t-22 1.5q-35 0 -55 -20.5t-20 -68.5v-85h111v-91h-111v-364h-116v364h-59v91h59v54q0 49 9.5 88.5t30.5 67.5t54 43t80 15q16 0 34.5 -3t34.5 -9zM360 0v455h116v-455h-116zM348 651q0 29 20.5 49.5t49.5 20.5
t49.5 -20.5t20.5 -49.5t-20.5 -49.5t-49.5 -20.5t-49.5 20.5t-20.5 49.5z" />
    <glyph glyph-name="uniFB02" unicode="fl" horiz-adv-x="532" 
d="M313 711q-2 -23 -3.5 -45t-3.5 -45q-12 5 -23 6.5t-22 1.5q-35 0 -55 -20.5t-20 -68.5v-85h111v-91h-111v-364h-116v364h-59v91h59v54q0 49 9.5 88.5t30.5 67.5t54 43t80 15q16 0 34.5 -3t34.5 -9zM359 0v717h116v-717h-116z" />
    <glyph glyph-name=".notdef" horiz-adv-x="493" 
d="M2 755h488v-755h-488v755zM412 60v635h-331v-635h331z" />
    <glyph glyph-name="glyph1" horiz-adv-x="0" 
 />
    <glyph glyph-name="glyph1" horiz-adv-x="0" 
 />
    <glyph glyph-name="nonmarkingreturn" horiz-adv-x="333" 
 />
    <glyph glyph-name="space" unicode=" " horiz-adv-x="253" 
 />
    <glyph glyph-name="exclam" unicode="!" horiz-adv-x="293" 
d="M197 200h-102l-19 517h140zM70 63q0 32 22 54.5t54 22.5q31 0 53.5 -22.5t22.5 -54.5t-22.5 -53t-53.5 -21q-32 0 -54 21t-22 53z" />
    <glyph glyph-name="quotedbl" unicode="&#x22;" horiz-adv-x="449" 
d="M271 425l-9 292h106l-9 -292h-88zM90 425l-8 292h104l-9 -292h-87z" />
    <glyph glyph-name="numbersign" unicode="#" horiz-adv-x="615" 
d="M567 406h-113l-19 -144h106l-4 -73h-112l-26 -189h-78l27 189h-132l-26 -189h-77l27 189h-105l5 73h109l20 144h-105l5 72h110l25 178h77l-24 -178h131l24 178h76l-23 -178h106zM246 406l-18 -144h129l20 144h-131z" />
    <glyph glyph-name="dollar" unicode="$" 
d="M203 13q-25 5 -50 14.5t-46.5 21.5t-39.5 25.5t-29 25.5l62 80q18 -18 40.5 -33.5t45.5 -26.5t45.5 -17t41.5 -6q17 0 34 5t30.5 15t22 24.5t8.5 33.5q0 32 -19.5 52.5t-56.5 34.5l-66 24q-39 14 -71.5 29.5t-55.5 36t-35.5 48.5t-12.5 67q0 27 10 55t29 52t47.5 42.5
t65.5 26.5v92h121v-90q29 -5 53 -14.5t42 -21t30 -22t18 -17.5l-62 -79q-24 24 -61 45t-82 21q-44 0 -70.5 -22t-26.5 -55q0 -30 19.5 -51t55.5 -33l32 -11q39 -14 77 -28.5t68 -36t48.5 -53t18.5 -77.5q0 -69 -44.5 -116t-115.5 -62v-96h-121v97v0z" />
    <glyph glyph-name="percent" unicode="%" horiz-adv-x="770" 
d="M197 667q36 0 65.5 -13t50.5 -34.5t32 -50.5t11 -61t-11.5 -61t-32.5 -51.5t-51 -36t-66 -13.5t-65 13t-50 35t-32 51t-11 61t11.5 61t32.5 51.5t50.5 35.5t65.5 13zM642 657q-14 -22 -36 -57t-50 -78.5t-60 -93t-64.5 -100t-64 -100t-59.5 -93t-50.5 -78.5t-36.5 -57
h-93l422 657h92zM196 417q40 0 61.5 27t21.5 62t-21.5 61.5t-61.5 26.5q-39 0 -60.5 -25.5t-21.5 -60.5q0 -18 5.5 -34t16 -29t26 -20.5t34.5 -7.5zM573 310q36 0 65.5 -13t50.5 -35t32 -51t11 -61t-11.5 -61t-32.5 -51.5t-50.5 -35.5t-65.5 -13t-65.5 13t-50.5 34.5t-32 50
t-11 60.5t11.5 61.5t32.5 52t50.5 36t65.5 13.5zM572 60q41 0 62.5 26t21.5 61q0 18 -5.5 34t-16.5 28.5t-26.5 20t-35.5 7.5q-40 0 -61.5 -26.5t-21.5 -60.5q0 -18 6 -34t16.5 -28.5t26 -20t34.5 -7.5z" />
    <glyph glyph-name="ampersand" unicode="&#x26;" horiz-adv-x="706" 
d="M682 315h-121v-315h-280q-63 0 -107.5 16t-72 43t-40.5 61.5t-13 71.5q0 58 32 102t88 67q-50 29 -73 74.5t-23 93.5q0 41 15 77t43.5 62.5t70.5 42t96 15.5q42 0 75 -8t51 -17q-8 -23 -16 -45t-17 -45q-17 7 -37 12t-46 5q-30 0 -51 -9t-34.5 -24t-20 -34.5t-6.5 -40.5
t6.5 -41t21 -35.5t38.5 -25t60 -9.5h123v115h117v-115h121v-94zM180 204q0 -17 5 -37t19.5 -36.5t41 -27.5t69.5 -11h129v223h-127q-38 0 -64.5 -9t-42.5 -24.5t-23 -35.5t-7 -42z" />
    <glyph glyph-name="quotesingle" unicode="'" horiz-adv-x="233" 
d="M73 425l-9 292h105l-9 -292h-87z" />
    <glyph glyph-name="parenleft" unicode="(" horiz-adv-x="364" 
d="M70 249q0 130 40.5 252t123.5 227l90 -48q-69 -101 -103.5 -209t-34.5 -222t34.5 -222t103.5 -209l-90 -47q-83 104 -123.5 226.5t-40.5 251.5z" />
    <glyph glyph-name="parenright" unicode=")" horiz-adv-x="364" 
d="M296 249q0 -129 -40.5 -251.5t-123.5 -226.5l-91 47q69 101 103.5 209t34.5 222t-34.5 222t-103.5 209l91 48q83 -105 123.5 -227t40.5 -252z" />
    <glyph glyph-name="asterisk" unicode="*" horiz-adv-x="435" 
d="M260 717l-4 -124l116 41l26 -79l-118 -35l75 -100l-67 -47l-71 103l-70 -103l-67 47l75 100l-117 35l25 79l115 -42l-4 125h86z" />
    <glyph glyph-name="plus" unicode="+" horiz-adv-x="595" 
d="M531 200h-187v-200h-93v200h-187v92h187v198h93v-198h187v-92z" />
    <glyph glyph-name="comma" unicode="," horiz-adv-x="246" 
d="M89 137h121l-96 -276h-84z" />
    <glyph glyph-name="hyphen" unicode="-" horiz-adv-x="370" 
d="M313 193h-256v105h256v-105z" />
    <glyph glyph-name="period" unicode="." horiz-adv-x="246" 
d="M48 65q0 32 22 54.5t54 22.5q31 0 53 -22.5t22 -54.5t-22 -54t-53 -22q-32 0 -54 22t-22 54z" />
    <glyph glyph-name="slash" unicode="/" horiz-adv-x="419" 
d="M-17 -48l339 800h111l-339 -800h-111z" />
    <glyph glyph-name="zero" unicode="0" 
d="M496 330q0 -77 -13 -137.5t-42 -103.5q-27 -48 -70 -74t-103 -26q-65 0 -108.5 29.5t-73.5 82.5q-25 44 -35 101t-10 128q0 64 8 118t27 96q28 60 75 93t117 33q69 0 116 -32t75 -92q20 -43 28.5 -96.5t8.5 -119.5zM370 330q0 49 -2 90.5t-12 77.5q-11 41 -34 60.5
t-54 19.5t-53.5 -19.5t-33.5 -60.5q-10 -36 -12.5 -77.5t-2.5 -90.5q0 -51 2.5 -92.5t12.5 -76.5q11 -41 33.5 -60.5t53.5 -19.5t54 19.5t34 60.5q10 35 12 76.5t2 92.5z" />
    <glyph glyph-name="one" unicode="1" 
d="M226 102v413l-125 -54l-36 88l279 121v-568h142v-102h-405v102h145z" />
    <glyph glyph-name="two" unicode="2" 
d="M254 577q-25 0 -44 -9t-33.5 -23.5t-25.5 -33.5t-19 -39l-99 36q9 29 27 58t45.5 52t66 37.5t89.5 14.5q46 0 86 -14.5t70 -40.5t47 -62t17 -79q0 -62 -34 -117t-94 -121l-119 -134h266v-102h-459v53l214 235q27 30 46 55t31 46.5t17.5 42t5.5 41.5q0 45 -29 74.5
t-72 29.5z" />
    <glyph glyph-name="three" unicode="3" 
d="M496 203q0 -45 -17 -84.5t-47.5 -68t-73.5 -45t-94 -16.5q-83 0 -144.5 40t-85.5 112l105 37q13 -46 45 -72.5t76 -26.5q25 0 46 9.5t36 25.5t23.5 38t8.5 47q0 40 -22 71t-67 46q-17 5 -38 8t-49 3h-33l-5 13l147 217h-254v102h431v-21l-170 -245q46 -6 80.5 -24.5
t57 -44.5t33.5 -57.5t11 -63.5z" />
    <glyph glyph-name="four" unicode="4" 
d="M311 162h-293v52l248 445h126l-225 -398h144v133h119v-133h75v-99h-75v-162h-119v162z" />
    <glyph glyph-name="five" unicode="5" 
d="M496 211q0 -50 -18.5 -91t-50.5 -70t-74.5 -45t-89.5 -16q-39 0 -74.5 9.5t-65.5 28.5t-52 47t-34 66l104 36q13 -46 42.5 -71.5t74.5 -25.5q27 0 49 10.5t37.5 28.5t23.5 41t8 48q0 24 -7.5 47t-22.5 41t-37 29t-51 11q-32 0 -60 -15.5t-48 -38.5l-95 33l64 345h348
v-102h-263l-33 -169q23 14 54.5 22t63.5 8q42 0 79.5 -14.5t66 -41.5t45 -65.5t16.5 -85.5z" />
    <glyph glyph-name="six" unicode="6" 
d="M247 410q27 8 50 8q47 0 85.5 -17t65.5 -45.5t42 -66.5t15 -80q0 -47 -17 -87t-48.5 -69.5t-75 -46.5t-97.5 -17q-51 0 -94 16t-74.5 45t-49 69t-17.5 88q0 42 14 82t40 82l178 288h144zM269 334q-28 0 -49.5 -11t-36.5 -29t-23 -41t-8 -48q0 -55 31.5 -91t85.5 -36
q28 0 50 10.5t37 28t22.5 40.5t7.5 48t-8 48.5t-23 41.5t-36.5 28.5t-49.5 10.5z" />
    <glyph glyph-name="seven" unicode="7" 
d="M40 556v103h479v-11q-11 -25 -34 -75.5t-51.5 -114.5t-60 -134.5t-60 -134t-51.5 -114.5t-34 -75h-134q11 24 31 68t45 97.5t52 112.5t51.5 112.5t44.5 97.5t31 68h-309z" />
    <glyph glyph-name="eight" unicode="8" 
d="M501 179q0 -43 -17 -78t-47.5 -60t-73.5 -38.5t-94 -13.5q-54 0 -97.5 14t-73.5 39.5t-46 60.5t-16 76q0 60 31.5 103t84.5 62q-42 20 -67.5 58t-25.5 88q0 35 13.5 67.5t40 57.5t66 40t90.5 15t90 -15t65.5 -39.5t40 -57t13.5 -68.5q0 -50 -25.5 -88t-67.5 -58
q54 -19 85 -62t31 -103zM268 384q45 0 72 27t27 73q0 39 -24 68.5t-74 29.5q-51 0 -75 -29.5t-24 -68.5q0 -45 26 -72.5t72 -27.5zM268 79q28 0 49 8.5t35 23.5t21 35t7 42t-7 42t-21.5 35.5t-35.5 24.5t-48 9q-28 0 -49 -9t-35.5 -24.5t-21.5 -35.5t-7 -42t7 -42t21.5 -35
t35.5 -23.5t49 -8.5z" />
    <glyph glyph-name="nine" unicode="9" 
d="M291 249q-27 -8 -50 -8q-47 0 -85.5 17t-66 45.5t-42.5 66.5t-15 80q0 47 17 87t48.5 69.5t75.5 46.5t98 17q51 0 94 -16t74.5 -45t49 -69t17.5 -88q0 -42 -14 -82t-40 -82l-178 -288h-144zM269 325q28 0 49.5 11t36.5 29t23 41t8 48q0 55 -31.5 91t-85.5 36
q-28 0 -50 -10.5t-37 -28t-22.5 -40.5t-7.5 -48t8 -48.5t23 -41.5t36.5 -28.5t49.5 -10.5z" />
    <glyph glyph-name="colon" unicode=":" horiz-adv-x="272" 
d="M57 65q0 32 22 54.5t54 22.5q31 0 53 -22.5t22 -54.5t-22 -54t-53 -22q-32 0 -54 22t-22 54zM57 355q0 32 22 54.5t54 22.5q31 0 53 -22.5t22 -54.5t-22 -54t-53 -22q-32 0 -54 22t-22 54z" />
    <glyph glyph-name="semicolon" unicode=";" horiz-adv-x="272" 
d="M98 137h121l-96 -276h-84zM69 355q0 32 22 54.5t54 22.5q31 0 53 -22.5t22 -54.5t-22 -54t-53 -22q-32 0 -54 22t-22 54z" />
    <glyph glyph-name="less" unicode="&#x3c;" horiz-adv-x="595" 
d="M70 207v79l420 190l35 -79l-334 -150q12 -5 38 -17t59 -27t69.5 -32t69.5 -32t59 -26.5t38 -15.5l-34 -81z" />
    <glyph glyph-name="equal" unicode="=" horiz-adv-x="595" 
d="M530 304h-466v90h466v-90zM530 99h-466v91h466v-91z" />
    <glyph glyph-name="greater" unicode="&#x3e;" horiz-adv-x="595" 
d="M523 207q-106 -48 -210.5 -95t-209.5 -95l-35 79l333 150l-332 151q8 20 16.5 39.5t17.5 39.5l420 -189v-80v0z" />
    <glyph glyph-name="question" unicode="?" horiz-adv-x="498" 
d="M326 552q0 37 -25 59.5t-62 22.5q-25 0 -47 -8t-41 -20.5t-35 -28.5t-29 -31q-16 19 -32.5 37t-32.5 37q10 15 30 33.5t48.5 35t65 28t79.5 11.5q42 0 80 -12.5t67.5 -36t47 -56t17.5 -72.5q0 -49 -25 -91.5t-64 -75.5q-26 -22 -42 -40.5t-25 -39t-12.5 -45.5t-3.5 -60
h-114q-2 13 -4.5 29.5t-2.5 36.5q0 32 6.5 56.5t19 44.5t30 38.5t39.5 39.5q26 20 46.5 47t20.5 61zM156 63q0 32 22 54t54 22t54 -22t22 -54t-22 -53t-54 -21t-54 21t-22 53z" />
    <glyph glyph-name="at" unicode="@" horiz-adv-x="798" 
d="M753 408q0 -52 -15.5 -97t-44 -78t-67.5 -51.5t-86 -18.5q-35 0 -64 12t-37 45q-48 -56 -100 -56q-47 0 -77 39t-30 110q0 47 14.5 90.5t38.5 76.5t55 52.5t64 19.5q57 0 76 -50l12 40h76l-47 -224q-5 -26 -7 -38.5t-2 -16.5q0 -14 10.5 -22t34.5 -8q22 0 43.5 12
t37.5 34.5t26 53t10 68.5q0 57 -17 104t-49 80.5t-77 52.5t-102 19q-72 0 -127.5 -26.5t-93.5 -69.5t-57.5 -98t-19.5 -113q0 -62 17.5 -115t54 -93t92 -62.5t130.5 -22.5q52 0 103.5 17t98.5 47l37 -51q-54 -45 -118 -64t-127 -19q-98 0 -169 30t-117 80t-67.5 116
t-21.5 137q0 70 25 138t73.5 121t120 85.5t164.5 32.5q74 0 134.5 -24t103 -67t65.5 -101t23 -127zM437 300q11 28 18 61t8 61q0 26 -10.5 44t-34.5 18q-23 0 -41.5 -17t-31.5 -43t-20 -56.5t-7 -57.5q0 -41 15 -57.5t33 -16.5q28 0 44.5 19t26.5 45z" />
    <glyph glyph-name="A" unicode="A" horiz-adv-x="704" 
d="M491 206h-288l-77 -206h-124l278 717h145l277 -717h-134zM238 301h218l-108 293z" />
    <glyph glyph-name="B" unicode="B" horiz-adv-x="645" 
d="M582 529q0 -45 -27 -89.5t-84 -70.5q34 -13 59 -32.5t41 -42t23.5 -47t7.5 -48.5q0 -38 -15 -73.5t-44 -63.5t-71.5 -45t-97.5 -17h-305v717h301q51 0 90.5 -15.5t66.5 -41.5t41 -60t14 -71zM343 96q33 0 57.5 9.5t40.5 25t24 35t8 40.5q0 48 -35 80t-95 32h-150v-222
h150zM335 407q33 0 56 9.5t37.5 25t21 35.5t6.5 40q0 18 -6.5 36.5t-20.5 33.5t-36.5 24.5t-53.5 9.5h-146v-214h142z" />
    <glyph glyph-name="C" unicode="C" horiz-adv-x="709" 
d="M37 359q0 78 26.5 145.5t74.5 117t114.5 78t145.5 28.5q48 0 91 -10.5t79 -29.5t65 -44t50 -55l-99 -67q-35 49 -84.5 74t-104.5 25q-50 0 -91.5 -19.5t-72 -54.5t-47.5 -83t-17 -105t17 -105.5t47.5 -83.5t72.5 -55t91 -20q55 0 104.5 25t84.5 74l98 -66
q-42 -60 -114.5 -99.5t-169.5 -39.5q-79 0 -145.5 28.5t-114.5 78t-74.5 117.5t-26.5 146z" />
    <glyph glyph-name="D" unicode="D" horiz-adv-x="722" 
d="M686 359q0 -43 -9.5 -85t-28.5 -80t-46.5 -71.5t-63.5 -58.5q-42 -29 -96 -46.5t-126 -17.5h-247v717h243q71 0 125.5 -16t96.5 -42q38 -25 66.5 -59t47.5 -73t28.5 -82t9.5 -86zM555 359q0 69 -24.5 124.5t-66.5 87.5q-30 23 -68.5 35t-83.5 12h-119v-519h118
q48 0 89 13t70 39q40 35 62.5 88.5t22.5 119.5z" />
    <glyph glyph-name="E" unicode="E" horiz-adv-x="578" 
d="M544 0h-475v717h467v-103h-343v-203h225v-103h-225v-205h351v-103z" />
    <glyph glyph-name="F" unicode="F" horiz-adv-x="547" 
d="M193 614v-203h237v-103h-237v-308h-124v717h449v-103h-325z" />
    <glyph glyph-name="G" unicode="G" horiz-adv-x="789" 
d="M750 344q1 -7 1 -13v-13q-1 -65 -27 -124.5t-72 -105t-110.5 -72.5t-142.5 -27q-83 0 -149.5 28.5t-114 78t-73 117t-25.5 145.5t26.5 146t74.5 117.5t114 78t145 28.5q49 0 92 -10.5t80 -29.5t66.5 -44t50.5 -55l-100 -67q-35 49 -85 75.5t-107 26.5q-48 0 -89 -18.5
t-72 -53t-48.5 -84t-17.5 -110.5q0 -57 17.5 -105.5t48.5 -84.5t74.5 -56t96.5 -20q41 0 75.5 12.5t61.5 33.5t46 49.5t28 61.5h-165v95h300v0z" />
    <glyph glyph-name="H" unicode="H" horiz-adv-x="733" 
d="M664 0h-125v308h-346v-308h-124v717h124v-306h346v306h125v-717v0z" />
    <glyph glyph-name="I" unicode="I" horiz-adv-x="262" 
d="M69 0v717h124v-717h-124z" />
    <glyph glyph-name="J" unicode="J" horiz-adv-x="535" 
d="M107 192q49 -93 125 -93q27 0 49 12t35 32q21 34 21 94v480h124v-466q0 -45 -7 -80.5t-24 -69.5q-24 -51 -72.5 -81.5t-120.5 -30.5q-39 0 -74 11t-65 30t-53.5 45t-39.5 56l102 61v0z" />
    <glyph glyph-name="K" unicode="K" horiz-adv-x="631" 
d="M68 0v717h124v-315l267 315h149q-10 -13 -33.5 -40t-53.5 -60.5t-62.5 -70.5t-62.5 -70.5t-53.5 -60.5t-33.5 -40q14 -16 39 -45.5t54.5 -66t62 -76t62 -76t54 -66t39.5 -45.5h-155q-9 12 -30 37.5t-48.5 58t-58 68.5t-58 68.5t-49 58t-29.5 37.5v-328h-124z" />
    <glyph glyph-name="L" unicode="L" horiz-adv-x="536" 
d="M511 0h-442v717h124v-609h318v-108z" />
    <glyph glyph-name="M" unicode="M" horiz-adv-x="831" 
d="M637 0v553l-212 -326h-22l-212 325v-552h-122v717h140l206 -314l209 314h135v-717h-122z" />
    <glyph glyph-name="N" unicode="N" horiz-adv-x="735" 
d="M545 0l-359 539v-539h-117v717h133l345 -525v525h119v-717h-121z" />
    <glyph glyph-name="O" unicode="O" horiz-adv-x="817" 
d="M167 358q0 -55 17.5 -103t49 -84t76 -57t98.5 -21t99 21t76.5 57t49 84t17.5 103t-17.5 103.5t-49 84.5t-76.5 57t-99 21t-98.5 -21t-76 -57t-49 -84.5t-17.5 -103.5zM780 358q0 -70 -25 -136.5t-72.5 -118t-116.5 -83t-158 -31.5t-158 31.5t-116.5 83t-72 118
t-24.5 136.5t24.5 137t72 118.5t116.5 83t158 31.5t158 -31.5t116.5 -83.5t72.5 -118.5t25 -136.5z" />
    <glyph glyph-name="P" unicode="P" horiz-adv-x="616" 
d="M588 499q0 -67 -30 -117.5t-84 -77.5q-27 -14 -61 -23.5t-80 -9.5h-140v-271h-124v717h262q53 0 90 -10t67 -28q47 -28 73.5 -74t26.5 -106zM330 370q31 0 52 7.5t36 21.5q41 38 41 96q0 29 -11.5 53.5t-31.5 41.5q-15 13 -35 20.5t-50 7.5h-138v-248h137z" />
    <glyph glyph-name="Q" unicode="Q" horiz-adv-x="817" 
d="M408 -11q-89 0 -158 31.5t-116.5 83.5t-72 118.5t-24.5 136.5t24.5 137t72 118.5t116.5 83t158 31.5t158 -31.5t116.5 -83.5t72.5 -118.5t25 -136.5q0 -63 -20 -123t-59 -109l78 -62l-58 -76l-90 71q-44 -32 -99.5 -51.5t-123.5 -19.5zM408 95q37 0 69.5 9.5t58.5 26.5
l-86 69l59 75l93 -73q23 32 35.5 72t12.5 85q0 55 -17.5 103t-49 83.5t-76.5 56t-99 20.5t-98.5 -20.5t-76 -56t-48.5 -83.5t-17 -103t17 -103t48.5 -84t76 -56.5t98.5 -20.5z" />
    <glyph glyph-name="R" unicode="R" horiz-adv-x="641" 
d="M303 271h-111v-271h-124v717h277q59 0 104.5 -18t76 -48.5t46.5 -70t16 -82.5q0 -37 -12 -70.5t-33 -61t-50.5 -47.5t-63.5 -30l210 -289h-148zM331 369q31 0 55 10t40 27.5t24 40t8 47.5q0 24 -8 46.5t-23.5 40t-39 27.5t-53.5 10h-142v-249h139z" />
    <glyph glyph-name="S" unicode="S" horiz-adv-x="582" 
d="M543 203q0 -51 -20 -90.5t-54.5 -67t-80 -42t-97.5 -14.5q-46 0 -87.5 10t-76.5 27t-63.5 38.5t-47.5 45.5l71 80q42 -47 96.5 -72.5t107.5 -25.5q57 0 92 26t35 71q0 43 -38.5 69t-105.5 48l-56 18q-90 29 -133.5 74t-43.5 123q0 43 18 81t50.5 66t77 44t98.5 16
q46 0 85 -10t69.5 -25t53 -34t35.5 -37l-71 -82q-34 38 -77.5 61t-94.5 23q-30 0 -52.5 -8t-37.5 -21.5t-22.5 -30t-7.5 -33.5q0 -34 22 -56.5t74 -39.5l83 -28q41 -14 77 -30t63 -39t43 -55.5t16 -79.5z" />
    <glyph glyph-name="T" unicode="T" horiz-adv-x="624" 
d="M604 609h-230v-609h-124v609h-230v108h584v-108z" />
    <glyph glyph-name="U" unicode="U" horiz-adv-x="705" 
d="M637 285q0 -37 -5.5 -70.5t-15.5 -59.5q-15 -38 -41 -68.5t-59.5 -52t-73.5 -33.5t-84 -12q-103 0 -172.5 44t-98.5 124q-8 24 -13 56t-5 73v431h124v-431q0 -34 5 -58.5t13 -41.5q19 -40 55 -65t88 -25t88 24.5t54 66.5q17 32 17 100v430h124v-432v0z" />
    <glyph glyph-name="V" unicode="V" horiz-adv-x="669" 
d="M335 161l201 556h133l-275 -717h-125l-269 717h136z" />
    <glyph glyph-name="W" unicode="W" horiz-adv-x="952" 
d="M951 717l-193 -717h-134l-149 511l-145 -511h-135l-194 717h130l141 -549l154 549h103l155 -550l143 550h124z" />
    <glyph glyph-name="X" unicode="X" horiz-adv-x="688" 
d="M521 0l-182 260l-182 -260h-138l254 361l-246 356h149l172 -246l174 246h134l-242 -346l256 -371h-149z" />
    <glyph glyph-name="Y" unicode="Y" horiz-adv-x="631" 
d="M277 0h-135l120 239l-262 478h141l186 -347l170 347h133z" />
    <glyph glyph-name="Z" unicode="Z" horiz-adv-x="626" 
d="M584 0h-543v113l382 500h-377v104h525v-112l-386 -501h399v-104z" />
    <glyph glyph-name="bracketleft" unicode="[" horiz-adv-x="409" 
d="M359 -210h-267v927h267v-71h-151v-782h151v-74z" />
    <glyph glyph-name="backslash" unicode="\" horiz-adv-x="413" 
d="M324 -45l-339 798h111l339 -798h-111z" />
    <glyph glyph-name="bracketright" unicode="]" horiz-adv-x="409" 
d="M48 -136h151v780h-150v73h266v-927h-267v74z" />
    <glyph glyph-name="asciicircum" unicode="^" horiz-adv-x="587" 
d="M419 316l-127 263l-128 -263h-102l185 370h91l186 -370h-105z" />
    <glyph glyph-name="underscore" unicode="_" horiz-adv-x="504" 
d="M504 -176h-504v92h504v-92z" />
    <glyph glyph-name="grave" unicode="`" horiz-adv-x="353" 
d="M155 726q35 -38 69 -74t69 -73q-14 -15 -27.5 -29.5t-27.5 -28.5l-152 136l69 69v0z" />
    <glyph glyph-name="a" unicode="a" horiz-adv-x="501" 
d="M208 288q32 0 65.5 -10.5t58.5 -28.5v23q0 31 -6.5 49t-18.5 30q-25 25 -71 25q-26 0 -58.5 -9.5t-68.5 -32.5l-41 76q45 29 93.5 42t93.5 13q46 0 84.5 -15t64.5 -43q11 -12 20 -27t14 -34q5 -13 6 -30t1 -42v-274h-108l-3 40q-25 -27 -62 -39t-71 -12q-37 0 -67.5 11
t-52.5 31.5t-34 48t-12 60.5q0 29 11.5 56t33 47.5t54 32.5t74.5 12zM332 141q0 18 -9 31.5t-23 23t-31.5 14.5t-34.5 5q-39 0 -63.5 -20t-24.5 -53q0 -32 24 -52.5t63 -20.5q40 0 69.5 18.5t29.5 53.5z" />
    <glyph glyph-name="b" unicode="b" horiz-adv-x="568" 
d="M535 228q0 -57 -17.5 -101.5t-47 -75t-69 -46.5t-84.5 -16q-26 0 -48.5 6t-41.5 16t-34 22t-24 23l-2 -1l-4 -55h-108v717h116v-318l2 -1q25 29 62.5 48t85.5 19q45 0 84.5 -17t68 -47.5t45 -74.5t16.5 -98zM170 228q0 -71 34.5 -110.5t90.5 -39.5q55 0 88.5 41t33.5 109
q0 69 -34.5 108.5t-87.5 39.5q-61 0 -93 -42.5t-32 -105.5z" />
    <glyph glyph-name="c" unicode="c" horiz-adv-x="490" 
d="M151 227q0 -71 34.5 -110t86.5 -39q38 0 64.5 18t50.5 53l81 -50q-32 -54 -84 -82t-115 -28q-50 0 -93.5 17.5t-75 49t-49.5 75t-18 96.5q0 52 18.5 96t50.5 75.5t75 49t92 17.5q61 0 112.5 -25.5t83.5 -75.5l-80 -54q-20 29 -47.5 47.5t-65.5 18.5q-52 0 -86.5 -40.5
t-34.5 -108.5z" />
    <glyph glyph-name="d" unicode="d" horiz-adv-x="568" 
d="M33 228q0 54 16.5 98t45 74.5t68 47.5t84.5 17q48 0 85.5 -19t62.5 -48l2 1v318h116v-717h-109l-4 55l-2 1q-19 -24 -57.5 -45.5t-90.5 -21.5q-45 0 -84.5 16t-69 46.5t-46.5 75t-17 101.5zM397 228q0 63 -31.5 105.5t-92.5 42.5q-52 0 -87.5 -39.5t-35.5 -108.5
q0 -68 34 -109t89 -41t89.5 39.5t34.5 110.5z" />
    <glyph glyph-name="e" unicode="e" horiz-adv-x="539" 
d="M278 78q35 0 64.5 14t55.5 52l80 -44q-30 -54 -85 -82.5t-121 -28.5q-49 0 -92.5 16.5t-76 47.5t-51.5 75t-19 99q0 49 17 92.5t48.5 75.5t75.5 51t97 19q52 0 95 -17.5t73.5 -50t47.5 -78t17 -102.5v-17h-354q4 -57 41 -89.5t87 -32.5zM386 274q-6 54 -38.5 79.5
t-77.5 25.5q-49 0 -80.5 -30t-38.5 -75h235z" />
    <glyph glyph-name="f" unicode="f" horiz-adv-x="311" 
d="M314 711q-2 -23 -3.5 -45t-3.5 -45q-12 5 -23 6.5t-22 1.5q-35 0 -55 -20.5t-20 -68.5v-85h111v-91h-111v-364h-116v364h-59v91h59v54q0 49 9.5 88.5t30.5 67.5t54 43t80 15q16 0 34.5 -3t34.5 -9z" />
    <glyph glyph-name="g" unicode="g" horiz-adv-x="568" 
d="M513 77q0 -45 -5 -90.5t-28 -88.5q-32 -59 -87.5 -88.5t-121.5 -29.5q-63 0 -119.5 26t-92.5 68q15 18 31 36l32 36q28 -32 68.5 -52.5t78.5 -20.5q70 0 99 45.5t29 130.5q-1 0 -1 0.5t-1 0.5q-9 -10 -23.5 -21t-33 -20t-40.5 -14.5t-47 -5.5q-45 0 -84.5 15.5t-69 46
t-47 74.5t-17.5 101q0 55 17 99.5t46 75.5t68 47.5t83 16.5q31 0 55.5 -7t43 -17.5t31.5 -22.5t22 -23h2l3 60h109v-378zM151 227q0 -34 9 -61.5t25.5 -47.5t39 -31t49.5 -11q56 0 89.5 40t33.5 111q0 31 -8 58.5t-23.5 47.5t-38.5 31.5t-53 11.5q-26 0 -48.5 -10.5t-39 -30
t-26 -47t-9.5 -61.5z" />
    <glyph glyph-name="h" unicode="h" horiz-adv-x="522" 
d="M171 0h-116v717h116v-317v-1q23 27 59 46.5t80 19.5q64 0 108 -39q29 -26 39 -63t10 -97v-266h-115v254q0 29 -2 44.5t-6 26.5q-17 51 -77 51q-26 0 -46.5 -10.5t-33.5 -32.5q-10 -17 -13 -34.5t-3 -45.5v-253z" />
    <glyph glyph-name="i" unicode="i" horiz-adv-x="226" 
d="M55 0v455h116v-455h-116zM43 651q0 29 20.5 49.5t49.5 20.5t49.5 -20.5t20.5 -49.5t-20.5 -49.5t-49.5 -20.5t-49.5 20.5t-20.5 49.5z" />
    <glyph glyph-name="j" unicode="j" horiz-adv-x="226" 
d="M43 651q0 29 20.5 49.5t49.5 20.5t49.5 -20.5t20.5 -49.5t-20.5 -49.5t-49.5 -20.5t-49.5 20.5t-20.5 49.5zM55 455h116v-503q0 -40 -13.5 -72t-37 -54t-55.5 -33.5t-69 -11.5q-8 0 -20.5 0.5t-23.5 2.5v91q8 -1 16 -1h15q31 0 51.5 18t20.5 63v500z" />
    <glyph glyph-name="k" unicode="k" horiz-adv-x="496" 
d="M55 0v717h116v-455l176 193h133l-208 -218l213 -237h-136l-178 203v-203h-116z" />
    <glyph glyph-name="l" unicode="l" horiz-adv-x="226" 
d="M55 0v717h116v-717h-116z" />
    <glyph glyph-name="m" unicode="m" horiz-adv-x="808" 
d="M163 455l4 -56q22 31 59 48.5t81 17.5q42 0 76.5 -17t54.5 -49q25 32 62.5 49t84.5 17q38 0 69 -10.5t53 -34t34 -61t12 -90.5v-269h-116v270q0 53 -18 79.5t-64 26.5q-40 0 -66.5 -25t-26.5 -74v-277h-116v270q0 56 -20 81t-60 25q-46 0 -70.5 -30t-24.5 -80v-266h-116
v455h108z" />
    <glyph glyph-name="n" unicode="n" horiz-adv-x="527" 
d="M355 0v260q0 21 -3 42t-12 37.5t-26 26.5t-45 10q-45 0 -70 -27q-28 -29 -28 -91v-258h-116v455h108l3 -57q9 10 22.5 22t32 22t42.5 16.5t54 6.5q51 0 88 -24.5t54 -78.5q7 -20 10 -47t3 -70v-245h-117z" />
    <glyph glyph-name="o" unicode="o" horiz-adv-x="555" 
d="M33 228q0 49 17 92.5t49 75.5t77 50.5t101 18.5t101 -18.5t77 -50.5t49.5 -75.5t17.5 -92.5q0 -50 -17.5 -93.5t-49.5 -76t-77 -51t-101 -18.5t-101 18.5t-77 51t-49 76t-17 93.5zM277 78q30 0 53.5 12t40 32.5t25 48t8.5 57.5t-8.5 57t-25 47.5t-40 32t-53.5 11.5
t-53 -11.5t-39.5 -32t-25 -47.5t-8.5 -57t8.5 -57.5t25 -48t39.5 -32.5t53 -12z" />
    <glyph glyph-name="p" unicode="p" horiz-adv-x="569" 
d="M535 227q0 -54 -16.5 -97.5t-45.5 -75t-68 -48.5t-85 -17q-48 0 -85.5 19t-61.5 48l-2 -1v-265h-116v665h108l4 -55l2 -2q10 12 25 23.5t34 21.5t42.5 16t49.5 6q44 0 83 -15.5t68.5 -46t46.5 -75t17 -101.5zM171 228q0 -32 8 -59t23.5 -47.5t39 -32t54.5 -11.5
q26 0 48 10.5t38.5 30t26 47.5t9.5 62q0 68 -34 108t-89 40t-89.5 -39t-34.5 -109z" />
    <glyph glyph-name="q" unicode="q" horiz-adv-x="568" 
d="M34 227q0 57 17 101.5t46.5 75t68.5 46t83 15.5q26 0 49 -6t42.5 -16t34.5 -21.5t25 -23.5l2 1l4 56h108v-665h-116v265l-2 1q-24 -29 -61.5 -48t-84.5 -19q-46 0 -85.5 17t-68.5 48.5t-45.5 75t-16.5 97.5zM398 228q0 70 -34.5 109t-89.5 39t-89 -40t-34 -108
q0 -34 9.5 -62t26 -47.5t38.5 -30t48 -10.5q30 0 53.5 11.5t39.5 32t24 47.5t8 59z" />
    <glyph glyph-name="r" unicode="r" horiz-adv-x="367" 
d="M330 346q-17 7 -35 11.5t-33 4.5q-43 0 -67 -32t-24 -95v-235h-116v455h109l3 -58q54 68 121 68q18 0 33.5 -4t30.5 -12l-22 -103v0z" />
    <glyph glyph-name="s" unicode="s" horiz-adv-x="434" 
d="M395 131q0 -29 -12.5 -54.5t-36.5 -45t-58 -31t-76 -11.5q-66 0 -115.5 24.5t-76.5 57.5l58 69q25 -26 61 -47t74 -21q35 0 52 15.5t17 35.5q0 11 -4.5 20t-16.5 17q-11 7 -27 13t-33 11l-32 10q-23 7 -37 13t-27 13q-35 20 -49.5 44.5t-14.5 61.5q0 26 11.5 51t34 44.5
t55.5 31.5t75 12q40 0 71.5 -10.5t53 -23.5t34 -25.5t14.5 -15.5l-60 -64q-18 19 -47.5 37.5t-67.5 18.5q-27 0 -46 -11.5t-19 -34.5q0 -14 9 -24t22 -17q12 -5 24.5 -9.5t30.5 -10.5l33 -11q28 -9 53 -21t44 -31q29 -31 29 -81z" />
    <glyph glyph-name="t" unicode="t" horiz-adv-x="308" 
d="M79 364h-67v91h67v145h116v-145h101v-91h-101v-364h-116v364z" />
    <glyph glyph-name="u" unicode="u" horiz-adv-x="522" 
d="M265 -11q-101 0 -155.5 49.5t-54.5 149.5v267h116v-273q0 -54 24.5 -79t65.5 -25q19 0 35.5 5.5t28.5 18t19 32.5t7 48v273h116v-267q0 -53 -17 -91t-45 -62t-64.5 -35t-75.5 -11z" />
    <glyph glyph-name="v" unicode="v" horiz-adv-x="483" 
d="M479 455l-184 -455h-106l-186 455h125l117 -304l116 304h118z" />
    <glyph glyph-name="w" unicode="w" horiz-adv-x="756" 
d="M752 455l-157 -455h-117l-100 289h-1l-98 -289h-120l-155 455h124l100 -328h1l108 328h87l107 -328h2l101 328h118z" />
    <glyph glyph-name="x" unicode="x" horiz-adv-x="508" 
d="M362 0l-113 150l-117 -150h-120l179 226l-173 229h135l107 -144l112 144h119l-174 -220l179 -235h-134z" />
    <glyph glyph-name="y" unicode="y" horiz-adv-x="483" 
d="M3 455h125l117 -306l116 306h117l-268 -665h-120l95 221z" />
    <glyph glyph-name="z" unicode="z" horiz-adv-x="459" 
d="M425 0h-393v90l247 274h-242v91h378v-89l-247 -275h257v-91z" />
    <glyph glyph-name="braceleft" unicode="{" horiz-adv-x="411" 
d="M134 135q0 47 -26.5 66t-68.5 19v64q3 1 9 1q42 3 64 22t22 69v139q0 52 9 90t32.5 63t64.5 37.5t106 12.5h10v-65q-38 0 -60.5 -7t-34 -20.5t-15 -34.5t-3.5 -49v-138q0 -27 -3 -49.5t-13 -41.5t-27.5 -33.5t-46.5 -25.5q28 -11 45.5 -26.5t27.5 -35.5t13.5 -44t3.5 -50
v-141q0 -24 4 -43t16 -32.5t34.5 -21t58.5 -7.5v-65h-9q-63 0 -104 12t-65 34t-34 53.5t-10 69.5v178z" />
    <glyph glyph-name="bar" unicode="|" horiz-adv-x="267" 
d="M80 -210v967h106v-967h-106z" />
    <glyph glyph-name="braceright" unicode="}" horiz-adv-x="411" 
d="M275 -27q0 -44 -9 -78.5t-32.5 -58t-65 -36t-106.5 -12.5h-9v65q37 0 59.5 7t34.5 21.5t15.5 35t3.5 47.5v134q0 25 3 49t13 44t27.5 36t46.5 27q-48 17 -69 55t-21 95v138q0 28 -3.5 49t-15 34.5t-34 20.5t-60.5 7v65h10q65 0 106.5 -12.5t65 -37.5t32 -63.5t8.5 -89.5
v-124q0 -29 4.5 -48t14.5 -31.5t26.5 -18.5t40.5 -8q6 0 9 -1v-64q-42 0 -68.5 -19.5t-26.5 -72.5v-155z" />
    <glyph glyph-name="asciitilde" unicode="~" horiz-adv-x="587" 
d="M535 283q-9 -23 -23 -45t-32 -39t-40.5 -27t-47.5 -10q-32 0 -58.5 10.5t-50 23.5t-44 23.5t-38.5 10.5q-26 0 -44 -21t-32 -44l-74 50q9 23 23.5 43.5t32.5 36.5t39.5 25t46.5 9q30 0 56.5 -10.5t49.5 -23.5t44 -23.5t41 -10.5q26 0 43.5 20.5t31.5 45.5z" />
    <glyph glyph-name="uni00A0" unicode="&#xa0;" horiz-adv-x="253" 
 />
    <glyph glyph-name="exclamdown" unicode="&#xa1;" horiz-adv-x="293" 
d="M76 -210l19 514h102l19 -514h-140zM222 441q0 -32 -22 -54.5t-54 -22.5q-31 0 -53.5 22.5t-22.5 54.5q0 31 22.5 53t53.5 22q32 0 54 -22t22 -53z" />
    <glyph glyph-name="cent" unicode="&#xa2;" horiz-adv-x="495" 
d="M151 328q0 -40 10.5 -69t27.5 -47.5t38.5 -27.5t44.5 -9q35 0 64.5 20.5t49.5 54.5l83 -51q-26 -42 -65 -68.5t-88 -34.5v-106h-98v107q-41 8 -74 28.5t-57 51t-37 69t-13 83.5q0 44 13.5 83t37.5 69t57.5 51t72.5 29v106h98v-105q47 -9 85.5 -33t64.5 -63l-82 -54
q-17 30 -45.5 49t-64.5 19q-24 0 -46.5 -8.5t-39.5 -27t-27 -47.5t-10 -69z" />
    <glyph glyph-name="sterling" unicode="&#xa3;" 
d="M455 550q-63 24 -105 24q-46 0 -70.5 -26t-32.5 -78l-19 -122h121v-95h-136q-2 -12 -5.5 -32.5t-8 -43t-8.5 -44.5t-7 -37h298v-96h-433v15q14 47 27 109.5t25 128.5h-62v95h77l21 138q14 91 68 137t142 46q39 0 75.5 -8.5t59.5 -18.5l-27 -92v0z" />
    <glyph glyph-name="currency" unicode="&#xa4;" horiz-adv-x="543" 
d="M271 207q26 0 48.5 9.5t39 26t26 38.5t9.5 47q0 24 -9 46t-25.5 38t-38.5 25.5t-49 9.5q-26 0 -48.5 -9.5t-39 -25.5t-26 -37.5t-9.5 -46.5q0 -24 9.5 -46t26 -38.5t38.5 -26.5t48 -10zM271 136q-26 0 -50 7t-51 23l-54 -53l-63 62l54 53q-29 52 -29 101q0 24 7 49t23 50
l-55 55l61 62l56 -55q24 14 50 21t52 7q52 0 101 -28l55 55l62 -62l-54 -55q31 -50 31 -99q0 -52 -31 -101l53 -53l-62 -62l-52 52q-51 -29 -104 -29z" />
    <glyph glyph-name="yen" unicode="&#xa5;" 
d="M530 657q-42 -64 -84 -127t-85 -126h128v-88h-161v-77h161v-87h-161v-152h-120v152h-160v87h160v77h-160v88h129q-11 16 -35 51.5t-51 74.5t-51 74.5t-34 52.5h130q8 -14 27.5 -44t41.5 -63.5t41.5 -64t27.5 -43.5l137 215h119v0z" />
    <glyph glyph-name="brokenbar" unicode="&#xa6;" horiz-adv-x="267" 
d="M80 389v368h106v-368h-106zM80 -210v368h106v-368h-106z" />
    <glyph glyph-name="section" unicode="&#xa7;" 
d="M37 272q0 46 27.5 88.5t64.5 69.5q-32 26 -46 60.5t-14 71.5q0 31 13.5 61t39 53.5t62.5 38t84 14.5q68 0 123.5 -26.5t87.5 -69.5l-60 -71q-32 39 -70 58t-80 19t-65.5 -22.5t-23.5 -54.5q0 -26 15.5 -47t49.5 -36q4 -3 15.5 -7.5t24 -9t24.5 -9t17 -5.5
q40 -14 72.5 -30t55.5 -38.5t35.5 -53.5t12.5 -73q0 -23 -8 -45.5t-20.5 -43t-29 -39t-33.5 -32.5q33 -26 47 -59.5t14 -71.5q0 -36 -15.5 -68t-43.5 -56t-66 -38.5t-83 -14.5q-71 0 -126 29t-93 75l63 73q40 -47 78 -65.5t76 -18.5q40 0 67 22t27 57q0 25 -15 47.5
t-50 38.5q-5 2 -16 6.5t-24 9t-24.5 9t-17.5 6.5q-35 12 -66 28t-54.5 39.5t-37.5 55t-14 75.5zM266 366q-5 2 -22.5 8.5t-37.5 14.5q-26 -19 -45 -49t-19 -59q0 -28 10 -47.5t27 -33t39 -22.5t46 -18q3 -1 11.5 -4t19 -7t20.5 -8t15 -7q27 17 47 48.5t20 60.5
q0 28 -11.5 47.5t-30 33.5t-42 23.5t-47.5 18.5z" />
    <glyph glyph-name="dieresis" unicode="&#xa8;" horiz-adv-x="353" 
d="M6 625q0 26 18.5 43.5t44.5 17.5t44.5 -17.5t18.5 -43.5t-18.5 -43.5t-44.5 -17.5t-44.5 17.5t-18.5 43.5zM220 625q0 26 18.5 43.5t44.5 17.5t44.5 -17.5t18.5 -43.5t-18.5 -43.5t-44.5 -17.5t-44.5 17.5t-18.5 43.5z" />
    <glyph glyph-name="copyright" unicode="&#xa9;" horiz-adv-x="819" 
d="M203 349q0 45 15.5 84.5t43.5 69t66 46t83 16.5q52 0 96.5 -23t70.5 -70l-69 -40q-16 23 -41 41.5t-58 18.5q-23 0 -44 -9t-37 -27t-26 -44.5t-10 -62.5q0 -35 10 -62t26 -45t37 -27.5t44 -9.5q31 0 57 17.5t44 43.5l69 -38q-29 -50 -73 -73t-96 -23q-46 0 -84.5 16.5
t-66 45.5t-42.5 68.5t-15 86.5zM49 349q0 68 24 132.5t70.5 114.5t113.5 80.5t153 30.5q84 0 151 -29.5t113.5 -79t71 -114.5t24.5 -135q0 -74 -26 -139.5t-73.5 -114t-113.5 -76.5t-147 -28q-83 0 -149.5 29t-113.5 78t-72.5 114t-25.5 137zM122 349q0 -58 20 -110
t57 -91.5t90.5 -63t120.5 -23.5q65 0 118 23t90.5 62.5t58 91.5t20.5 111q0 57 -20 108.5t-57 91.5t-90 63.5t-120 23.5q-70 0 -124 -24.5t-90.5 -64.5t-55 -92t-18.5 -106z" />
    <glyph glyph-name="ordfeminine" unicode="&#xaa;" horiz-adv-x="409" 
d="M174 362q-58 0 -93.5 32.5t-35.5 84.5q0 22 8.5 42.5t25.5 36.5t42 25.5t58 9.5q23 0 48.5 -7.5t43.5 -21.5q0 48 -16.5 70.5t-54.5 22.5q-20 0 -44.5 -8t-52.5 -25l-16 30t-17 30q35 23 72 33.5t72 10.5q76 0 111.5 -43.5t35.5 -116.5v-197h-86l-2 28q-20 -18 -48 -27.5
t-51 -9.5zM198 534q-29 0 -47.5 -15t-18.5 -39q0 -25 18 -40t48 -15q29 0 51 14.5t22 40.5q0 13 -6.5 23t-17 17t-23.5 10.5t-26 3.5zM52 304h309v-73h-309v73z" />
    <glyph glyph-name="guillemotleft" unicode="&#xab;" horiz-adv-x="544" 
d="M368 252l117 -145l-68 -50l-157 195l157 196l68 -50zM162 252l118 -145l-68 -50l-157 195l157 196l68 -50z" />
    <glyph glyph-name="logicalnot" unicode="&#xac;" horiz-adv-x="595" 
d="M446 73v160h-382v91h474v-251h-92z" />
    <glyph glyph-name="uni00AD" unicode="&#xad;" horiz-adv-x="370" 
d="M313 193h-256v105h256v-105z" />
    <glyph glyph-name="registered" unicode="&#xae;" horiz-adv-x="819" 
d="M486 135l-95 166h-32v-166h-77v430h140q37 0 64.5 -10.5t46 -28.5t27.5 -41.5t9 -49.5q0 -43 -26.5 -76.5t-72.5 -44.5l107 -179h-91zM487 434q0 29 -17 48.5t-46 19.5h-65v-139h59q29 0 49 19t20 52zM49 349q0 68 24 132.5t70.5 114.5t113.5 80.5t153 30.5
q84 0 151 -29.5t113.5 -79t71 -114.5t24.5 -135q0 -74 -26 -139.5t-73.5 -114t-113.5 -76.5t-147 -28q-83 0 -149.5 29t-113.5 78t-72.5 114t-25.5 137zM122 349q0 -58 20 -110t57 -91.5t90.5 -63t120.5 -23.5q65 0 118 23t90.5 62.5t58 91.5t20.5 111q0 57 -20 108.5
t-57 91.5t-90 63.5t-120 23.5q-70 0 -124 -24.5t-90.5 -64.5t-55 -92t-18.5 -106z" />
    <glyph glyph-name="macron" unicode="&#xaf;" horiz-adv-x="353" 
d="M312 666v-80h-272v80h272z" />
    <glyph glyph-name="degree" unicode="&#xb0;" horiz-adv-x="382" 
d="M346 576q0 -31 -11 -59.5t-31.5 -50t-49.5 -34t-64 -12.5t-63.5 12.5t-48.5 34t-31 49.5t-11 59t11 59t31.5 49.5t49 34t63.5 12.5t63.5 -12.5t49 -34t31.5 -49.5t11 -58zM275 575q0 35 -22.5 61t-61.5 26t-61.5 -26t-22.5 -61q0 -34 23 -60t61 -26q39 0 61.5 26t22.5 60
z" />
    <glyph glyph-name="plusminus" unicode="&#xb1;" horiz-adv-x="595" 
d="M527 306h-183v-185h-93v185h-184v91h184v184h93v-184h183v-91zM527 91v-91h-460v91h460z" />
    <glyph glyph-name="uni00B2" unicode="&#xb2;" horiz-adv-x="360" 
d="M177 657q-24 0 -41 -16.5t-29 -48.5l-74 26q15 48 54.5 79t94.5 31q63 0 101.5 -34.5t38.5 -88.5q0 -22 -8 -43t-21.5 -41t-32 -40.5t-38.5 -41.5l-44 -46h152v-70h-289v38l123 132q33 35 49.5 60t16.5 49q0 26 -15.5 40.5t-37.5 14.5z" />
    <glyph glyph-name="uni00B3" unicode="&#xb3;" horiz-adv-x="360" 
d="M322 447q0 -31 -12.5 -55.5t-32.5 -41t-47 -25t-55 -8.5q-51 0 -89 26t-54 73l74 26q9 -28 27.5 -43.5t41.5 -15.5q26 0 43 18t17 44q0 35 -28 50t-69 15h-25l-3 14l83 123h-145v70h269v-17l-100 -143q48 -8 76.5 -38t28.5 -72z" />
    <glyph glyph-name="acute" unicode="&#xb4;" horiz-adv-x="353" 
d="M200 726l68 -69q-38 -34 -75.5 -68t-75.5 -68q-14 15 -27.5 29t-27.5 29z" />
    <glyph glyph-name="uni00B5" unicode="&#xb5;" 
d="M248 74q41 0 67.5 26t31.5 61l40 294h116l-45 -320q-2 -12 -3.5 -23t-1.5 -16q0 -14 8.5 -19.5t21.5 -5.5q5 0 11 1.5t11 3.5l5 -69q-17 -8 -40 -12.5t-43 -4.5q-29 0 -50 12t-32 34q-22 -20 -48.5 -32.5t-57.5 -12.5q-30 0 -56 9.5t-44 29.5l-29 -240h-108l90 665h116
l-38 -263q-2 -17 -3.5 -28t-1.5 -20q0 -29 22 -49.5t61 -20.5z" />
    <glyph glyph-name="paragraph" unicode="&#xb6;" horiz-adv-x="687" 
d="M572 650v-860h-83v860h-104v-860h-83v401q-62 0 -112.5 18.5t-86.5 53t-56 83t-20 108.5q0 55 18.5 103.5t53 83.5t85 55.5t115.5 20.5h321v-67h-48z" />
    <glyph glyph-name="periodcentered" unicode="&#xb7;" horiz-adv-x="246" 
d="M48 358q0 32 22 54.5t54 22.5q31 0 53 -22.5t22 -54.5t-22 -54t-53 -22q-32 0 -54 22t-22 54z" />
    <glyph glyph-name="cedilla" unicode="&#xb8;" horiz-adv-x="353" 
d="M199 -27q42 -7 60.5 -31.5t18.5 -53.5q0 -44 -35.5 -71.5t-93.5 -27.5q-16 0 -35.5 4.5t-37.5 12.5l18 59q14 -6 25.5 -9t25.5 -3q17 0 29 8.5t12 23.5q0 21 -23.5 28.5t-54.5 9.5l20 77h78z" />
    <glyph glyph-name="uni00B9" unicode="&#xb9;" horiz-adv-x="360" 
d="M147 397v215l-78 -33l-27 67l193 83v-332h83v-74h-263v74h92z" />
    <glyph glyph-name="ordmasculine" unicode="&#xba;" horiz-adv-x="437" 
d="M128 546q0 -27 7.5 -48t20.5 -34.5t29.5 -20.5t33.5 -7q38 0 64.5 29.5t26.5 80.5q0 27 -7.5 47.5t-20 34.5t-28.5 21t-34 7q-42 0 -66 -30t-26 -80zM33 546q0 43 15.5 77t41 57t59 35.5t70.5 12.5q36 0 70 -12.5t59.5 -35.5t41 -57t15.5 -77q0 -44 -15.5 -77.5t-41 -57
t-59 -35.5t-70.5 -12q-36 0 -70 12t-59.5 35.5t-41 57t-15.5 77.5zM42 305h355v-74h-355v74z" />
    <glyph glyph-name="guillemotright" unicode="&#xbb;" horiz-adv-x="544" 
d="M172 252l-117 146l68 50l157 -196l-157 -195l-68 50zM378 252l-118 146l69 50l157 -196l-157 -195l-69 50z" />
    <glyph glyph-name="onequarter" unicode="&#xbc;" horiz-adv-x="490" 
d="M262 -115h-189v16l135 282h92l-112 -230h74v92h86v-92h49v-68h-49v-94h-86v94zM292 730v-401h-88v285l-78 -34l-27 67zM59 290h370v-70h-370v70z" />
    <glyph glyph-name="onehalf" unicode="&#xbd;" horiz-adv-x="490" 
d="M107 -209v38l124 132q33 35 48 58.5t15 46.5q0 25 -15 41t-35 16q-24 0 -41 -16.5t-29 -47.5q-18 6 -36.5 12t-36.5 13q14 48 53.5 79t94.5 31q63 0 101.5 -35t38.5 -89q0 -22 -8 -42t-21.5 -39.5t-32 -39.5t-38.5 -41l-44 -47h152v-70h-290zM292 730v-397h-88v282
l-78 -34l-27 67zM59 293h370v-70h-370v70z" />
    <glyph glyph-name="threequarters" unicode="&#xbe;" horiz-adv-x="490" 
d="M177 524l83 123h-145v70h268v-17l-99 -143q48 -8 76 -37.5t28 -71.5q0 -32 -12 -56t-32.5 -40.5t-46.5 -25t-54 -8.5q-51 0 -89.5 26t-53.5 73q18 6 36.5 12t37.5 13q8 -28 26.5 -43.5t41.5 -15.5q27 0 43.5 18t16.5 44q0 35 -28 50t-69 15h-25zM60 287h369v-70h-369v70z
M263 -117h-189v16l135 283h91l-112 -230h75v92h85v-92h50v-69h-50v-93h-85v93z" />
    <glyph glyph-name="questiondown" unicode="&#xbf;" horiz-adv-x="498" 
d="M172 -46q0 -37 24.5 -59t61.5 -22q25 0 47.5 8t41.5 20.5t34.5 28t28.5 30.5q16 -19 32.5 -37t33.5 -37q-10 -15 -30 -34t-48.5 -35.5t-65 -27.5t-79.5 -11q-47 0 -86 14t-67.5 39.5t-44 61t-15.5 79.5q3 36 20.5 67t46.5 60l7 7q31 30 50 50.5t29.5 40t14.5 44.5t4 64
h114q2 -13 5 -29.5t3 -36.5q0 -33 -8 -58t-21.5 -46t-31.5 -40t-39 -39l-8 -6q-22 -20 -38 -42t-16 -54zM342 439q0 -32 -22 -54.5t-54 -22.5q-31 0 -53 22.5t-22 54.5q0 31 22 53t53 22q32 0 54 -22t22 -53z" />
    <glyph glyph-name="Agrave" unicode="&#xc0;" horiz-adv-x="704" 
d="M490 206h-288l-77 -206h-124l278 717h145l277 -717h-134zM237 301h218l-108 293zM435 826l-40 -68l-186 99l51 83z" />
    <glyph glyph-name="Aacute" unicode="&#xc1;" horiz-adv-x="704" 
d="M490 206h-288l-77 -206h-124l278 717h145l277 -717h-134zM237 301h218l-108 293zM431 940l51 -83l-186 -98l-40 68z" />
    <glyph glyph-name="Acircumflex" unicode="&#xc2;" horiz-adv-x="704" 
d="M490 206h-288l-77 -206h-124l278 717h145l277 -717h-134zM237 301h218l-108 293zM493 821l-51 -62l-94 76l-94 -76l-51 62l145 119z" />
    <glyph glyph-name="Atilde" unicode="&#xc3;" horiz-adv-x="704" 
d="M490 206h-288l-77 -206h-124l278 717h145l277 -717h-134zM237 301h218l-108 293zM402 867q14 0 23.5 13t16.5 34l66 -22q-5 -48 -31 -80t-69 -32q-16 0 -31.5 6.5t-34.5 17.5q-16 8 -26.5 13.5t-19.5 5.5q-15 0 -24 -14t-16 -34l-66 22q7 49 32.5 80.5t67.5 31.5
q16 0 31 -6t34 -17q15 -8 26 -13.5t21 -5.5z" />
    <glyph glyph-name="Adieresis" unicode="&#xc4;" horiz-adv-x="704" 
d="M490 206h-288l-77 -206h-124l278 717h145l277 -717h-134zM237 301h218l-108 293zM183 834q0 26 18 43.5t44 17.5t44 -17.5t18 -43.5t-18 -43.5t-44 -17.5t-44 17.5t-18 43.5zM391 834q0 26 18 43.5t44 17.5t44 -17.5t18 -43.5t-18 -43.5t-44 -17.5t-44 17.5t-18 43.5z
" />
    <glyph glyph-name="Aring" unicode="&#xc5;" horiz-adv-x="704" 
d="M490 206h-288l-77 -206h-124l278 717h145l277 -717h-134zM237 301h218l-108 293zM450 841q0 -23 -8.5 -41t-22.5 -31t-32 -20t-38 -7t-38 7t-32 20t-22.5 31.5t-8.5 41.5q0 22 8.5 40.5t22.5 31t32 19.5t38 7t38 -7t32 -20t22.5 -31.5t8.5 -40.5zM396 841q0 23 -13.5 36
t-32.5 13t-33.5 -13t-14.5 -36t14.5 -36.5t33.5 -13.5t32.5 13.5t13.5 36.5z" />
    <glyph glyph-name="AE" unicode="&#xc6;" horiz-adv-x="1012" 
d="M490 206h-288l-77 -206h-123l280 717h453l36 -99h-307l82 -209h193l37 -98h-194l84 -212h307l38 -99h-444zM237 301h219q-9 24 -23.5 64t-30 82.5t-30.5 82.5l-24 64z" />
    <glyph glyph-name="Ccedilla" unicode="&#xc7;" horiz-adv-x="709" 
d="M37 359q0 78 26.5 145.5t74.5 117t114.5 78t145.5 28.5q48 0 91 -10.5t79 -29.5t65 -44t50 -55l-99 -67q-35 49 -84.5 74t-104.5 25q-50 0 -91.5 -19.5t-72 -54.5t-47.5 -83t-17 -105t17 -105t47.5 -83.5t72.5 -55t91 -19.5q55 0 104.5 25t84.5 74l98 -66
q-40 -57 -107 -95.5t-156 -43.5l-5 -17q42 -7 60.5 -31.5t18.5 -53.5q0 -44 -35.5 -71.5t-92.5 -27.5q-16 0 -35 4.5t-37 12.5l17 59q14 -6 25.5 -9t25.5 -3q17 0 29 8.5t12 23.5q0 21 -23 28.5t-55 9.5l18 71q-68 9 -124.5 40.5t-96.5 80t-62 111t-22 133.5z" />
    <glyph glyph-name="Egrave" unicode="&#xc8;" horiz-adv-x="578" 
d="M543 0h-475v717h467v-103h-343v-203h225v-103h-225v-205h351v-103zM397 826l-40 -68l-186 99l51 83z" />
    <glyph glyph-name="Eacute" unicode="&#xc9;" horiz-adv-x="578" 
d="M543 0h-475v717h467v-103h-343v-203h225v-103h-225v-205h351v-103zM375 940l51 -83l-186 -98l-40 68z" />
    <glyph glyph-name="Ecircumflex" unicode="&#xca;" horiz-adv-x="578" 
d="M543 0h-475v717h467v-103h-343v-203h225v-103h-225v-205h351v-103zM441 821l-51 -62l-94 76l-94 -76l-51 62l145 119z" />
    <glyph glyph-name="Edieresis" unicode="&#xcb;" horiz-adv-x="578" 
d="M543 0h-475v717h467v-103h-343v-203h225v-103h-225v-205h351v-103zM131 834q0 26 18 43.5t44 17.5t44 -17.5t18 -43.5t-18 -43.5t-44 -17.5t-44 17.5t-18 43.5zM339 834q0 26 18 43.5t44 17.5t44 -17.5t18 -43.5t-18 -43.5t-44 -17.5t-44 17.5t-18 43.5z" />
    <glyph glyph-name="Igrave" unicode="&#xcc;" horiz-adv-x="262" 
d="M68 0v717h124v-717h-124zM217 826l-40 -68l-186 99l51 83z" />
    <glyph glyph-name="Iacute" unicode="&#xcd;" horiz-adv-x="262" 
d="M68 0v717h124v-717h-124zM217 940l51 -83l-186 -98l-40 68z" />
    <glyph glyph-name="Icircumflex" unicode="&#xce;" horiz-adv-x="262" 
d="M68 0v717h124v-717h-124zM275 821l-51 -62l-94 76l-94 -76l-51 62l145 119z" />
    <glyph glyph-name="Idieresis" unicode="&#xcf;" horiz-adv-x="262" 
d="M68 0v717h124v-717h-124zM-35 834q0 26 18 43.5t44 17.5t44 -17.5t18 -43.5t-18 -43.5t-44 -17.5t-44 17.5t-18 43.5zM173 834q0 26 18 43.5t44 17.5t44 -17.5t18 -43.5t-18 -43.5t-44 -17.5t-44 17.5t-18 43.5z" />
    <glyph glyph-name="Eth" unicode="&#xd0;" horiz-adv-x="723" 
d="M686 367q0 -74 -22.5 -141t-67 -117t-110.5 -79.5t-154 -29.5h-263v315h-72v90h72v312h267q94 0 160.5 -31t108.5 -80.5t61.5 -112.5t19.5 -126zM556 367q0 56 -15.5 102.5t-44 79.5t-69.5 51t-91 18h-143v-213h154v-90h-154v-216h135q50 0 92 17.5t72 51t47 83.5t17 116
z" />
    <glyph glyph-name="Ntilde" unicode="&#xd1;" horiz-adv-x="735" 
d="M544 0l-359 539v-539h-117v717h133l345 -525v525h119v-717h-121zM425 867q14 0 23.5 13t16.5 34l66 -22q-5 -48 -31 -80t-69 -32q-16 0 -31.5 6.5t-34.5 17.5q-16 8 -26.5 13.5t-19.5 5.5q-15 0 -24 -14t-16 -34l-66 22q7 49 32.5 80.5t67.5 31.5q16 0 31 -6t34 -17
q15 -8 26 -13.5t21 -5.5z" />
    <glyph glyph-name="Ograve" unicode="&#xd2;" horiz-adv-x="817" 
d="M167 358q0 -55 17.5 -103t49 -84t76 -57t98.5 -21t99 21t76.5 57t49 84t17.5 103t-17.5 103.5t-49 84.5t-76.5 57t-99 21t-98.5 -21t-76 -57t-49 -84.5t-17.5 -103.5zM780 358q0 -70 -25 -136.5t-72.5 -118t-116.5 -83t-158 -31.5t-158 31.5t-116.5 83t-72 118
t-24.5 136.5t24.5 137t72 118.5t116.5 83t158 31.5t158 -31.5t116.5 -83.5t72.5 -118.5t25 -136.5zM495 826l-40 -68l-186 99l51 83z" />
    <glyph glyph-name="Oacute" unicode="&#xd3;" horiz-adv-x="817" 
d="M167 358q0 -55 17.5 -103t49 -84t76 -57t98.5 -21t99 21t76.5 57t49 84t17.5 103t-17.5 103.5t-49 84.5t-76.5 57t-99 21t-98.5 -21t-76 -57t-49 -84.5t-17.5 -103.5zM780 358q0 -70 -25 -136.5t-72.5 -118t-116.5 -83t-158 -31.5t-158 31.5t-116.5 83t-72 118
t-24.5 136.5t24.5 137t72 118.5t116.5 83t158 31.5t158 -31.5t116.5 -83.5t72.5 -118.5t25 -136.5zM487 940l51 -83l-186 -98l-40 68z" />
    <glyph glyph-name="Ocircumflex" unicode="&#xd4;" horiz-adv-x="817" 
d="M167 358q0 -55 17.5 -103t49 -84t76 -57t98.5 -21t99 21t76.5 57t49 84t17.5 103t-17.5 103.5t-49 84.5t-76.5 57t-99 21t-98.5 -21t-76 -57t-49 -84.5t-17.5 -103.5zM780 358q0 -70 -25 -136.5t-72.5 -118t-116.5 -83t-158 -31.5t-158 31.5t-116.5 83t-72 118
t-24.5 136.5t24.5 137t72 118.5t116.5 83t158 31.5t158 -31.5t116.5 -83.5t72.5 -118.5t25 -136.5zM550 821l-51 -62l-94 76l-94 -76l-51 62l145 119z" />
    <glyph glyph-name="Otilde" unicode="&#xd5;" horiz-adv-x="817" 
d="M167 358q0 -55 17.5 -103t49 -84t76 -57t98.5 -21t99 21t76.5 57t49 84t17.5 103t-17.5 103.5t-49 84.5t-76.5 57t-99 21t-98.5 -21t-76 -57t-49 -84.5t-17.5 -103.5zM780 358q0 -70 -25 -136.5t-72.5 -118t-116.5 -83t-158 -31.5t-158 31.5t-116.5 83t-72 118
t-24.5 136.5t24.5 137t72 118.5t116.5 83t158 31.5t158 -31.5t116.5 -83.5t72.5 -118.5t25 -136.5zM458 867q14 0 23.5 13t16.5 34l66 -22q-5 -48 -31 -80t-69 -32q-16 0 -31.5 6.5t-34.5 17.5q-16 8 -26.5 13.5t-19.5 5.5q-15 0 -24 -14t-16 -34l-66 22q7 49 32.5 80.5
t67.5 31.5q16 0 31 -6t34 -17q15 -8 26 -13.5t21 -5.5z" />
    <glyph glyph-name="Odieresis" unicode="&#xd6;" horiz-adv-x="817" 
d="M166 358q0 -55 17.5 -103t49 -84t76 -57t98.5 -21t99 21t76.5 57t49 84t17.5 103t-17.5 103.5t-49 84.5t-76.5 57t-99 21t-98.5 -21t-76 -57t-49 -84.5t-17.5 -103.5zM779 358q0 -70 -25 -136.5t-72.5 -118t-116.5 -83t-158 -31.5t-158 31.5t-116.5 83t-72 118
t-24.5 136.5t24.5 137t72 118.5t116.5 83t158 31.5t158 -31.5t116.5 -83.5t72.5 -118.5t25 -136.5zM239 834q0 26 18 43.5t44 17.5t44 -17.5t18 -43.5t-18 -43.5t-44 -17.5t-44 17.5t-18 43.5zM447 834q0 26 18 43.5t44 17.5t44 -17.5t18 -43.5t-18 -43.5t-44 -17.5
t-44 17.5t-18 43.5z" />
    <glyph glyph-name="multiply" unicode="&#xd7;" horiz-adv-x="595" 
d="M83 395l65 63l148 -148l148 149l66 -64l-150 -149l150 -149l-65 -64l-149 149l-148 -149l-65 64l150 149z" />
    <glyph glyph-name="Oslash" unicode="&#xd8;" horiz-adv-x="817" 
d="M408 -11q-58 0 -107.5 13.5t-89.5 38.5l-55 -70l-59 45l54 70q-56 54 -85 125t-29 147q0 70 24.5 137t72 118.5t116.5 83t158 31.5q58 0 106.5 -13.5t89.5 -37.5l55 70l61 -47l-55 -69q56 -53 85.5 -125t29.5 -148q0 -70 -25 -136.5t-72.5 -118t-116.5 -83t-158 -31.5z
M167 358q0 -51 14.5 -97t43.5 -80l311 406q-27 17 -59 27t-69 10q-54 0 -98.5 -21t-76 -57t-49 -84.5t-17.5 -103.5zM408 93q54 0 99 21t76.5 57t49 84t17.5 103q0 50 -15 98t-44 81l-312 -407q26 -17 58.5 -27t70.5 -10z" />
    <glyph glyph-name="Ugrave" unicode="&#xd9;" horiz-adv-x="705" 
d="M636 285q0 -37 -5.5 -70.5t-15.5 -59.5q-15 -38 -41 -68.5t-59.5 -52t-73.5 -33.5t-84 -12q-103 0 -172.5 44t-98.5 124q-8 24 -13 56t-5 73v431h124v-431q0 -34 5 -58.5t13 -41.5q19 -40 55 -65t88 -25t88 24.5t54 66.5q17 32 17 100v430h124v-432zM438 826l-40 -68
l-186 99l51 83z" />
    <glyph glyph-name="Uacute" unicode="&#xda;" horiz-adv-x="705" 
d="M636 285q0 -37 -5.5 -70.5t-15.5 -59.5q-15 -38 -41 -68.5t-59.5 -52t-73.5 -33.5t-84 -12q-103 0 -172.5 44t-98.5 124q-8 24 -13 56t-5 73v431h124v-431q0 -34 5 -58.5t13 -41.5q19 -40 55 -65t88 -25t88 24.5t54 66.5q17 32 17 100v430h124v-432zM432 940l51 -83
l-186 -98l-40 68z" />
    <glyph glyph-name="Ucircumflex" unicode="&#xdb;" horiz-adv-x="705" 
d="M636 285q0 -37 -5.5 -70.5t-15.5 -59.5q-15 -38 -41 -68.5t-59.5 -52t-73.5 -33.5t-84 -12q-103 0 -172.5 44t-98.5 124q-8 24 -13 56t-5 73v431h124v-431q0 -34 5 -58.5t13 -41.5q19 -40 55 -65t88 -25t88 24.5t54 66.5q17 32 17 100v430h124v-432zM493 821l-51 -62
l-94 76l-94 -76l-51 62l145 119z" />
    <glyph glyph-name="Udieresis" unicode="&#xdc;" horiz-adv-x="705" 
d="M636 285q0 -37 -5.5 -70.5t-15.5 -59.5q-15 -38 -41 -68.5t-59.5 -52t-73.5 -33.5t-84 -12q-103 0 -172.5 44t-98.5 124q-8 24 -13 56t-5 73v431h124v-431q0 -34 5 -58.5t13 -41.5q19 -40 55 -65t88 -25t88 24.5t54 66.5q17 32 17 100v430h124v-432zM184 834
q0 26 18 43.5t44 17.5t44 -17.5t18 -43.5t-18 -43.5t-44 -17.5t-44 17.5t-18 43.5zM392 834q0 26 18 43.5t44 17.5t44 -17.5t18 -43.5t-18 -43.5t-44 -17.5t-44 17.5t-18 43.5z" />
    <glyph glyph-name="Yacute" unicode="&#xdd;" horiz-adv-x="631" 
d="M276 0h-135l120 239l-262 478h141l186 -347l170 347h133zM389 940l51 -83l-186 -98l-40 68z" />
    <glyph glyph-name="Thorn" unicode="&#xde;" horiz-adv-x="624" 
d="M589 359q0 -106 -65 -167t-189 -61h-142v-131h-124v717h124v-142h141q60 0 107 -15.5t80 -44t50.5 -68.5t17.5 -88zM331 228q33 0 57 10t40 27t24 39.5t8 48.5q0 24 -8 46.5t-24.5 40t-40.5 27.5t-55 10h-139v-249h138z" />
    <glyph glyph-name="germandbls" unicode="&#xdf;" horiz-adv-x="564" 
d="M531 198q0 -42 -13.5 -79.5t-39.5 -65.5t-64 -44.5t-87 -16.5q-26 0 -55 6t-54 17l13 81q13 -7 32 -13t36 -6q28 0 49.5 10t36.5 27t22.5 40t7.5 49q0 25 -7 48.5t-21.5 41.5t-36.5 28.5t-51 10.5h-63v82h43q23 0 41.5 9.5t31.5 26t20 38t7 46.5q0 22 -6.5 41t-19 33.5
t-31.5 23t-44 8.5t-46.5 -9.5t-35.5 -28.5q-13 -18 -19.5 -42.5t-6.5 -62.5v-497h-115v489q0 65 17 109t52 73q29 29 69 42.5t87 13.5q46 0 84.5 -13t67 -38t44.5 -60t16 -78q0 -46 -26.5 -90t-82.5 -66q39 -8 67 -26.5t46 -43.5t26.5 -54.5t8.5 -59.5z" />
    <glyph glyph-name="agrave" unicode="&#xe0;" horiz-adv-x="501" 
d="M207 288q32 0 65.5 -10.5t58.5 -28.5v23q0 31 -6.5 49t-18.5 30q-25 25 -71 25q-26 0 -58.5 -9.5t-68.5 -32.5l-41 76q45 29 93.5 42t93.5 13q46 0 84.5 -15t64.5 -43q11 -12 20 -27t14 -34q5 -13 6 -30t1 -42v-274h-108l-3 40q-25 -27 -62 -39t-71 -12q-37 0 -67.5 11
t-52.5 31.5t-34 48t-12 60.5q0 29 11.5 56t33 47.5t54 32.5t74.5 12zM331 141q0 18 -9 31.5t-23 23t-31.5 14.5t-34.5 5q-39 0 -63.5 -20t-24.5 -53q0 -32 24 -52.5t63 -20.5q40 0 69.5 18.5t29.5 53.5zM207 726q35 -38 69 -74t69 -73q-14 -15 -27.5 -29.5t-27.5 -28.5
l-152 136z" />
    <glyph glyph-name="aacute" unicode="&#xe1;" horiz-adv-x="501" 
d="M207 288q32 0 65.5 -10.5t58.5 -28.5v23q0 31 -6.5 49t-18.5 30q-25 25 -71 25q-26 0 -58.5 -9.5t-68.5 -32.5l-41 76q45 29 93.5 42t93.5 13q46 0 84.5 -15t64.5 -43q11 -12 20 -27t14 -34q5 -13 6 -30t1 -42v-274h-108l-3 40q-25 -27 -62 -39t-71 -12q-37 0 -67.5 11
t-52.5 31.5t-34 48t-12 60.5q0 29 11.5 56t33 47.5t54 32.5t74.5 12zM331 141q0 18 -9 31.5t-23 23t-31.5 14.5t-34.5 5q-39 0 -63.5 -20t-24.5 -53q0 -32 24 -52.5t63 -20.5q40 0 69.5 18.5t29.5 53.5zM303 726l68 -69q-38 -34 -75.5 -68t-75.5 -68q-14 15 -27.5 29
t-27.5 29z" />
    <glyph glyph-name="acircumflex" unicode="&#xe2;" horiz-adv-x="501" 
d="M207 288q32 0 65.5 -10.5t58.5 -28.5v23q0 31 -6.5 49t-18.5 30q-25 25 -71 25q-26 0 -58.5 -9.5t-68.5 -32.5l-41 76q45 29 93.5 42t93.5 13q46 0 84.5 -15t64.5 -43q11 -12 20 -27t14 -34q5 -13 6 -30t1 -42v-274h-108l-3 40q-25 -27 -62 -39t-71 -12q-37 0 -67.5 11
t-52.5 31.5t-34 48t-12 60.5q0 29 11.5 56t33 47.5t54 32.5t74.5 12zM331 141q0 18 -9 31.5t-23 23t-31.5 14.5t-34.5 5q-39 0 -63.5 -20t-24.5 -53q0 -32 24 -52.5t63 -20.5q40 0 69.5 18.5t29.5 53.5zM391 585l-60 -56l-86 84l-84 -84l-61 56l145 139z" />
    <glyph glyph-name="atilde" unicode="&#xe3;" horiz-adv-x="501" 
d="M207 288q32 0 65.5 -10.5t58.5 -28.5v23q0 31 -6.5 49t-18.5 30q-25 25 -71 25q-26 0 -58.5 -9.5t-68.5 -32.5l-41 76q45 29 93.5 42t93.5 13q46 0 84.5 -15t64.5 -43q11 -12 20 -27t14 -34q5 -13 6 -30t1 -42v-274h-108l-3 40q-25 -27 -62 -39t-71 -12q-37 0 -67.5 11
t-52.5 31.5t-34 48t-12 60.5q0 29 11.5 56t33 47.5t54 32.5t74.5 12zM331 141q0 18 -9 31.5t-23 23t-31.5 14.5t-34.5 5q-39 0 -63.5 -20t-24.5 -53q0 -32 24 -52.5t63 -20.5q40 0 69.5 18.5t29.5 53.5zM297 651q14 0 23.5 13t16.5 35l66 -23q-5 -48 -31 -79.5t-69 -31.5
q-17 0 -32.5 6t-34.5 17q-15 8 -25.5 13.5t-19.5 5.5q-15 0 -24 -14t-16 -34l-66 22q7 49 32.5 80.5t67.5 31.5q16 0 31 -6t35 -18l25 -12.5t21 -5.5z" />
    <glyph glyph-name="adieresis" unicode="&#xe4;" horiz-adv-x="501" 
d="M207 288q32 0 65.5 -10.5t58.5 -28.5v23q0 31 -6.5 49t-18.5 30q-25 25 -71 25q-26 0 -58.5 -9.5t-68.5 -32.5l-41 76q45 29 93.5 42t93.5 13q46 0 84.5 -15t64.5 -43q11 -12 20 -27t14 -34q5 -13 6 -30t1 -42v-274h-108l-3 40q-25 -27 -62 -39t-71 -12q-37 0 -67.5 11
t-52.5 31.5t-34 48t-12 60.5q0 29 11.5 56t33 47.5t54 32.5t74.5 12zM331 141q0 18 -9 31.5t-23 23t-31.5 14.5t-34.5 5q-39 0 -63.5 -20t-24.5 -53q0 -32 24 -52.5t63 -20.5q40 0 69.5 18.5t29.5 53.5zM75 625q0 26 18.5 43.5t44.5 17.5t44.5 -17.5t18.5 -43.5t-18.5 -43.5
t-44.5 -17.5t-44.5 17.5t-18.5 43.5zM289 625q0 26 18.5 43.5t44.5 17.5t44.5 -17.5t18.5 -43.5t-18.5 -43.5t-44.5 -17.5t-44.5 17.5t-18.5 43.5z" />
    <glyph glyph-name="aring" unicode="&#xe5;" horiz-adv-x="501" 
d="M207 288q32 0 65.5 -10.5t58.5 -28.5v23q0 31 -6.5 49t-18.5 30q-25 25 -71 25q-26 0 -58.5 -9.5t-68.5 -32.5l-41 76q45 29 93.5 42t93.5 13q46 0 84.5 -15t64.5 -43q11 -12 20 -27t14 -34q5 -13 6 -30t1 -42v-274h-108l-3 40q-25 -27 -62 -39t-71 -12q-37 0 -67.5 11
t-52.5 31.5t-34 48t-12 60.5q0 29 11.5 56t33 47.5t54 32.5t74.5 12zM331 141q0 18 -9 31.5t-23 23t-31.5 14.5t-34.5 5q-39 0 -63.5 -20t-24.5 -53q0 -32 24 -52.5t63 -20.5q40 0 69.5 18.5t29.5 53.5zM346 626q0 -23 -8.5 -41.5t-22.5 -31.5t-32 -20t-38 -7t-38 7
t-32 20.5t-22.5 31.5t-8.5 41t8.5 41t22.5 31t32 19.5t38 6.5t38 -7t32 -19.5t22.5 -31t8.5 -40.5zM292 626q0 23 -13.5 36t-32.5 13t-33.5 -13.5t-14.5 -36.5t14.5 -36.5t33.5 -13.5t32.5 14t13.5 37z" />
    <glyph glyph-name="ae" unicode="&#xe6;" horiz-adv-x="796" 
d="M539 -10q-51 0 -93 19t-71 58q-15 -20 -34.5 -34.5t-42 -24t-46.5 -14t-47 -4.5q-36 0 -67.5 10t-54.5 29t-36 45t-13 58q0 27 10 52.5t32.5 45.5t57 32t84.5 12h109q-1 45 -23 73.5t-67 28.5q-29 0 -62 -10t-69 -33l-41 76q43 29 89.5 42.5t91.5 13.5t81.5 -17t59.5 -52
q29 33 69 51t88 18q41 0 80 -14.5t69.5 -45t49 -77.5t18.5 -111v-14h-334q1 -31 11 -55t26.5 -40.5t37 -25.5t42.5 -9q35 0 64 16t55 54l40 -22l40 -22q-31 -54 -85 -81.5t-119 -27.5zM327 203h-76q-33 0 -53.5 -5.5t-32 -15t-16 -22t-4.5 -27.5q0 -29 22.5 -47t57.5 -18
q47 0 74.5 26.5t27.5 70.5v38zM642 274q-5 56 -35 81.5t-67 25.5q-38 0 -70.5 -26.5t-41.5 -80.5h214z" />
    <glyph glyph-name="ccedilla" unicode="&#xe7;" horiz-adv-x="490" 
d="M151 227q0 -70 34.5 -109.5t88.5 -39.5q37 0 63 18t50 53l81 -51q-29 -48 -75 -75t-103 -32l-6 -18q42 -7 60.5 -31.5t18.5 -53.5q0 -44 -35 -71.5t-93 -27.5q-16 0 -35.5 4.5t-37.5 12.5l17 59q14 -6 26 -9t26 -3q17 0 29 8.5t12 23.5q0 21 -23 28.5t-55 9.5l19 73
q-40 8 -73 28.5t-57 51t-37 69t-13 82.5q0 52 18.5 96t50.5 75.5t75 49t91 17.5q60 0 112.5 -25t84.5 -75l-80 -55q-20 29 -47 47.5t-64 18.5q-54 0 -88.5 -40t-34.5 -109z" />
    <glyph glyph-name="egrave" unicode="&#xe8;" horiz-adv-x="539" 
d="M278 78q35 0 64.5 14t55.5 52l80 -44q-30 -54 -85 -82.5t-121 -28.5q-49 0 -92.5 16.5t-76 47.5t-51.5 75t-19 99q0 49 17 92.5t48.5 75.5t75.5 51t97 19q52 0 95 -17.5t73.5 -50t47.5 -78t17 -102.5v-17h-354q4 -57 41 -89.5t87 -32.5zM386 274q-6 54 -38.5 79.5
t-77.5 25.5q-49 0 -80.5 -30t-38.5 -75h235zM229 726q35 -38 69 -74t69 -73q-14 -15 -27.5 -29.5t-27.5 -28.5l-152 136z" />
    <glyph glyph-name="eacute" unicode="&#xe9;" horiz-adv-x="539" 
d="M278 78q35 0 64.5 14t55.5 52l80 -44q-30 -54 -85 -82.5t-121 -28.5q-49 0 -92.5 16.5t-76 47.5t-51.5 75t-19 99q0 49 17 92.5t48.5 75.5t75.5 51t97 19q52 0 95 -17.5t73.5 -50t47.5 -78t17 -102.5v-17h-354q4 -57 41 -89.5t87 -32.5zM386 274q-6 54 -38.5 79.5
t-77.5 25.5q-49 0 -80.5 -30t-38.5 -75h235zM311 726l68 -69q-38 -34 -75.5 -68t-75.5 -68q-14 15 -27.5 29t-27.5 29z" />
    <glyph glyph-name="ecircumflex" unicode="&#xea;" horiz-adv-x="539" 
d="M278 78q35 0 64.5 14t55.5 52l80 -44q-30 -54 -85 -82.5t-121 -28.5q-49 0 -92.5 16.5t-76 47.5t-51.5 75t-19 99q0 49 17 92.5t48.5 75.5t75.5 51t97 19q52 0 95 -17.5t73.5 -50t47.5 -78t17 -102.5v-17h-354q4 -57 41 -89.5t87 -32.5zM386 274q-6 54 -38.5 79.5
t-77.5 25.5q-49 0 -80.5 -30t-38.5 -75h235zM413 585l-60 -56l-86 84l-84 -84l-61 56l145 139z" />
    <glyph glyph-name="edieresis" unicode="&#xeb;" horiz-adv-x="539" 
d="M278 78q35 0 64.5 14t55.5 52l80 -44q-30 -54 -85 -82.5t-121 -28.5q-49 0 -92.5 16.5t-76 47.5t-51.5 75t-19 99q0 49 17 92.5t48.5 75.5t75.5 51t97 19q52 0 95 -17.5t73.5 -50t47.5 -78t17 -102.5v-17h-354q4 -57 41 -89.5t87 -32.5zM386 274q-6 54 -38.5 79.5
t-77.5 25.5q-49 0 -80.5 -30t-38.5 -75h235zM97 625q0 26 18.5 43.5t44.5 17.5t44.5 -17.5t18.5 -43.5t-18.5 -43.5t-44.5 -17.5t-44.5 17.5t-18.5 43.5zM311 625q0 26 18.5 43.5t44.5 17.5t44.5 -17.5t18.5 -43.5t-18.5 -43.5t-44.5 -17.5t-44.5 17.5t-18.5 43.5z" />
    <glyph glyph-name="igrave" unicode="&#xec;" horiz-adv-x="226" 
d="M55 726q35 -38 69 -74t69 -73q-14 -15 -27.5 -29.5t-27.5 -28.5l-152 136zM55 0v455h116v-455h-116z" />
    <glyph glyph-name="iacute" unicode="&#xed;" horiz-adv-x="226" 
d="M169 726l68 -69q-38 -34 -75.5 -68t-75.5 -68q-14 15 -27.5 29t-27.5 29zM55 0v455h116v-455h-116z" />
    <glyph glyph-name="icircumflex" unicode="&#xee;" horiz-adv-x="226" 
d="M55 0v455h116v-455h-116zM258 585l-60 -56l-86 84l-84 -84l-61 56l145 139z" />
    <glyph glyph-name="idieresis" unicode="&#xef;" horiz-adv-x="226" 
d="M55 0v455h116v-455h-116zM-40 625q0 26 18.5 43.5t44.5 17.5t44.5 -17.5t18.5 -43.5t-18.5 -44t-44.5 -18t-44.5 18t-18.5 44zM141 625q0 26 18 43.5t44 17.5t45 -17.5t19 -43.5t-19 -44t-45 -18t-44 18t-18 44z" />
    <glyph glyph-name="eth" unicode="&#xf0;" horiz-adv-x="533" 
d="M199 602q-50 30 -108 41l55 83q35 -8 68.5 -21.5t64.5 -32.5l60 55l45 -46l-51 -46q81 -66 128 -160t47 -211q0 -59 -16 -109.5t-46.5 -87t-75 -57.5t-101.5 -21t-101 19t-75 51t-47 75.5t-16 92.5q0 54 18 97.5t49 74t72.5 47.5t88.5 17q48 0 101 -41q-12 38 -39 75
t-66 68l-65 -59l-44 46zM391 230q0 31 -8 58t-23.5 47t-38 31.5t-51.5 11.5q-30 0 -52.5 -11.5t-38 -32t-23.5 -48t-8 -58.5t8 -58.5t23 -48t37.5 -32.5t51.5 -12q56 0 89.5 41.5t33.5 111.5z" />
    <glyph glyph-name="ntilde" unicode="&#xf1;" horiz-adv-x="527" 
d="M355 0v260q0 21 -3 42t-12 37.5t-26 26.5t-45 10q-45 0 -70 -27q-28 -29 -28 -91v-258h-116v455h108l3 -57q9 10 22.5 22t32 22t42.5 16.5t54 6.5q51 0 88 -24.5t54 -78.5q7 -20 10 -47t3 -70v-245h-117zM314 651q14 0 23.5 13t16.5 35l66 -23q-5 -48 -31 -79.5
t-69 -31.5q-17 0 -32.5 6t-34.5 17q-15 8 -25.5 13.5t-19.5 5.5q-15 0 -24 -14t-16 -34l-66 22q7 49 32.5 80.5t67.5 31.5q16 0 31 -6t35 -18l25 -12.5t21 -5.5z" />
    <glyph glyph-name="ograve" unicode="&#xf2;" horiz-adv-x="555" 
d="M33 228q0 49 17 92.5t49 75.5t77 50.5t101 18.5t101 -18.5t77 -50.5t49.5 -75.5t17.5 -92.5q0 -50 -17.5 -93.5t-49.5 -76t-77 -51t-101 -18.5t-101 18.5t-77 51t-49 76t-17 93.5zM277 78q30 0 53.5 12t40 32.5t25 48t8.5 57.5t-8.5 57t-25 47.5t-40 32t-53.5 11.5
t-53 -11.5t-39.5 -32t-25 -47.5t-8.5 -57t8.5 -57.5t25 -48t39.5 -32.5t53 -12zM222 726q35 -38 69 -74t69 -73q-14 -15 -27.5 -29.5t-27.5 -28.5l-152 136z" />
    <glyph glyph-name="oacute" unicode="&#xf3;" horiz-adv-x="555" 
d="M33 228q0 49 17 92.5t49 75.5t77 50.5t101 18.5t101 -18.5t77 -50.5t49.5 -75.5t17.5 -92.5q0 -50 -17.5 -93.5t-49.5 -76t-77 -51t-101 -18.5t-101 18.5t-77 51t-49 76t-17 93.5zM277 78q30 0 53.5 12t40 32.5t25 48t8.5 57.5t-8.5 57t-25 47.5t-40 32t-53.5 11.5
t-53 -11.5t-39.5 -32t-25 -47.5t-8.5 -57t8.5 -57.5t25 -48t39.5 -32.5t53 -12zM319 726l68 -69q-38 -34 -75.5 -68t-75.5 -68q-14 15 -27.5 29t-27.5 29z" />
    <glyph glyph-name="ocircumflex" unicode="&#xf4;" horiz-adv-x="555" 
d="M33 228q0 49 17 92.5t49 75.5t77 50.5t101 18.5t101 -18.5t77 -50.5t49.5 -75.5t17.5 -92.5q0 -50 -17.5 -93.5t-49.5 -76t-77 -51t-101 -18.5t-101 18.5t-77 51t-49 76t-17 93.5zM277 78q30 0 53.5 12t40 32.5t25 48t8.5 57.5t-8.5 57t-25 47.5t-40 32t-53.5 11.5
t-53 -11.5t-39.5 -32t-25 -47.5t-8.5 -57t8.5 -57.5t25 -48t39.5 -32.5t53 -12zM420 585l-60 -56l-86 84l-84 -84l-61 56l145 139z" />
    <glyph glyph-name="otilde" unicode="&#xf5;" horiz-adv-x="555" 
d="M33 228q0 49 17 92.5t49 75.5t77 50.5t101 18.5t101 -18.5t77 -50.5t49.5 -75.5t17.5 -92.5q0 -50 -17.5 -93.5t-49.5 -76t-77 -51t-101 -18.5t-101 18.5t-77 51t-49 76t-17 93.5zM277 78q30 0 53.5 12t40 32.5t25 48t8.5 57.5t-8.5 57t-25 47.5t-40 32t-53.5 11.5
t-53 -11.5t-39.5 -32t-25 -47.5t-8.5 -57t8.5 -57.5t25 -48t39.5 -32.5t53 -12zM328 651q14 0 23.5 13t16.5 35l66 -23q-5 -48 -31 -79.5t-69 -31.5q-17 0 -32.5 6t-34.5 17q-15 8 -25.5 13.5t-19.5 5.5q-15 0 -24 -14t-16 -34l-66 22q7 49 32.5 80.5t67.5 31.5q16 0 31 -6
t35 -18l25 -12.5t21 -5.5z" />
    <glyph glyph-name="odieresis" unicode="&#xf6;" horiz-adv-x="555" 
d="M33 228q0 49 17 92.5t49 75.5t77 50.5t101 18.5t101 -18.5t77 -50.5t49.5 -75.5t17.5 -92.5q0 -50 -17.5 -93.5t-49.5 -76t-77 -51t-101 -18.5t-101 18.5t-77 51t-49 76t-17 93.5zM277 78q30 0 53.5 12t40 32.5t25 48t8.5 57.5t-8.5 57t-25 47.5t-40 32t-53.5 11.5
t-53 -11.5t-39.5 -32t-25 -47.5t-8.5 -57t8.5 -57.5t25 -48t39.5 -32.5t53 -12zM105 625q0 26 18.5 43.5t44.5 17.5t44.5 -17.5t18.5 -43.5t-18.5 -43.5t-44.5 -17.5t-44.5 17.5t-18.5 43.5zM319 625q0 26 18.5 43.5t44.5 17.5t44.5 -17.5t18.5 -43.5t-18.5 -43.5
t-44.5 -17.5t-44.5 17.5t-18.5 43.5z" />
    <glyph glyph-name="divide" unicode="&#xf7;" horiz-adv-x="595" 
d="M525 292v-92h-456v92h456zM234 71q0 26 19 45t45 19t45 -19t19 -45t-19 -44.5t-45 -18.5t-45 18.5t-19 44.5zM234 421q0 26 19 45t45 19t45 -19t19 -45t-19 -45t-45 -19t-45 19t-19 45z" />
    <glyph glyph-name="oslash" unicode="&#xf8;" horiz-adv-x="555" 
d="M33 227q0 49 17 92.5t49 76t77 51t101 18.5q38 0 71 -9t60 -25l41 52l47 -36l-42 -51q32 -32 50 -75.5t18 -93.5t-17.5 -93.5t-49.5 -76t-77 -51t-101 -18.5q-38 0 -71.5 9t-61.5 26l-42 -52l-46 35l43 52q-66 66 -66 169zM404 227q0 44 -22 82l-176 -208q15 -11 33 -17
t38 -6q29 0 52.5 11.5t40 32t25.5 47.5t9 58zM151 227q0 -46 21 -80l174 207q-30 22 -69 22q-29 0 -52 -12t-39.5 -32t-25.5 -47t-9 -58z" />
    <glyph glyph-name="ugrave" unicode="&#xf9;" horiz-adv-x="521" 
d="M263 -11q-101 0 -155.5 49.5t-54.5 149.5v267h116v-273q0 -54 24.5 -79t65.5 -25q19 0 35.5 5.5t28.5 18t19 32.5t7 48v273h116v-267q0 -53 -17 -91t-45 -62t-64.5 -35t-75.5 -11zM195 726q35 -38 69 -74t69 -73q-14 -15 -27.5 -29.5t-27.5 -28.5l-152 136z" />
    <glyph glyph-name="uacute" unicode="&#xfa;" horiz-adv-x="521" 
d="M263 -11q-101 0 -155.5 49.5t-54.5 149.5v267h116v-273q0 -54 24.5 -79t65.5 -25q19 0 35.5 5.5t28.5 18t19 32.5t7 48v273h116v-267q0 -53 -17 -91t-45 -62t-64.5 -35t-75.5 -11zM320 726l68 -69q-38 -34 -75.5 -68t-75.5 -68q-14 15 -27.5 29t-27.5 29z" />
    <glyph glyph-name="ucircumflex" unicode="&#xfb;" horiz-adv-x="521" 
d="M263 -11q-101 0 -155.5 49.5t-54.5 149.5v267h116v-273q0 -54 24.5 -79t65.5 -25q19 0 35.5 5.5t28.5 18t19 32.5t7 48v273h116v-267q0 -53 -17 -91t-45 -62t-64.5 -35t-75.5 -11zM401 585l-60 -56l-86 84l-84 -84l-61 56l145 139z" />
    <glyph glyph-name="udieresis" unicode="&#xfc;" horiz-adv-x="521" 
d="M263 -11q-101 0 -155.5 49.5t-54.5 149.5v267h116v-273q0 -54 24.5 -79t65.5 -25q19 0 35.5 5.5t28.5 18t19 32.5t7 48v273h116v-267q0 -53 -17 -91t-45 -62t-64.5 -35t-75.5 -11zM86 625q0 26 18.5 43.5t44.5 17.5t44.5 -17.5t18.5 -43.5t-18.5 -43.5t-44.5 -17.5
t-44.5 17.5t-18.5 43.5zM300 625q0 26 18.5 43.5t44.5 17.5t44.5 -17.5t18.5 -43.5t-18.5 -43.5t-44.5 -17.5t-44.5 17.5t-18.5 43.5z" />
    <glyph glyph-name="yacute" unicode="&#xfd;" horiz-adv-x="483" 
d="M2 455h125l117 -306l116 306h117l-268 -665h-120l95 221zM291 726l68 -69q-38 -34 -75.5 -68t-75.5 -68q-14 15 -27.5 29t-27.5 29z" />
    <glyph glyph-name="thorn" unicode="&#xfe;" horiz-adv-x="560" 
d="M527 228q0 -54 -16 -98t-44.5 -75t-67.5 -48t-85 -17q-48 0 -82.5 18.5t-58.5 47.5l-2 -1v-276h-116v938h116v-314l2 -1q19 22 54.5 43t86.5 21q44 0 83 -15.5t68 -46t45.5 -75t16.5 -101.5zM170 228q0 -31 7.5 -58.5t22.5 -47.5t37.5 -32t52.5 -12q52 0 85.5 41
t33.5 109t-32 109t-88 41q-55 0 -87 -39.5t-32 -110.5z" />
    <glyph glyph-name="ydieresis" unicode="&#xff;" horiz-adv-x="483" 
d="M2 455h125l117 -306l116 306h117l-268 -665h-120l95 221zM75 625q0 26 18.5 43.5t44.5 17.5t44.5 -17.5t18.5 -43.5t-18.5 -43.5t-44.5 -17.5t-44.5 17.5t-18.5 43.5zM289 625q0 26 18.5 43.5t44.5 17.5t44.5 -17.5t18.5 -43.5t-18.5 -43.5t-44.5 -17.5t-44.5 17.5
t-18.5 43.5z" />
    <glyph glyph-name="dotlessi" unicode="&#x131;" horiz-adv-x="226" 
d="M55 0v455h116v-455h-116z" />
    <glyph glyph-name="OE" unicode="&#x152;" horiz-adv-x="1118" 
d="M392 97q50 0 91 18.5t70 53t45 82.5t16 107q0 60 -16.5 108.5t-45.5 82.5t-70 52t-90 18q-52 0 -93 -20t-70 -55.5t-44.5 -83t-15.5 -102.5t15.5 -102.5t44.5 -83t70 -55.5t93 -20zM37 359q0 69 23 135t67.5 117t108.5 82t145 31t139.5 -31.5t93.5 -82.5v107h461v-103
h-336v-203h218v-103h-218v-205h345v-103h-470v106q-35 -51 -93.5 -82t-139.5 -31t-145 31t-108.5 82t-67.5 117t-23 136z" />
    <glyph glyph-name="oe" unicode="&#x153;" horiz-adv-x="890" 
d="M633 73q35 0 65 16t56 54l80 -44q-30 -54 -85 -82.5t-115 -28.5q-63 0 -110.5 26.5t-74.5 73.5q-27 -46 -73.5 -73t-111.5 -27q-54 0 -96.5 18.5t-72.5 51t-46 76t-16 93.5q0 49 16 92.5t46 76t72.5 51t96.5 18.5q66 0 113.5 -26.5t75.5 -72.5q26 45 73 72t109 27
q44 0 84 -15.5t70.5 -46t48.5 -77t18 -109.5v-14h-344q1 -29 11 -53t26 -41t37.5 -26.5t46.5 -9.5zM151 227q0 -31 8 -58.5t23.5 -48t38 -32.5t51.5 -12t51.5 12t38 32.5t23.5 48t8 58.5t-8 58t-23.5 47.5t-38 32.5t-51.5 12t-51.5 -12t-38 -32.5t-23.5 -47.5t-8 -58z
M736 274q-5 54 -34.5 80.5t-73.5 26.5q-43 0 -76 -28t-40 -79h224z" />
    <glyph glyph-name="Scaron" unicode="&#x160;" horiz-adv-x="582" 
d="M543 203q0 -51 -20 -90.5t-54.5 -67t-80 -42t-97.5 -14.5q-46 0 -87.5 10t-76.5 27t-63.5 38.5t-47.5 45.5l71 80q42 -47 96.5 -72.5t107.5 -25.5q57 0 92 26t35 71q0 43 -38.5 69t-105.5 48l-56 18q-90 29 -133.5 74t-43.5 123q0 43 18 81t50.5 66t77 44t98.5 16
q46 0 85 -10t69.5 -25t53 -34t35.5 -37l-71 -82q-34 38 -77.5 61t-94.5 23q-30 0 -52.5 -8t-37.5 -21.5t-22.5 -30t-7.5 -33.5q0 -34 22 -56.5t74 -39.5l83 -28q41 -14 77 -30t63 -39t43 -55.5t16 -79.5zM138 878l51 62l95 -76l93 76l51 -62l-144 -119z" />
    <glyph glyph-name="scaron" unicode="&#x161;" horiz-adv-x="434" 
d="M395 131q0 -29 -12.5 -54.5t-36.5 -45t-58 -31t-76 -11.5q-66 0 -115.5 24.5t-76.5 57.5l58 69q25 -26 61 -47t74 -21q35 0 52 15.5t17 35.5q0 11 -4.5 20t-16.5 17q-11 7 -27 13t-33 11l-32 10q-23 7 -37 13t-27 13q-35 20 -49.5 44.5t-14.5 61.5q0 26 11.5 51t34 44.5
t55.5 31.5t75 12q40 0 71.5 -10.5t53 -23.5t34 -25.5t14.5 -15.5l-60 -64q-18 19 -47.5 37.5t-67.5 18.5q-27 0 -46 -11.5t-19 -34.5q0 -14 9 -24t22 -17q12 -5 24.5 -9.5t30.5 -10.5l33 -11q28 -9 53 -21t44 -31q29 -31 29 -81zM75 667l61 56l86 -83l85 83l60 -56
l-145 -138z" />
    <glyph glyph-name="Ydieresis" unicode="&#x178;" horiz-adv-x="631" 
d="M276 0h-135l120 239l-262 478h141l186 -347l170 347h133zM148 834q0 26 18 43.5t44 17.5t44 -17.5t18 -43.5t-18 -43.5t-44 -17.5t-44 17.5t-18 43.5zM356 834q0 26 18 43.5t44 17.5t44 -17.5t18 -43.5t-18 -43.5t-44 -17.5t-44 17.5t-18 43.5z" />
    <glyph glyph-name="Zcaron" unicode="&#x17d;" horiz-adv-x="626" 
d="M583 0h-543v113l382 500h-377v104h525v-112l-386 -501h399v-104zM159 878l51 62l95 -76l93 76l51 -62l-144 -119z" />
    <glyph glyph-name="zcaron" unicode="&#x17e;" horiz-adv-x="459" 
d="M424 0h-393v90l247 274h-242v91h378v-89l-247 -275h257v-91zM81 667l61 56l86 -83l85 83l60 -56l-145 -138z" />
    <glyph glyph-name="longs" unicode="&#x17f;" horiz-adv-x="260" 
d="M188 0h-117v364h-59v91h59v87q0 29 5 52t14 41q20 42 60 65t96 23q16 0 35 -2.5t34 -8.5l-7 -90q-12 4 -23.5 6.5t-21.5 2.5q-39 0 -56.5 -26.5t-18.5 -64.5v-540z" />
    <glyph glyph-name="florin" unicode="&#x192;" horiz-adv-x="449" 
d="M160 293h-89v89h97l6 60q5 51 13.5 96.5t26.5 79.5t50 54t83 20q22 0 47 -4t46 -12l-10 -83q-16 5 -30 7.5t-25 2.5q-29 0 -45 -15t-24.5 -43.5t-12 -69.5t-6.5 -93h89v-89h-98l-20 -230q-5 -57 -13 -106t-26.5 -85.5t-50 -57t-82.5 -20.5q-44 0 -91 17l8 82
q15 -5 29 -7.5t26 -2.5q34 0 52 25t23 80z" />
    <glyph glyph-name="uni0237" unicode="&#x237;" horiz-adv-x="226" 
d="M55 455h116v-503q0 -40 -13.5 -72t-37 -54t-55.5 -33.5t-69 -11.5q-8 0 -20.5 0.5t-23.5 2.5v91q8 -1 16 -1h15q31 0 51.5 18t20.5 63v500z" />
    <glyph glyph-name="circumflex" unicode="&#x2c6;" horiz-adv-x="353" 
d="M321 585l-60 -56l-86 84l-84 -84l-61 56l145 139z" />
    <glyph glyph-name="tilde" unicode="&#x2dc;" horiz-adv-x="353" 
d="M231 651q14 0 23.5 13t16.5 35l66 -23q-5 -48 -31 -79.5t-69 -31.5q-17 0 -32.5 6t-34.5 17q-15 8 -25.5 13.5t-19.5 5.5q-15 0 -24 -14t-16 -34l-66 22q7 49 32.5 80.5t67.5 31.5q16 0 31 -6t35 -18l25 -12.5t21 -5.5z" />
    <glyph glyph-name="endash" unicode="&#x2013;" horiz-adv-x="597" 
d="M527 200h-457v92h457v-92z" />
    <glyph glyph-name="emdash" unicode="&#x2014;" horiz-adv-x="1000" 
d="M936 200h-866v92h866v-92z" />
    <glyph glyph-name="quoteleft" unicode="&#x2018;" horiz-adv-x="250" 
d="M153 454h-114l89 263h82z" />
    <glyph glyph-name="quoteright" unicode="&#x2019;" horiz-adv-x="250" 
d="M96 717h114l-89 -263h-82z" />
    <glyph glyph-name="quotesinglbase" unicode="&#x201a;" horiz-adv-x="250" 
d="M102 132h114l-95 -261h-77z" />
    <glyph glyph-name="quotedblleft" unicode="&#x201c;" horiz-adv-x="439" 
d="M342 454h-114l89 263h82zM153 454h-114l89 263h82z" />
    <glyph glyph-name="quotedblright" unicode="&#x201d;" horiz-adv-x="439" 
d="M96 717h113l-89 -263h-82zM285 717h114l-90 -263h-82z" />
    <glyph glyph-name="quotedblbase" unicode="&#x201e;" horiz-adv-x="439" 
d="M102 132h114l-90 -261h-82zM291 132h114l-90 -261h-82z" />
    <glyph glyph-name="dagger" unicode="&#x2020;" horiz-adv-x="580" 
d="M525 503h-187v-673h-97v673h-186v88h186v206h97v-206h187v-88z" />
    <glyph glyph-name="daggerdbl" unicode="&#x2021;" horiz-adv-x="580" 
d="M60 123h181v380h-181v88h181v206h97v-206h182v-88h-182v-380h181v-88h-181v-205h-97v205h-181v88z" />
    <glyph glyph-name="bullet" unicode="&#x2022;" horiz-adv-x="390" 
d="M331 268q0 -29 -10.5 -54.5t-29 -44.5t-43.5 -30t-53 -11q-29 0 -54 11t-43.5 30t-29.5 44.5t-11 54.5t11 54.5t29.5 44t43.5 29.5t54 11q28 0 53 -11t43.5 -29.5t29 -44t10.5 -54.5z" />
    <glyph glyph-name="ellipsis" unicode="&#x2026;" horiz-adv-x="806" 
d="M67 64q0 32 22 54.5t54 22.5t53.5 -22.5t21.5 -54.5t-21.5 -54t-53.5 -22t-54 22t-22 54zM328 64q0 32 22 54.5t53 22.5q32 0 53.5 -22.5t21.5 -54.5t-21.5 -54t-53.5 -22q-31 0 -53 22t-22 54zM588 64q0 32 21.5 54.5t53.5 22.5t54 -22.5t22 -54.5t-22 -54t-54 -22
t-53.5 22t-21.5 54z" />
    <glyph glyph-name="perthousand" unicode="&#x2030;" horiz-adv-x="1116" 
d="M197 667q36 0 65.5 -13t50.5 -34.5t32 -50.5t11 -61t-11.5 -61t-32.5 -51.5t-51 -36t-66 -13.5t-65 13t-50 35t-32 51t-11 61t11.5 61t32.5 51.5t50.5 35.5t65.5 13zM645 662l-428 -667h-93l429 667h92zM196 417q40 0 61.5 27t21.5 62t-21.5 61.5t-61.5 26.5
q-39 0 -60.5 -25.5t-21.5 -60.5q0 -18 5.5 -34t16 -29t26 -20.5t34.5 -7.5zM573 310q36 0 65.5 -13t50.5 -35t32 -51t11 -61t-11.5 -61t-32.5 -51.5t-50.5 -35.5t-65.5 -13t-65.5 13t-50.5 34.5t-32 50t-11 60.5t11.5 61.5t32.5 52t50.5 36t65.5 13.5zM572 60q41 0 62.5 26
t21.5 61q0 18 -5.5 34t-16.5 28.5t-26.5 20t-35.5 7.5q-40 0 -61.5 -26.5t-21.5 -60.5q0 -18 6 -34t16.5 -28.5t26 -20t34.5 -7.5zM927 310q36 0 65.5 -13t50.5 -35t32 -51t11 -61t-11.5 -61t-32.5 -51.5t-50.5 -35.5t-65.5 -13t-65.5 13t-50.5 34.5t-32 50t-11 60.5
t11.5 61.5t32.5 52t50.5 36t65.5 13.5zM926 60q41 0 62.5 26t21.5 61q0 18 -5.5 34t-16.5 28.5t-26.5 20t-35.5 7.5q-40 0 -61.5 -26.5t-21.5 -60.5q0 -18 6 -34t16.5 -28.5t26 -20t34.5 -7.5z" />
    <glyph glyph-name="guilsinglleft" unicode="&#x2039;" horiz-adv-x="336" 
d="M162 252l118 -145l-68 -50l-157 195l157 196l68 -50z" />
    <glyph glyph-name="guilsinglright" unicode="&#x203a;" horiz-adv-x="336" 
d="M173 253l-118 145l68 50l158 -195l-158 -195l-68 49z" />
    <glyph glyph-name="Euro" unicode="&#x20ac;" horiz-adv-x="647" 
d="M105 297q-3 18 -3 34q0 8 0.5 15t1.5 15h-82l25 81h74q15 50 42.5 92t67.5 72t91.5 47t115.5 17q44 0 88.5 -12t86.5 -37l-28 -97q-32 20 -67.5 33t-77.5 13q-75 0 -121 -35t-68 -93h307l-25 -81h-307q-1 -9 -1.5 -16.5t-0.5 -15.5v-15.5t2 -16.5h285l-23 -81h-240
q23 -58 70 -94t116 -36q20 0 47 6t52 14q29 9 59 20v-102q-34 -17 -77 -26t-80 -9q-64 0 -115.5 17t-91 47.5t-67 72t-42.5 90.5h-97l25 81h58z" />
    <glyph glyph-name="trademark" unicode="&#x2122;" horiz-adv-x="645" 
d="M534 458v173l-70 -112h-8l-66 109v-170h-64v259h71l65 -107l66 107h71v-259h-65zM195 667v-209h-66v209h-86v50h237v-50h-85z" />
    <glyph glyph-name="i.aalt" horiz-adv-x="226" 
d="M54 0v455h116v-455h-116zM42 651q0 29 20.5 49.5t49.5 20.5t49.5 -20.5t20.5 -49.5t-20.5 -49.5t-49.5 -20.5t-49.5 20.5t-20.5 49.5z" />
    <glyph glyph-name="zero.pnum" horiz-adv-x="531" 
d="M493 330q0 -77 -13 -137.5t-42 -103.5q-27 -48 -70 -74t-103 -26q-65 0 -108.5 29.5t-73.5 82.5q-25 44 -35 101t-10 128q0 64 8 118t27 96q28 60 75 93t117 33q69 0 116 -32t75 -92q20 -43 28.5 -96.5t8.5 -119.5zM367 330q0 49 -2 90.5t-12 77.5q-11 41 -34 60.5
t-54 19.5t-53.5 -19.5t-33.5 -60.5q-10 -36 -12.5 -77.5t-2.5 -90.5q0 -51 2.5 -92.5t12.5 -76.5q11 -41 33.5 -60.5t53.5 -19.5t54 19.5t34 60.5q10 35 12 76.5t2 92.5z" />
    <glyph glyph-name="one.pnum" horiz-adv-x="356" 
d="M154 0v514l-123 -53l-35 88l276 121v-670h-118z" />
    <glyph glyph-name="two.pnum" horiz-adv-x="518" 
d="M239 577q-25 0 -44 -9t-33.5 -23.5t-25.5 -33.5t-19 -39l-99 36q9 29 27 58t45.5 52t66 37.5t89.5 14.5q46 0 86 -14.5t70 -40.5t47 -62t17 -79q0 -62 -34 -117t-94 -121l-119 -134h266v-102h-459v53l214 235q27 30 46 55t31 46.5t17.5 42t5.5 41.5q0 45 -29 74.5
t-72 29.5z" />
    <glyph glyph-name="three.pnum" horiz-adv-x="510" 
d="M475 203q0 -45 -17 -84.5t-47.5 -68t-73.5 -45t-94 -16.5q-83 0 -144.5 40t-85.5 112l105 37q13 -46 45 -72.5t76 -26.5q25 0 46 9.5t36 25.5t23.5 38t8.5 47q0 40 -22 71t-67 46q-17 5 -38 8t-49 3h-33l-5 13l147 217h-254v102h431v-21l-170 -245q46 -6 80.5 -24.5
t57 -44.5t33.5 -57.5t11 -63.5z" />
    <glyph glyph-name="four.pnum" horiz-adv-x="532" 
d="M310 162h-293v52l248 445h126l-225 -398h144v133h119v-133h75v-99h-75v-162h-119v162z" />
    <glyph glyph-name="five.pnum" horiz-adv-x="518" 
d="M481 211q0 -50 -18.5 -91t-50.5 -70t-74.5 -45t-89.5 -16q-39 0 -74.5 9.5t-65.5 28.5t-52 47t-34 66l104 36q13 -46 42.5 -71.5t74.5 -25.5q27 0 49 10.5t37.5 28.5t23.5 41t8 48q0 24 -7.5 47t-22.5 41t-37 29t-51 11q-32 0 -60 -15.5t-48 -38.5l-95 33l64 345h348
v-102h-263l-33 -169q23 14 54.5 22t63.5 8q42 0 79.5 -14.5t66 -41.5t45 -65.5t16.5 -85.5z" />
    <glyph glyph-name="six.pnum" 
d="M246 410q27 8 50 8q47 0 85.5 -17t65.5 -45.5t42 -66.5t15 -80q0 -47 -17 -87t-48.5 -69.5t-75 -46.5t-97.5 -17q-51 0 -94 16t-74.5 45t-49 69t-17.5 88q0 42 14 82t40 82l178 288h144zM268 334q-28 0 -49.5 -11t-36.5 -29t-23 -41t-8 -48q0 -55 31.5 -91t85.5 -36
q28 0 50 10.5t37 28t22.5 40.5t7.5 48t-8 48.5t-23 41.5t-36.5 28.5t-49.5 10.5z" />
    <glyph glyph-name="seven.pnum" horiz-adv-x="517" 
d="M21 556v103h479v-11q-12 -25 -34.5 -75.5t-51 -114.5t-60 -134.5t-60 -134t-51.5 -114.5t-34 -75h-134q11 24 31 68t45 97.5t52 112.5t51.5 112.5t44.5 97.5t31 68h-309z" />
    <glyph glyph-name="eight.pnum" horiz-adv-x="531" 
d="M498 179q0 -43 -17 -78t-47.5 -60t-73.5 -38.5t-94 -13.5q-54 0 -97.5 14t-73.5 39.5t-46 60.5t-16 76q0 60 31.5 103t84.5 62q-42 20 -67.5 58t-25.5 88q0 35 13.5 67.5t40 57.5t66 40t90.5 15t90 -15t65.5 -39.5t40 -57t13.5 -68.5q0 -50 -25.5 -88t-67.5 -58
q54 -19 85 -62t31 -103zM265 384q45 0 72 27t27 73q0 39 -24 68.5t-74 29.5q-51 0 -75 -29.5t-24 -68.5q0 -45 26 -72.5t72 -27.5zM265 79q28 0 49 8.5t35 23.5t21 35t7 42t-7 42t-21.5 35.5t-35.5 24.5t-48 9q-28 0 -49 -9t-35.5 -24.5t-21.5 -35.5t-7 -42t7 -42t21.5 -35
t35.5 -23.5t49 -8.5z" />
    <glyph glyph-name="nine.pnum" horiz-adv-x="539" 
d="M292 249q-27 -8 -50 -8q-47 0 -85.5 17t-66 45.5t-42.5 66.5t-15 80q0 47 17 87t48.5 69.5t75.5 46.5t98 17q51 0 94 -16t74.5 -45t49 -69t17.5 -88q0 -42 -14 -82t-40 -82l-178 -288h-144zM270 325q28 0 49.5 11t36.5 29t23 41t8 48q0 55 -31.5 91t-85.5 36
q-28 0 -50 -10.5t-37 -28t-22.5 -40.5t-7.5 -48t8 -48.5t23 -41.5t36.5 -28.5t49.5 -10.5z" />
    <glyph glyph-name="parenleft.aalt" horiz-adv-x="364" 
d="M70 358q0 130 40.5 255t123.5 229l90 -47q-69 -101 -103.5 -211.5t-34.5 -225.5q0 -113 34.5 -223.5t103.5 -211.5l-90 -48q-83 104 -123.5 229t-40.5 254z" />
    <glyph glyph-name="parenright.aalt" horiz-adv-x="365" 
d="M295 358q0 -129 -40.5 -254t-123.5 -229l-91 48q70 101 104 211.5t34 223.5q0 115 -34 225.5t-104 211.5l91 47q83 -104 123.5 -229t40.5 -255z" />
    <glyph glyph-name="hyphen.aalt" horiz-adv-x="370" 
d="M314 304h-257v111h257v-111z" />
    <glyph glyph-name="bracketleft.aalt" horiz-adv-x="409" 
d="M361 -115h-267v946h267v-70h-151v-802h151v-74z" />
    <glyph glyph-name="bracketright.aalt" horiz-adv-x="409" 
d="M48 -41h151v800h-150v72h266v-946h-267v74z" />
    <glyph glyph-name="braceleft.aalt" horiz-adv-x="411" 
d="M136 234q0 26 -6.5 43t-17.5 27t-27.5 14.5t-35.5 6.5q-5 0 -8 1v64q54 0 74.5 26.5t20.5 80.5v132q0 51 8.5 89.5t32 64t64.5 38.5t107 13h10v-65q-38 0 -60.5 -7t-34 -21t-15 -35t-3.5 -49v-164q0 -48 -18.5 -81t-71.5 -53q53 -20 71.5 -56t18.5 -83v-162
q0 -26 3.5 -46t15.5 -34t34 -21.5t60 -7.5v-65h-9q-63 0 -104 11.5t-65.5 34t-34 55.5t-9.5 75v174z" />
    <glyph glyph-name="braceright.aalt" horiz-adv-x="411" 
d="M275 60q0 -42 -9.5 -75t-34 -55.5t-65.5 -34t-104 -11.5h-9v65q37 0 59.5 7.5t34.5 21.5t15.5 34t3.5 46v162q0 47 18.5 83t71.5 56q-53 20 -71.5 53t-18.5 81v164q0 28 -3.5 49t-15 35t-34 21t-60.5 7v65h10q66 0 107 -13t64.5 -38.5t32 -64t8.5 -89.5v-132
q0 -54 20.5 -80.5t74.5 -26.5v-64q-3 -1 -8 -1q-20 -2 -36 -6.5t-27 -14.5t-17.5 -27t-6.5 -43v-174z" />
    <glyph glyph-name="guillemotleft.aalt" horiz-adv-x="541" 
d="M368 358l118 -145l-68 -50l-158 195l158 196l68 -50zM163 358l117 -145l-68 -50l-157 195l157 196l68 -50z" />
    <glyph glyph-name="uni00AD.aalt" horiz-adv-x="370" 
d="M314 304h-257v111h257v-111z" />
    <glyph glyph-name="guillemotright.aalt" horiz-adv-x="540" 
d="M172 358l-117 146l68 49l157 -195l-157 -196l-68 50zM377 358l-117 146l68 49l157 -195l-157 -196l-68 50z" />
    <glyph glyph-name="endash.aalt" horiz-adv-x="580" 
d="M518 304h-456v111h456v-111z" />
    <glyph glyph-name="emdash.aalt" horiz-adv-x="1005" 
d="M943 304h-881v111h881v-111z" />
    <glyph glyph-name="guilsinglleft.aalt" horiz-adv-x="335" 
d="M163 357l117 -145l-68 -49l-157 194l157 197l68 -50z" />
    <glyph glyph-name="guilsinglright.aalt" horiz-adv-x="336" 
d="M173 358l-118 146l68 50l158 -196l-158 -195l-68 50z" />
    <glyph glyph-name="zero.aalt" horiz-adv-x="584" 
d="M171 359q0 -57 3 -103.5t15 -84.5q14 -43 41 -62.5t62 -19.5t62 19.5t41 62.5q12 38 14.5 84.5t2.5 103.5t-2.5 103.5t-14.5 83.5q-14 43 -41 62.5t-62 19.5t-62 -19.5t-41 -62.5q-12 -37 -15 -83.5t-3 -103.5zM47 359q0 69 7.5 126t28.5 104q30 65 82 102t127 37
t127 -37t81 -102q22 -47 29.5 -104t7.5 -126t-7.5 -126.5t-29.5 -104.5q-29 -64 -81 -101.5t-127 -37.5t-127 37.5t-82 101.5q-21 47 -28.5 104.5t-7.5 126.5z" />
    <glyph glyph-name="one.aalt" horiz-adv-x="584" 
d="M227 103v467l-136 -60l-37 89l294 129v-625h154v-103h-430v103h155z" />
    <glyph glyph-name="two.aalt" horiz-adv-x="584" 
d="M275 627q-27 0 -48.5 -9t-37.5 -24t-28 -35.5t-21 -43.5l-101 38q10 31 29.5 62t49 56t70.5 41t94 16q49 0 92.5 -15.5t75 -44t50 -67.5t18.5 -86q0 -80 -54 -156q-18 -25 -44.5 -56.5t-63.5 -72.5l-114 -127h298v-103h-493v52l231 254q32 35 53.5 62.5t35 51.5t19 45.5
t5.5 45.5q0 25 -9 46t-24.5 36.5t-37 24.5t-45.5 9z" />
    <glyph glyph-name="three.aalt" horiz-adv-x="584" 
d="M539 218q0 -48 -18.5 -90t-51.5 -72.5t-79 -48.5t-101 -18q-48 0 -88.5 12.5t-72 34t-53.5 51t-34 63.5l104 43q15 -47 51.5 -75.5t87.5 -28.5q58 0 92.5 34.5t34.5 93.5q0 47 -26 81t-80 50q-17 5 -37.5 7.5t-49.5 2.5h-35l-6 11l168 245h-283v103h462v-22l-185 -266
q45 -6 81.5 -24t63 -45.5t41 -63.5t14.5 -78z" />
    <glyph glyph-name="four.aalt" horiz-adv-x="584" 
d="M343 182h-320v49l266 486h132l-244 -436h166v157h123v-157h85v-99h-85v-182h-123v182z" />
    <glyph glyph-name="five.aalt" horiz-adv-x="584" 
d="M537 231q0 -51 -19 -95t-52.5 -77t-79 -51.5t-99.5 -18.5q-91 0 -155.5 45t-90.5 118l104 38q14 -45 49 -73.5t86 -28.5q27 0 51.5 10t42.5 28t29 43.5t11 57.5q0 27 -9 52t-26.5 44t-42.5 30.5t-56 11.5q-32 0 -63 -13.5t-58 -41.5l-98 32l72 375h373v-103h-282
l-38 -193q27 17 60 26.5t68 9.5q46 0 86.5 -17t71 -47t48 -71.5t17.5 -90.5z" />
    <glyph glyph-name="six.aalt" horiz-adv-x="584" 
d="M261 449q25 12 58 12q51 0 93 -17.5t72 -48t46.5 -72.5t16.5 -91q0 -50 -19 -94.5t-53 -77.5t-81 -52t-104 -19q-55 0 -101.5 18t-80.5 50t-53 77t-19 98q0 26 5 50.5t15.5 51t28 57t41.5 69.5l162 257h149zM291 370q-31 0 -55.5 -11t-42 -30t-26.5 -45t-9 -55t9 -54
t26 -44.5t41.5 -30.5t56.5 -11t57 11.5t42 31t26 45t9 53.5q0 29 -9 54.5t-26 44.5t-42 30t-57 11z" />
    <glyph glyph-name="seven.aalt" horiz-adv-x="584" 
d="M46 614v103h515v-11l-320 -706h-136l281 614h-340z" />
    <glyph glyph-name="eight.aalt" horiz-adv-x="584" 
d="M292 419q48 0 79.5 28.5t31.5 78.5q0 41 -28 71.5t-83 30.5q-56 0 -83.5 -30.5t-27.5 -71.5q0 -50 31 -78.5t80 -28.5zM292 88q31 0 54.5 9.5t39.5 25.5t24.5 37.5t8.5 44.5q0 24 -8.5 45t-24.5 36.5t-39.5 25t-54.5 9.5t-55 -9.5t-40 -25t-24 -36.5t-8 -45
q0 -23 8 -44.5t24 -37.5t40 -25.5t55 -9.5zM292 -11q-60 0 -106 16t-78 44t-48.5 65.5t-16.5 80.5q0 64 31.5 109.5t91.5 68.5q-45 25 -71.5 66t-26.5 95q0 41 15.5 76.5t44.5 61.5t70.5 41t93.5 15q51 0 92.5 -15t71 -41t45 -61.5t15.5 -76.5q0 -54 -27 -95t-72 -66
q60 -23 91.5 -68.5t31.5 -109.5q0 -45 -17.5 -83t-50 -65t-78.5 -42.5t-102 -15.5z" />
    <glyph glyph-name="nine.aalt" horiz-adv-x="584" 
d="M322 263q-14 -5 -29 -8.5t-32 -3.5q-53 0 -94.5 19t-70.5 51.5t-44.5 74.5t-15.5 88q0 51 19 95.5t53 77.5t81.5 52t103.5 19q55 0 101.5 -18t80.5 -50.5t53 -77.5t19 -99q0 -46 -15.5 -90.5t-53.5 -104.5q-7 -12 -20.5 -35t-31 -51t-37 -58.5t-37 -58.5t-32 -50.5
t-21.5 -34.5h-150zM291 343q31 0 56 11.5t42 31t26.5 45.5t9.5 55t-9 54.5t-26 45t-42 31t-57 11.5t-57 -12t-42 -31.5t-26 -45.5t-9 -54q0 -29 9 -55t26.5 -45.5t42 -30.5t56.5 -11z" />
    <glyph glyph-name="zero.pnum.case" horiz-adv-x="572" 
d="M165 359q0 -57 3 -103.5t15 -84.5q14 -43 41 -62.5t62 -19.5t62 19.5t41 62.5q12 38 14.5 84.5t2.5 103.5t-2.5 103.5t-14.5 83.5q-14 43 -41 62.5t-62 19.5t-62 -19.5t-41 -62.5q-12 -37 -15 -83.5t-3 -103.5zM41 359q0 69 7.5 126t28.5 104q30 65 82 102t127 37
t127 -37t81 -102q22 -47 29.5 -104t7.5 -126t-7.5 -126.5t-29.5 -104.5q-29 -64 -81 -101.5t-127 -37.5t-127 37.5t-82 101.5q-21 47 -28.5 104.5t-7.5 126.5z" />
    <glyph glyph-name="one.pnum.case" horiz-adv-x="373" 
d="M162 0v570l-134 -59l-35 90l290 127v-728h-121z" />
    <glyph glyph-name="two.pnum.case" horiz-adv-x="550" 
d="M254 627q-27 0 -48.5 -9t-37.5 -24t-28 -35.5t-21 -43.5l-101 38q10 31 29.5 62t49 56t70.5 41t94 16q49 0 92.5 -15.5t75 -44t50 -67.5t18.5 -86q0 -80 -54 -156q-18 -25 -44.5 -56.5t-63.5 -72.5l-114 -127h298v-103h-493v52l231 254q32 35 53.5 62.5t35 51.5t19 45.5
t5.5 45.5q0 25 -9 46t-24.5 36.5t-37 24.5t-45.5 9z" />
    <glyph glyph-name="three.pnum.case" horiz-adv-x="551" 
d="M511 218q0 -48 -18.5 -90t-51.5 -72.5t-79 -48.5t-101 -18q-48 0 -88.5 12.5t-72 34t-53.5 51t-34 63.5l104 43q15 -47 51.5 -75.5t87.5 -28.5q58 0 92.5 34.5t34.5 93.5q0 47 -26 81t-80 50q-17 5 -37.5 7.5t-49.5 2.5h-35l-6 11l168 245h-283v103h462v-22l-185 -266
q45 -6 81.5 -24t63 -45.5t41 -63.5t14.5 -78z" />
    <glyph glyph-name="four.pnum.case" horiz-adv-x="577" 
d="M343 182h-320v59l266 476h132l-249 -436h171v157h123v-157h85v-99h-85v-182h-123v182z" />
    <glyph glyph-name="five.pnum.case" horiz-adv-x="561" 
d="M520 231q0 -51 -19 -95t-52.5 -77t-79 -51.5t-99.5 -18.5q-91 0 -155.5 45t-90.5 118l104 38q14 -45 49 -73.5t86 -28.5q27 0 51.5 10t42.5 28t29 43.5t11 57.5q0 27 -9 52t-26.5 44t-42.5 30.5t-56 11.5q-32 0 -63 -13.5t-58 -41.5l-98 32l72 375h373v-103h-282
l-38 -193q27 17 60 26.5t68 9.5q46 0 86.5 -17t71 -47t48 -71.5t17.5 -90.5z" />
    <glyph glyph-name="six.pnum.case" horiz-adv-x="585" 
d="M262 449q25 12 58 12q51 0 93 -17.5t72 -48t46.5 -72.5t16.5 -91q0 -50 -19 -94.5t-53 -77.5t-81 -52t-104 -19q-55 0 -101.5 18t-80.5 50t-53 77t-19 98q0 26 5 50.5t15.5 51t28 57t41.5 69.5l162 257h149zM292 370q-31 0 -55.5 -11t-42 -30t-26.5 -45t-9 -55t9 -54
t26 -44.5t41.5 -30.5t56.5 -11t57 11.5t42 31t26 45t9 53.5q0 29 -9 54.5t-26 44.5t-42 30t-57 11z" />
    <glyph glyph-name="seven.pnum.case" horiz-adv-x="559" 
d="M26 614v103h515v-11l-320 -706h-136l281 614h-340z" />
    <glyph glyph-name="eight.pnum.case" horiz-adv-x="576" 
d="M288 419q48 0 79.5 28.5t31.5 78.5q0 41 -28 71.5t-83 30.5q-56 0 -83.5 -30.5t-27.5 -71.5q0 -50 31 -78.5t80 -28.5zM288 88q31 0 54.5 9.5t39.5 25.5t24.5 37.5t8.5 44.5q0 24 -8.5 45t-24.5 36.5t-39.5 25t-54.5 9.5t-55 -9.5t-40 -25t-24 -36.5t-8 -45
q0 -23 8 -44.5t24 -37.5t40 -25.5t55 -9.5zM288 -11q-60 0 -106 16t-78 44t-48.5 65.5t-16.5 80.5q0 64 31.5 109.5t91.5 68.5q-45 25 -71.5 66t-26.5 95q0 41 15.5 76.5t44.5 61.5t70.5 41t93.5 15q51 0 92.5 -15t71 -41t45 -61.5t15.5 -76.5q0 -54 -27 -95t-72 -66
q60 -23 91.5 -68.5t31.5 -109.5q0 -45 -17.5 -83t-50 -65t-78.5 -42.5t-102 -15.5z" />
    <glyph glyph-name="nine.pnum.case" horiz-adv-x="585" 
d="M323 268q-26 -12 -58 -12q-51 0 -93 17.5t-72.5 48t-47 72.5t-16.5 91q0 50 19 94.5t53 77.5t81.5 52t104.5 19q55 0 102 -18t81 -50.5t53 -77t19 -97.5q0 -26 -5 -50.5t-15.5 -51t-28 -57t-41.5 -69.5l-163 -257h-150zM293 347q31 0 55.5 11t41.5 30t26.5 45t9.5 55
q0 28 -9 53.5t-26 45t-42 30.5t-56 11q-32 0 -57.5 -11.5t-42.5 -31t-26 -45t-9 -53.5q0 -29 9 -54.5t26.5 -44.5t42.5 -30t57 -11z" />
    <glyph glyph-name="dollar.aalt" horiz-adv-x="584" 
d="M220 5q-28 6 -55.5 16.5t-52 24t-44.5 28.5t-32 29l69 89q21 -21 45.5 -38t50.5 -29t51.5 -19t46.5 -7q19 0 38 5.5t34.5 17t25 28t9.5 37.5q0 35 -22 58.5t-64 38.5l-74 27q-44 16 -79.5 33t-61 40t-39.5 54.5t-14 75.5q0 30 11 61t32 57.5t52.5 47t72.5 31.5v103h136
v-101q33 -6 59.5 -17t46.5 -23.5t33.5 -24.5t20.5 -19l-69 -88q-14 13 -31 26t-37.5 23.5t-43.5 17t-48 6.5q-49 0 -80.5 -24.5t-31.5 -62.5q0 -34 23 -56.5t64 -36.5l36 -12q43 -15 85 -31.5t75 -41t53 -59.5t20 -87q0 -38 -12.5 -70.5t-35.5 -58.5t-55.5 -44t-71.5 -26
v-107h-136v108v0z" />
    <glyph glyph-name="sterling.aalt" horiz-adv-x="584" 
d="M491 597q-34 17 -62 24t-53 7q-41 0 -64 -18t-36 -50t-19.5 -77.5t-15.5 -100.5h144v-105h-161q-2 -14 -5.5 -34.5t-8 -44t-9.5 -48.5t-9 -47h337v-103h-487v13q14 51 28.5 121.5t27.5 142.5h-67v105h85l21 139q8 52 28.5 91t51.5 64.5t70 38.5t84 13q49 0 89.5 -12
t63.5 -24l-33 -95v0z" />
    <glyph glyph-name="yen.aalt" horiz-adv-x="584" 
d="M383 437h145v-90h-175v-86h175v-90h-175v-171h-123v171h-174v90h174v86h-174v90h142l-189 280h131l156 -241l156 241h122z" />
    <glyph glyph-name="Euro.aalt" horiz-adv-x="711" 
d="M117 321q-1 8 -1.5 17t-0.5 19v16.5t2 17.5h-91l27 85h80q16 52 44.5 98t70 80t95.5 54t120 20q51 0 104 -13.5t104 -45.5l-31 -98q-37 25 -76.5 40.5t-89.5 15.5q-39 0 -72 -11.5t-59 -32t-45 -48t-31 -59.5h343l-27 -85h-343q-1 -9 -1 -17.5v-16.5v-17t1 -19h321
l-27 -86h-270q24 -66 75 -106t131 -40q42 0 84.5 11t93.5 35v-106q-38 -20 -86.5 -30t-92.5 -10q-68 0 -123.5 18.5t-97.5 51t-71 77.5t-45 99h-106l27 86h64z" />
    <glyph glyph-name="a.ss01" horiz-adv-x="568" 
d="M33 228q0 54 16.5 98t45 74.5t68 47.5t84.5 17q48 0 85.5 -19t62.5 -48l2 1l7 56h109v-455h-109l-4 55l-2 1q-19 -24 -57.5 -45.5t-90.5 -21.5q-45 0 -84.5 16t-69 46.5t-46.5 75t-17 101.5zM397 228q0 63 -31.5 105.5t-92.5 42.5q-52 0 -87.5 -39.5t-35.5 -108.5
q0 -68 34 -109t89 -41t89.5 39.5t34.5 110.5z" />
    <glyph glyph-name="aacute.ss01" horiz-adv-x="568" 
d="M33 228q0 54 16.5 98t45 74.5t68 47.5t84.5 17q48 0 85.5 -19t62.5 -48l2 1l7 56h109v-455h-109l-4 55l-2 1q-19 -24 -57.5 -45.5t-90.5 -21.5q-45 0 -84.5 16t-69 46.5t-46.5 75t-17 101.5zM397 228q0 63 -31.5 105.5t-92.5 42.5q-52 0 -87.5 -39.5t-35.5 -108.5
q0 -68 34 -109t89 -41t89.5 39.5t34.5 110.5zM346 726l68 -69q-38 -34 -75.5 -68t-75.5 -68q-14 15 -27.5 29t-27.5 29z" />
    <glyph glyph-name="agrave.ss01" horiz-adv-x="568" 
d="M33 228q0 54 16.5 98t45 74.5t68 47.5t84.5 17q48 0 85.5 -19t62.5 -48l2 1l7 56h109v-455h-109l-4 55l-2 1q-19 -24 -57.5 -45.5t-90.5 -21.5q-45 0 -84.5 16t-69 46.5t-46.5 75t-17 101.5zM397 228q0 63 -31.5 105.5t-92.5 42.5q-52 0 -87.5 -39.5t-35.5 -108.5
q0 -68 34 -109t89 -41t89.5 39.5t34.5 110.5zM200 726q35 -38 69 -74t69 -73q-14 -15 -27.5 -29.5t-27.5 -28.5l-152 136z" />
    <glyph glyph-name="acircumflex.ss01" horiz-adv-x="568" 
d="M33 228q0 54 16.5 98t45 74.5t68 47.5t84.5 17q48 0 85.5 -19t62.5 -48l2 1l7 56h109v-455h-109l-4 55l-2 1q-19 -24 -57.5 -45.5t-90.5 -21.5q-45 0 -84.5 16t-69 46.5t-46.5 75t-17 101.5zM397 228q0 63 -31.5 105.5t-92.5 42.5q-52 0 -87.5 -39.5t-35.5 -108.5
q0 -68 34 -109t89 -41t89.5 39.5t34.5 110.5zM419 585l-60 -56l-86 84l-84 -84l-61 56l145 139z" />
    <glyph glyph-name="adieresis.ss01" horiz-adv-x="568" 
d="M33 228q0 54 16.5 98t45 74.5t68 47.5t84.5 17q48 0 85.5 -19t62.5 -48l2 1l7 56h109v-455h-109l-4 55l-2 1q-19 -24 -57.5 -45.5t-90.5 -21.5q-45 0 -84.5 16t-69 46.5t-46.5 75t-17 101.5zM397 228q0 63 -31.5 105.5t-92.5 42.5q-52 0 -87.5 -39.5t-35.5 -108.5
q0 -68 34 -109t89 -41t89.5 39.5t34.5 110.5zM103 625q0 26 18.5 43.5t44.5 17.5t44.5 -17.5t18.5 -43.5t-18.5 -43.5t-44.5 -17.5t-44.5 17.5t-18.5 43.5zM317 625q0 26 18.5 43.5t44.5 17.5t44.5 -17.5t18.5 -43.5t-18.5 -43.5t-44.5 -17.5t-44.5 17.5t-18.5 43.5z" />
    <glyph glyph-name="atilde.ss01" horiz-adv-x="568" 
d="M33 228q0 54 16.5 98t45 74.5t68 47.5t84.5 17q48 0 85.5 -19t62.5 -48l2 1l7 56h109v-455h-109l-4 55l-2 1q-19 -24 -57.5 -45.5t-90.5 -21.5q-45 0 -84.5 16t-69 46.5t-46.5 75t-17 101.5zM397 228q0 63 -31.5 105.5t-92.5 42.5q-52 0 -87.5 -39.5t-35.5 -108.5
q0 -68 34 -109t89 -41t89.5 39.5t34.5 110.5zM326 651q14 0 23.5 13t16.5 35l66 -23q-5 -48 -31 -79.5t-69 -31.5q-17 0 -32.5 6t-34.5 17q-15 8 -25.5 13.5t-19.5 5.5q-15 0 -24 -14t-16 -34l-66 22q7 49 32.5 80.5t67.5 31.5q16 0 31 -6t35 -18l25 -12.5t21 -5.5z" />
    <glyph glyph-name="aring.ss01" horiz-adv-x="568" 
d="M33 228q0 54 16.5 98t45 74.5t68 47.5t84.5 17q48 0 85.5 -19t62.5 -48l2 1l7 56h109v-455h-109l-4 55l-2 1q-19 -24 -57.5 -45.5t-90.5 -21.5q-45 0 -84.5 16t-69 46.5t-46.5 75t-17 101.5zM397 228q0 63 -31.5 105.5t-92.5 42.5q-52 0 -87.5 -39.5t-35.5 -108.5
q0 -68 34 -109t89 -41t89.5 39.5t34.5 110.5zM374 626q0 -23 -8.5 -41.5t-22.5 -31.5t-32 -20t-38 -7t-38 7t-32 20.5t-22.5 31.5t-8.5 41t8.5 41t22.5 31t32 19.5t38 6.5t38 -7t32 -19.5t22.5 -31t8.5 -40.5zM320 626q0 23 -13.5 36t-32.5 13t-33.5 -13.5t-14.5 -36.5
t14.5 -36.5t33.5 -13.5t32.5 14t13.5 37z" />
    </font>
</defs>
</svg>
